G04 #@! TF.GenerationSoftware,KiCad,Pcbnew,(5.0.0)*
G04 #@! TF.CreationDate,2018-10-11T02:55:30-03:00*
G04 #@! TF.ProjectId,Circuito v2,436972637569746F2076322E6B696361,rev?*
G04 #@! TF.SameCoordinates,Original*
G04 #@! TF.FileFunction,Copper,L2,Bot,Signal*
G04 #@! TF.FilePolarity,Positive*
%FSLAX46Y46*%
G04 Gerber Fmt 4.6, Leading zero omitted, Abs format (unit mm)*
G04 Created by KiCad (PCBNEW (5.0.0)) date 10/11/18 02:55:30*
%MOMM*%
%LPD*%
G01*
G04 APERTURE LIST*
G04 #@! TA.AperFunction,ComponentPad*
%ADD10C,3.000000*%
G04 #@! TD*
G04 #@! TA.AperFunction,ComponentPad*
%ADD11R,3.000000X3.000000*%
G04 #@! TD*
G04 #@! TA.AperFunction,ComponentPad*
%ADD12O,1.600000X1.600000*%
G04 #@! TD*
G04 #@! TA.AperFunction,ComponentPad*
%ADD13C,1.600000*%
G04 #@! TD*
G04 #@! TA.AperFunction,ComponentPad*
%ADD14O,2.400000X1.600000*%
G04 #@! TD*
G04 #@! TA.AperFunction,ComponentPad*
%ADD15R,2.400000X1.600000*%
G04 #@! TD*
G04 #@! TA.AperFunction,ViaPad*
%ADD16C,1.500000*%
G04 #@! TD*
G04 #@! TA.AperFunction,Conductor*
%ADD17C,1.250000*%
G04 #@! TD*
G04 #@! TA.AperFunction,Conductor*
%ADD18C,1.500000*%
G04 #@! TD*
G04 #@! TA.AperFunction,Conductor*
%ADD19C,1.000000*%
G04 #@! TD*
G04 #@! TA.AperFunction,Conductor*
%ADD20C,0.700000*%
G04 #@! TD*
G04 APERTURE END LIST*
D10*
G04 #@! TO.P,J1,3*
G04 #@! TO.N,GND*
X144462500Y-60325000D03*
G04 #@! TO.P,J1,2*
G04 #@! TO.N,Net-(J1-Pad2)*
X139382500Y-60325000D03*
D11*
G04 #@! TO.P,J1,1*
G04 #@! TO.N,+5V*
X134302500Y-60325000D03*
G04 #@! TD*
D12*
G04 #@! TO.P,R1,2*
G04 #@! TO.N,Net-(R1-Pad2)*
X148590000Y-29591000D03*
D13*
G04 #@! TO.P,R1,1*
G04 #@! TO.N,+5V*
X148590000Y-37211000D03*
G04 #@! TD*
G04 #@! TO.P,R2,1*
G04 #@! TO.N,GND*
X131191000Y-32766000D03*
D12*
G04 #@! TO.P,R2,2*
G04 #@! TO.N,Net-(R2-Pad2)*
X131191000Y-40386000D03*
G04 #@! TD*
G04 #@! TO.P,R3,2*
G04 #@! TO.N,Net-(R3-Pad2)*
X135890000Y-54038500D03*
D13*
G04 #@! TO.P,R3,1*
G04 #@! TO.N,+5V*
X143510000Y-54038500D03*
G04 #@! TD*
G04 #@! TO.P,R4,1*
G04 #@! TO.N,Net-(R3-Pad2)*
X127825500Y-43243500D03*
D12*
G04 #@! TO.P,R4,2*
G04 #@! TO.N,GND*
X127825500Y-50863500D03*
G04 #@! TD*
G04 #@! TO.P,R5,2*
G04 #@! TO.N,Net-(R5-Pad2)*
X135953500Y-50482500D03*
D13*
G04 #@! TO.P,R5,1*
G04 #@! TO.N,Net-(R5-Pad1)*
X143573500Y-50482500D03*
G04 #@! TD*
G04 #@! TO.P,R6,1*
G04 #@! TO.N,Net-(R5-Pad2)*
X131318000Y-43243500D03*
D12*
G04 #@! TO.P,R6,2*
G04 #@! TO.N,Net-(J1-Pad2)*
X131318000Y-50863500D03*
G04 #@! TD*
D14*
G04 #@! TO.P,U1,4*
G04 #@! TO.N,Net-(R2-Pad2)*
X136906000Y-28130500D03*
G04 #@! TO.P,U1,2*
G04 #@! TO.N,GND*
X136906000Y-25717500D03*
G04 #@! TO.P,U1,3*
G04 #@! TO.N,+5V*
X141224000Y-28003500D03*
D15*
G04 #@! TO.P,U1,1*
G04 #@! TO.N,Net-(R1-Pad2)*
X141224000Y-25717500D03*
G04 #@! TD*
D14*
G04 #@! TO.P,U2,14*
G04 #@! TO.N,N/C*
X143573500Y-31686500D03*
G04 #@! TO.P,U2,7*
G04 #@! TO.N,Net-(J1-Pad2)*
X135953500Y-46926500D03*
G04 #@! TO.P,U2,13*
G04 #@! TO.N,N/C*
X143573500Y-34226500D03*
G04 #@! TO.P,U2,6*
G04 #@! TO.N,Net-(R3-Pad2)*
X135953500Y-44386500D03*
G04 #@! TO.P,U2,12*
G04 #@! TO.N,N/C*
X143573500Y-36766500D03*
G04 #@! TO.P,U2,5*
G04 #@! TO.N,Net-(R5-Pad2)*
X135953500Y-41846500D03*
G04 #@! TO.P,U2,11*
G04 #@! TO.N,GND*
X143573500Y-39306500D03*
G04 #@! TO.P,U2,4*
G04 #@! TO.N,+5V*
X135953500Y-39306500D03*
G04 #@! TO.P,U2,10*
G04 #@! TO.N,N/C*
X143573500Y-41846500D03*
G04 #@! TO.P,U2,3*
G04 #@! TO.N,Net-(R2-Pad2)*
X135953500Y-36766500D03*
G04 #@! TO.P,U2,9*
G04 #@! TO.N,N/C*
X143573500Y-44386500D03*
G04 #@! TO.P,U2,2*
G04 #@! TO.N,Net-(R5-Pad1)*
X135953500Y-34226500D03*
G04 #@! TO.P,U2,8*
G04 #@! TO.N,N/C*
X143573500Y-46926500D03*
D15*
G04 #@! TO.P,U2,1*
G04 #@! TO.N,Net-(R5-Pad1)*
X135953500Y-31686500D03*
G04 #@! TD*
D16*
G04 #@! TO.N,Net-(R3-Pad2)*
X133477000Y-45720000D03*
X133413500Y-54038500D03*
G04 #@! TO.N,Net-(R5-Pad1)*
X128079500Y-35306000D03*
X128143000Y-22923500D03*
X150495000Y-43497500D03*
X150495000Y-35369500D03*
G04 #@! TD*
D17*
G04 #@! TO.N,Net-(J1-Pad2)*
X135953500Y-46926500D02*
X135255000Y-46926500D01*
X135255000Y-46926500D02*
X131318000Y-50863500D01*
D18*
X131318000Y-50863500D02*
X131318000Y-52451000D01*
X139382500Y-62166500D02*
X139382500Y-60325000D01*
X136842500Y-64706500D02*
X139382500Y-62166500D01*
X131254500Y-64706500D02*
X136842500Y-64706500D01*
X128524000Y-61976000D02*
X131254500Y-64706500D01*
X128524000Y-55245000D02*
X128524000Y-61976000D01*
X131318000Y-52451000D02*
X128524000Y-55245000D01*
D19*
G04 #@! TO.N,+5V*
X135953500Y-39306500D02*
X139065000Y-39306500D01*
X139636500Y-39878000D02*
X140874750Y-41116250D01*
X140874750Y-41116250D02*
X140906500Y-41148000D01*
X139065000Y-39306500D02*
X139636500Y-39878000D01*
X141224000Y-28003500D02*
X141224000Y-37147500D01*
X141224000Y-37147500D02*
X140144500Y-38227000D01*
X140144500Y-38227000D02*
X139065000Y-39306500D01*
X140144500Y-38227000D02*
X140144500Y-39370000D01*
X140144500Y-39370000D02*
X139636500Y-39878000D01*
X140144500Y-39370000D02*
X140144500Y-40386000D01*
X140144500Y-40386000D02*
X140906500Y-41148000D01*
X148590000Y-37211000D02*
X148526500Y-37211000D01*
X143637000Y-28003500D02*
X141224000Y-28003500D01*
X147129500Y-31496000D02*
X143637000Y-28003500D01*
X147129500Y-35814000D02*
X147129500Y-31496000D01*
X148526500Y-37211000D02*
X147129500Y-35814000D01*
D18*
X134302500Y-60325000D02*
X134302500Y-59817000D01*
X134302500Y-59817000D02*
X140081000Y-54038500D01*
X140081000Y-54038500D02*
X141922500Y-54038500D01*
X141922500Y-54038500D02*
X143510000Y-54038500D01*
D19*
X140874750Y-41116250D02*
X140874750Y-52705000D01*
X140874750Y-52705000D02*
X140874750Y-52990750D01*
X140874750Y-52990750D02*
X141922500Y-54038500D01*
X140874750Y-52705000D02*
X140874750Y-53244750D01*
X140874750Y-53244750D02*
X140081000Y-54038500D01*
D18*
G04 #@! TO.N,Net-(R1-Pad2)*
X141224000Y-25717500D02*
X144716500Y-25717500D01*
X144716500Y-25717500D02*
X148590000Y-29591000D01*
D17*
G04 #@! TO.N,Net-(R2-Pad2)*
X135953500Y-36766500D02*
X134810500Y-36766500D01*
X134810500Y-36766500D02*
X131191000Y-40386000D01*
D18*
X136906000Y-28130500D02*
X137160000Y-28130500D01*
X138049000Y-36766500D02*
X135953500Y-36766500D01*
X139065000Y-35750500D02*
X138049000Y-36766500D01*
X139065000Y-30035500D02*
X139065000Y-35750500D01*
X137160000Y-28130500D02*
X139065000Y-30035500D01*
D17*
G04 #@! TO.N,Net-(R3-Pad2)*
X127825500Y-43243500D02*
X127825500Y-43942000D01*
X134810500Y-44386500D02*
X135953500Y-44386500D01*
X133477000Y-45720000D02*
X134810500Y-44386500D01*
X129603500Y-45720000D02*
X133477000Y-45720000D01*
X127825500Y-43942000D02*
X129603500Y-45720000D01*
D19*
X135953500Y-44386500D02*
X134810500Y-44386500D01*
X133413500Y-54038500D02*
X135890000Y-54038500D01*
D17*
G04 #@! TO.N,Net-(R5-Pad2)*
X131318000Y-43243500D02*
X132461000Y-43243500D01*
X133858000Y-41846500D02*
X135953500Y-41846500D01*
X132461000Y-43243500D02*
X133858000Y-41846500D01*
D19*
X135953500Y-50482500D02*
X138112500Y-50482500D01*
X138112500Y-50482500D02*
X139255500Y-49339500D01*
X139255500Y-49339500D02*
X139255500Y-43497500D01*
X139255500Y-43497500D02*
X137604500Y-41846500D01*
X137604500Y-41846500D02*
X135953500Y-41846500D01*
D18*
G04 #@! TO.N,Net-(R5-Pad1)*
X135953500Y-31686500D02*
X135953500Y-34226500D01*
D19*
X143573500Y-50482500D02*
X144399000Y-50482500D01*
X145288000Y-22987000D02*
X135953500Y-22987000D01*
X150558500Y-28257500D02*
X145288000Y-22987000D01*
X150558500Y-44323000D02*
X150558500Y-43053000D01*
X150495000Y-34925000D02*
X150558500Y-28257500D01*
X144399000Y-50482500D02*
X150558500Y-44323000D01*
X135953500Y-22987000D02*
X128206500Y-22987000D01*
X134366000Y-34226500D02*
X135953500Y-34226500D01*
X133127750Y-35464750D02*
X134366000Y-34226500D01*
X128238250Y-35464750D02*
X133127750Y-35464750D01*
X128079500Y-35306000D02*
X128238250Y-35464750D01*
X128206500Y-22987000D02*
X128143000Y-22923500D01*
X150495000Y-35369500D02*
X150495000Y-34925000D01*
X150558500Y-43053000D02*
X150495000Y-43497500D01*
G04 #@! TD*
D20*
G04 #@! TO.N,GND*
G36*
X153574000Y-20796223D02*
X153574000Y-66896500D01*
X125572950Y-66896500D01*
X125615439Y-51217832D01*
X125907960Y-51217832D01*
X126189521Y-51924671D01*
X126720145Y-52469956D01*
X127419049Y-52770673D01*
X127471169Y-52781037D01*
X127775500Y-52525248D01*
X127775500Y-50913500D01*
X126163638Y-50913500D01*
X125907960Y-51217832D01*
X125615439Y-51217832D01*
X125617359Y-50509168D01*
X125907960Y-50509168D01*
X126163638Y-50813500D01*
X127775500Y-50813500D01*
X127775500Y-49201752D01*
X127471169Y-48945963D01*
X127419049Y-48956327D01*
X126720145Y-49257044D01*
X126189521Y-49802329D01*
X125907960Y-50509168D01*
X125617359Y-50509168D01*
X125638046Y-42875512D01*
X125975500Y-42875512D01*
X125975500Y-43611488D01*
X126122566Y-43966537D01*
X126150500Y-44106971D01*
X126150500Y-44106972D01*
X126247685Y-44595553D01*
X126617893Y-45149608D01*
X126757751Y-45243058D01*
X128302440Y-46787747D01*
X128395892Y-46927608D01*
X128949947Y-47297815D01*
X129438528Y-47395000D01*
X129603500Y-47427815D01*
X129768472Y-47395000D01*
X132417693Y-47395000D01*
X130715614Y-49097079D01*
X130596166Y-49120839D01*
X129984225Y-49529725D01*
X129588690Y-50121684D01*
X129461479Y-49802329D01*
X128930855Y-49257044D01*
X128231951Y-48956327D01*
X128179831Y-48945963D01*
X127875500Y-49201752D01*
X127875500Y-50813500D01*
X127895500Y-50813500D01*
X127895500Y-50913500D01*
X127875500Y-50913500D01*
X127875500Y-52525248D01*
X128179831Y-52781037D01*
X128231951Y-52770673D01*
X128619489Y-52603927D01*
X127376572Y-53846845D01*
X127226272Y-53947272D01*
X126828437Y-54542676D01*
X126725909Y-55058118D01*
X126688736Y-55245000D01*
X126724000Y-55422283D01*
X126724001Y-61798712D01*
X126688736Y-61976000D01*
X126790338Y-62486785D01*
X126828438Y-62678325D01*
X127226273Y-63273728D01*
X127376570Y-63374153D01*
X129856347Y-65853930D01*
X129956772Y-66004228D01*
X130552175Y-66402063D01*
X131077216Y-66506500D01*
X131254499Y-66541764D01*
X131431782Y-66506500D01*
X136665217Y-66506500D01*
X136842500Y-66541764D01*
X137019783Y-66506500D01*
X137019784Y-66506500D01*
X137544825Y-66402063D01*
X138140228Y-66004228D01*
X138240655Y-65853928D01*
X140529931Y-63564653D01*
X140680228Y-63464228D01*
X141078063Y-62868825D01*
X141182500Y-62343784D01*
X141182500Y-62343783D01*
X141217764Y-62166501D01*
X141206064Y-62107680D01*
X141246504Y-62067240D01*
X142790971Y-62067240D01*
X142915076Y-62539912D01*
X143880477Y-62963485D01*
X144934485Y-62985373D01*
X145916638Y-62602243D01*
X146009924Y-62539912D01*
X146134029Y-62067240D01*
X144462500Y-60395711D01*
X142790971Y-62067240D01*
X141246504Y-62067240D01*
X141544285Y-61769459D01*
X141872438Y-60977228D01*
X142185257Y-61779138D01*
X142247588Y-61872424D01*
X142720260Y-61996529D01*
X144391789Y-60325000D01*
X144533211Y-60325000D01*
X146204740Y-61996529D01*
X146677412Y-61872424D01*
X147100985Y-60907023D01*
X147122873Y-59853015D01*
X146739743Y-58870862D01*
X146677412Y-58777576D01*
X146204740Y-58653471D01*
X144533211Y-60325000D01*
X144391789Y-60325000D01*
X142720260Y-58653471D01*
X142247588Y-58777576D01*
X141863881Y-59652114D01*
X141544285Y-58880541D01*
X141246504Y-58582760D01*
X142790971Y-58582760D01*
X144462500Y-60254289D01*
X146134029Y-58582760D01*
X146009924Y-58110088D01*
X145044523Y-57686515D01*
X143990515Y-57664627D01*
X143008362Y-58047757D01*
X142915076Y-58110088D01*
X142790971Y-58582760D01*
X141246504Y-58582760D01*
X140826959Y-58163215D01*
X139889726Y-57775000D01*
X138890084Y-57775000D01*
X140826584Y-55838500D01*
X143021301Y-55838500D01*
X143142012Y-55888500D01*
X143877988Y-55888500D01*
X144557941Y-55606855D01*
X145078355Y-55086441D01*
X145360000Y-54406488D01*
X145360000Y-53670512D01*
X145078355Y-52990559D01*
X144557941Y-52470145D01*
X144083562Y-52273651D01*
X144621441Y-52050855D01*
X144661680Y-52010616D01*
X145003780Y-51942568D01*
X145516488Y-51599988D01*
X145602967Y-51470563D01*
X151546567Y-45526964D01*
X151675988Y-45440488D01*
X152018568Y-44927780D01*
X152108500Y-44475660D01*
X152108500Y-44475659D01*
X152138866Y-44323001D01*
X152126702Y-44261849D01*
X152295000Y-43855542D01*
X152295000Y-43139458D01*
X152027704Y-42494148D01*
X152018568Y-42448220D01*
X151908476Y-42283456D01*
X151822793Y-42104780D01*
X151738722Y-42029401D01*
X151675988Y-41935512D01*
X151511220Y-41825418D01*
X151363686Y-41693136D01*
X151257171Y-41655668D01*
X151163280Y-41592932D01*
X150968923Y-41554272D01*
X150781997Y-41488518D01*
X150669250Y-41494663D01*
X150558500Y-41472634D01*
X150364146Y-41511293D01*
X150166284Y-41522078D01*
X150064469Y-41570903D01*
X149953721Y-41592932D01*
X149788957Y-41703024D01*
X149610281Y-41788707D01*
X149534901Y-41872778D01*
X149441013Y-41935512D01*
X149330919Y-42100279D01*
X149198636Y-42247814D01*
X149198383Y-42248533D01*
X148969034Y-42477882D01*
X148695000Y-43139458D01*
X148695000Y-43855542D01*
X148735691Y-43953778D01*
X145843687Y-46845782D01*
X145716161Y-46204666D01*
X145349888Y-45656500D01*
X145716161Y-45108334D01*
X145859743Y-44386500D01*
X145716161Y-43664666D01*
X145349888Y-43116500D01*
X145716161Y-42568334D01*
X145859743Y-41846500D01*
X145716161Y-41124666D01*
X145393199Y-40641320D01*
X145794200Y-40006539D01*
X145891037Y-39660831D01*
X145635248Y-39356500D01*
X143623500Y-39356500D01*
X143623500Y-39376500D01*
X143523500Y-39376500D01*
X143523500Y-39356500D01*
X143503500Y-39356500D01*
X143503500Y-39256500D01*
X143523500Y-39256500D01*
X143523500Y-39236500D01*
X143623500Y-39236500D01*
X143623500Y-39256500D01*
X145635248Y-39256500D01*
X145891037Y-38952169D01*
X145794200Y-38606461D01*
X145393199Y-37971680D01*
X145716161Y-37488334D01*
X145859743Y-36766500D01*
X145841928Y-36676939D01*
X146012012Y-36931488D01*
X146141436Y-37017966D01*
X146766546Y-37643077D01*
X147021645Y-38258941D01*
X147542059Y-38779355D01*
X148222012Y-39061000D01*
X148957988Y-39061000D01*
X149637941Y-38779355D01*
X150158355Y-38258941D01*
X150440000Y-37578988D01*
X150440000Y-37169500D01*
X150853042Y-37169500D01*
X151514618Y-36895466D01*
X152020966Y-36389118D01*
X152295000Y-35727542D01*
X152295000Y-35011458D01*
X152049882Y-34419691D01*
X152107046Y-28417469D01*
X152138866Y-28257500D01*
X152080143Y-27962279D01*
X152024261Y-27666653D01*
X152020064Y-27660240D01*
X152018568Y-27652720D01*
X151851354Y-27402467D01*
X151686579Y-27150706D01*
X151551838Y-27058807D01*
X146491967Y-21998937D01*
X146405488Y-21869512D01*
X145892780Y-21526932D01*
X145440660Y-21437000D01*
X145288000Y-21406634D01*
X145135340Y-21437000D01*
X129202084Y-21437000D01*
X129162618Y-21397534D01*
X128501042Y-21123500D01*
X127784958Y-21123500D01*
X127123382Y-21397534D01*
X126617034Y-21903882D01*
X126343000Y-22565458D01*
X126343000Y-23281542D01*
X126617034Y-23943118D01*
X127123382Y-24449466D01*
X127784958Y-24723500D01*
X128501042Y-24723500D01*
X128951292Y-24537000D01*
X134988815Y-24537000D01*
X134685300Y-25017461D01*
X134588463Y-25363169D01*
X134844252Y-25667500D01*
X136856000Y-25667500D01*
X136856000Y-25647500D01*
X136956000Y-25647500D01*
X136956000Y-25667500D01*
X136976000Y-25667500D01*
X136976000Y-25767500D01*
X136956000Y-25767500D01*
X136956000Y-25787500D01*
X136856000Y-25787500D01*
X136856000Y-25767500D01*
X134844252Y-25767500D01*
X134588463Y-26071831D01*
X134685300Y-26417539D01*
X135045062Y-26987039D01*
X134763339Y-27408666D01*
X134619757Y-28130500D01*
X134763339Y-28852334D01*
X135172225Y-29464275D01*
X135698514Y-29815930D01*
X134753500Y-29815930D01*
X134343811Y-29897422D01*
X133996493Y-30129493D01*
X133764422Y-30476811D01*
X133682930Y-30886500D01*
X133682930Y-32486500D01*
X133741264Y-32779766D01*
X133248512Y-33109012D01*
X133162035Y-33238434D01*
X133071915Y-33328554D01*
X133135329Y-33181372D01*
X133146282Y-32405692D01*
X132859562Y-31684864D01*
X132828370Y-31638184D01*
X132428414Y-31599296D01*
X131261711Y-32766000D01*
X131275853Y-32780142D01*
X131205142Y-32850853D01*
X131191000Y-32836711D01*
X131176858Y-32850853D01*
X131106147Y-32780142D01*
X131120289Y-32766000D01*
X129953586Y-31599296D01*
X129553630Y-31638184D01*
X129246671Y-32350628D01*
X129235718Y-33126308D01*
X129522438Y-33847136D01*
X129553630Y-33893816D01*
X129768932Y-33914750D01*
X129233834Y-33914750D01*
X129099118Y-33780034D01*
X128437542Y-33506000D01*
X127721458Y-33506000D01*
X127059882Y-33780034D01*
X126553534Y-34286382D01*
X126279500Y-34947958D01*
X126279500Y-35664042D01*
X126553534Y-36325618D01*
X127059882Y-36831966D01*
X127721458Y-37106000D01*
X128437542Y-37106000D01*
X128657839Y-37014750D01*
X132193442Y-37014750D01*
X130588613Y-38619579D01*
X130469166Y-38643339D01*
X129857225Y-39052225D01*
X129448339Y-39664166D01*
X129304757Y-40386000D01*
X129448339Y-41107834D01*
X129857225Y-41719775D01*
X130077947Y-41867257D01*
X129749645Y-42195559D01*
X129571750Y-42625037D01*
X129393855Y-42195559D01*
X128873441Y-41675145D01*
X128193488Y-41393500D01*
X127457512Y-41393500D01*
X126777559Y-41675145D01*
X126257145Y-42195559D01*
X125975500Y-42875512D01*
X125638046Y-42875512D01*
X125668797Y-31528586D01*
X130024296Y-31528586D01*
X131191000Y-32695289D01*
X132357704Y-31528586D01*
X132318816Y-31128630D01*
X131606372Y-30821671D01*
X130830692Y-30810718D01*
X130109864Y-31097438D01*
X130063184Y-31128630D01*
X130024296Y-31528586D01*
X125668797Y-31528586D01*
X125698051Y-20734276D01*
X153574000Y-20796223D01*
X153574000Y-20796223D01*
G37*
X153574000Y-20796223D02*
X153574000Y-66896500D01*
X125572950Y-66896500D01*
X125615439Y-51217832D01*
X125907960Y-51217832D01*
X126189521Y-51924671D01*
X126720145Y-52469956D01*
X127419049Y-52770673D01*
X127471169Y-52781037D01*
X127775500Y-52525248D01*
X127775500Y-50913500D01*
X126163638Y-50913500D01*
X125907960Y-51217832D01*
X125615439Y-51217832D01*
X125617359Y-50509168D01*
X125907960Y-50509168D01*
X126163638Y-50813500D01*
X127775500Y-50813500D01*
X127775500Y-49201752D01*
X127471169Y-48945963D01*
X127419049Y-48956327D01*
X126720145Y-49257044D01*
X126189521Y-49802329D01*
X125907960Y-50509168D01*
X125617359Y-50509168D01*
X125638046Y-42875512D01*
X125975500Y-42875512D01*
X125975500Y-43611488D01*
X126122566Y-43966537D01*
X126150500Y-44106971D01*
X126150500Y-44106972D01*
X126247685Y-44595553D01*
X126617893Y-45149608D01*
X126757751Y-45243058D01*
X128302440Y-46787747D01*
X128395892Y-46927608D01*
X128949947Y-47297815D01*
X129438528Y-47395000D01*
X129603500Y-47427815D01*
X129768472Y-47395000D01*
X132417693Y-47395000D01*
X130715614Y-49097079D01*
X130596166Y-49120839D01*
X129984225Y-49529725D01*
X129588690Y-50121684D01*
X129461479Y-49802329D01*
X128930855Y-49257044D01*
X128231951Y-48956327D01*
X128179831Y-48945963D01*
X127875500Y-49201752D01*
X127875500Y-50813500D01*
X127895500Y-50813500D01*
X127895500Y-50913500D01*
X127875500Y-50913500D01*
X127875500Y-52525248D01*
X128179831Y-52781037D01*
X128231951Y-52770673D01*
X128619489Y-52603927D01*
X127376572Y-53846845D01*
X127226272Y-53947272D01*
X126828437Y-54542676D01*
X126725909Y-55058118D01*
X126688736Y-55245000D01*
X126724000Y-55422283D01*
X126724001Y-61798712D01*
X126688736Y-61976000D01*
X126790338Y-62486785D01*
X126828438Y-62678325D01*
X127226273Y-63273728D01*
X127376570Y-63374153D01*
X129856347Y-65853930D01*
X129956772Y-66004228D01*
X130552175Y-66402063D01*
X131077216Y-66506500D01*
X131254499Y-66541764D01*
X131431782Y-66506500D01*
X136665217Y-66506500D01*
X136842500Y-66541764D01*
X137019783Y-66506500D01*
X137019784Y-66506500D01*
X137544825Y-66402063D01*
X138140228Y-66004228D01*
X138240655Y-65853928D01*
X140529931Y-63564653D01*
X140680228Y-63464228D01*
X141078063Y-62868825D01*
X141182500Y-62343784D01*
X141182500Y-62343783D01*
X141217764Y-62166501D01*
X141206064Y-62107680D01*
X141246504Y-62067240D01*
X142790971Y-62067240D01*
X142915076Y-62539912D01*
X143880477Y-62963485D01*
X144934485Y-62985373D01*
X145916638Y-62602243D01*
X146009924Y-62539912D01*
X146134029Y-62067240D01*
X144462500Y-60395711D01*
X142790971Y-62067240D01*
X141246504Y-62067240D01*
X141544285Y-61769459D01*
X141872438Y-60977228D01*
X142185257Y-61779138D01*
X142247588Y-61872424D01*
X142720260Y-61996529D01*
X144391789Y-60325000D01*
X144533211Y-60325000D01*
X146204740Y-61996529D01*
X146677412Y-61872424D01*
X147100985Y-60907023D01*
X147122873Y-59853015D01*
X146739743Y-58870862D01*
X146677412Y-58777576D01*
X146204740Y-58653471D01*
X144533211Y-60325000D01*
X144391789Y-60325000D01*
X142720260Y-58653471D01*
X142247588Y-58777576D01*
X141863881Y-59652114D01*
X141544285Y-58880541D01*
X141246504Y-58582760D01*
X142790971Y-58582760D01*
X144462500Y-60254289D01*
X146134029Y-58582760D01*
X146009924Y-58110088D01*
X145044523Y-57686515D01*
X143990515Y-57664627D01*
X143008362Y-58047757D01*
X142915076Y-58110088D01*
X142790971Y-58582760D01*
X141246504Y-58582760D01*
X140826959Y-58163215D01*
X139889726Y-57775000D01*
X138890084Y-57775000D01*
X140826584Y-55838500D01*
X143021301Y-55838500D01*
X143142012Y-55888500D01*
X143877988Y-55888500D01*
X144557941Y-55606855D01*
X145078355Y-55086441D01*
X145360000Y-54406488D01*
X145360000Y-53670512D01*
X145078355Y-52990559D01*
X144557941Y-52470145D01*
X144083562Y-52273651D01*
X144621441Y-52050855D01*
X144661680Y-52010616D01*
X145003780Y-51942568D01*
X145516488Y-51599988D01*
X145602967Y-51470563D01*
X151546567Y-45526964D01*
X151675988Y-45440488D01*
X152018568Y-44927780D01*
X152108500Y-44475660D01*
X152108500Y-44475659D01*
X152138866Y-44323001D01*
X152126702Y-44261849D01*
X152295000Y-43855542D01*
X152295000Y-43139458D01*
X152027704Y-42494148D01*
X152018568Y-42448220D01*
X151908476Y-42283456D01*
X151822793Y-42104780D01*
X151738722Y-42029401D01*
X151675988Y-41935512D01*
X151511220Y-41825418D01*
X151363686Y-41693136D01*
X151257171Y-41655668D01*
X151163280Y-41592932D01*
X150968923Y-41554272D01*
X150781997Y-41488518D01*
X150669250Y-41494663D01*
X150558500Y-41472634D01*
X150364146Y-41511293D01*
X150166284Y-41522078D01*
X150064469Y-41570903D01*
X149953721Y-41592932D01*
X149788957Y-41703024D01*
X149610281Y-41788707D01*
X149534901Y-41872778D01*
X149441013Y-41935512D01*
X149330919Y-42100279D01*
X149198636Y-42247814D01*
X149198383Y-42248533D01*
X148969034Y-42477882D01*
X148695000Y-43139458D01*
X148695000Y-43855542D01*
X148735691Y-43953778D01*
X145843687Y-46845782D01*
X145716161Y-46204666D01*
X145349888Y-45656500D01*
X145716161Y-45108334D01*
X145859743Y-44386500D01*
X145716161Y-43664666D01*
X145349888Y-43116500D01*
X145716161Y-42568334D01*
X145859743Y-41846500D01*
X145716161Y-41124666D01*
X145393199Y-40641320D01*
X145794200Y-40006539D01*
X145891037Y-39660831D01*
X145635248Y-39356500D01*
X143623500Y-39356500D01*
X143623500Y-39376500D01*
X143523500Y-39376500D01*
X143523500Y-39356500D01*
X143503500Y-39356500D01*
X143503500Y-39256500D01*
X143523500Y-39256500D01*
X143523500Y-39236500D01*
X143623500Y-39236500D01*
X143623500Y-39256500D01*
X145635248Y-39256500D01*
X145891037Y-38952169D01*
X145794200Y-38606461D01*
X145393199Y-37971680D01*
X145716161Y-37488334D01*
X145859743Y-36766500D01*
X145841928Y-36676939D01*
X146012012Y-36931488D01*
X146141436Y-37017966D01*
X146766546Y-37643077D01*
X147021645Y-38258941D01*
X147542059Y-38779355D01*
X148222012Y-39061000D01*
X148957988Y-39061000D01*
X149637941Y-38779355D01*
X150158355Y-38258941D01*
X150440000Y-37578988D01*
X150440000Y-37169500D01*
X150853042Y-37169500D01*
X151514618Y-36895466D01*
X152020966Y-36389118D01*
X152295000Y-35727542D01*
X152295000Y-35011458D01*
X152049882Y-34419691D01*
X152107046Y-28417469D01*
X152138866Y-28257500D01*
X152080143Y-27962279D01*
X152024261Y-27666653D01*
X152020064Y-27660240D01*
X152018568Y-27652720D01*
X151851354Y-27402467D01*
X151686579Y-27150706D01*
X151551838Y-27058807D01*
X146491967Y-21998937D01*
X146405488Y-21869512D01*
X145892780Y-21526932D01*
X145440660Y-21437000D01*
X145288000Y-21406634D01*
X145135340Y-21437000D01*
X129202084Y-21437000D01*
X129162618Y-21397534D01*
X128501042Y-21123500D01*
X127784958Y-21123500D01*
X127123382Y-21397534D01*
X126617034Y-21903882D01*
X126343000Y-22565458D01*
X126343000Y-23281542D01*
X126617034Y-23943118D01*
X127123382Y-24449466D01*
X127784958Y-24723500D01*
X128501042Y-24723500D01*
X128951292Y-24537000D01*
X134988815Y-24537000D01*
X134685300Y-25017461D01*
X134588463Y-25363169D01*
X134844252Y-25667500D01*
X136856000Y-25667500D01*
X136856000Y-25647500D01*
X136956000Y-25647500D01*
X136956000Y-25667500D01*
X136976000Y-25667500D01*
X136976000Y-25767500D01*
X136956000Y-25767500D01*
X136956000Y-25787500D01*
X136856000Y-25787500D01*
X136856000Y-25767500D01*
X134844252Y-25767500D01*
X134588463Y-26071831D01*
X134685300Y-26417539D01*
X135045062Y-26987039D01*
X134763339Y-27408666D01*
X134619757Y-28130500D01*
X134763339Y-28852334D01*
X135172225Y-29464275D01*
X135698514Y-29815930D01*
X134753500Y-29815930D01*
X134343811Y-29897422D01*
X133996493Y-30129493D01*
X133764422Y-30476811D01*
X133682930Y-30886500D01*
X133682930Y-32486500D01*
X133741264Y-32779766D01*
X133248512Y-33109012D01*
X133162035Y-33238434D01*
X133071915Y-33328554D01*
X133135329Y-33181372D01*
X133146282Y-32405692D01*
X132859562Y-31684864D01*
X132828370Y-31638184D01*
X132428414Y-31599296D01*
X131261711Y-32766000D01*
X131275853Y-32780142D01*
X131205142Y-32850853D01*
X131191000Y-32836711D01*
X131176858Y-32850853D01*
X131106147Y-32780142D01*
X131120289Y-32766000D01*
X129953586Y-31599296D01*
X129553630Y-31638184D01*
X129246671Y-32350628D01*
X129235718Y-33126308D01*
X129522438Y-33847136D01*
X129553630Y-33893816D01*
X129768932Y-33914750D01*
X129233834Y-33914750D01*
X129099118Y-33780034D01*
X128437542Y-33506000D01*
X127721458Y-33506000D01*
X127059882Y-33780034D01*
X126553534Y-34286382D01*
X126279500Y-34947958D01*
X126279500Y-35664042D01*
X126553534Y-36325618D01*
X127059882Y-36831966D01*
X127721458Y-37106000D01*
X128437542Y-37106000D01*
X128657839Y-37014750D01*
X132193442Y-37014750D01*
X130588613Y-38619579D01*
X130469166Y-38643339D01*
X129857225Y-39052225D01*
X129448339Y-39664166D01*
X129304757Y-40386000D01*
X129448339Y-41107834D01*
X129857225Y-41719775D01*
X130077947Y-41867257D01*
X129749645Y-42195559D01*
X129571750Y-42625037D01*
X129393855Y-42195559D01*
X128873441Y-41675145D01*
X128193488Y-41393500D01*
X127457512Y-41393500D01*
X126777559Y-41675145D01*
X126257145Y-42195559D01*
X125975500Y-42875512D01*
X125638046Y-42875512D01*
X125668797Y-31528586D01*
X130024296Y-31528586D01*
X131191000Y-32695289D01*
X132357704Y-31528586D01*
X132318816Y-31128630D01*
X131606372Y-30821671D01*
X130830692Y-30810718D01*
X130109864Y-31097438D01*
X130063184Y-31128630D01*
X130024296Y-31528586D01*
X125668797Y-31528586D01*
X125698051Y-20734276D01*
X153574000Y-20796223D01*
G04 #@! TD*
M02*
