M48
;DRILL file {KiCad (5.0.0)} date 10/11/18 02:56:02
;FORMAT={-:-/ absolute / metric / decimal}
FMAT,2
METRIC,TZ
T1C0.800
T2C1.000
T3C1.520
%
G90
G05
M71
T1
X131.191Y-32.766
X131.191Y-40.386
X135.953Y-31.686
X135.953Y-34.227
X135.953Y-36.767
X135.953Y-39.306
X135.953Y-41.846
X135.953Y-44.386
X135.953Y-46.926
X143.573Y-31.686
X143.573Y-34.227
X143.573Y-36.767
X143.573Y-39.306
X143.573Y-41.846
X143.573Y-44.386
X143.573Y-46.926
X131.318Y-43.243
X131.318Y-50.863
X135.89Y-54.038
X143.51Y-54.038
X135.953Y-50.482
X143.573Y-50.482
X148.59Y-29.591
X148.59Y-37.211
X127.825Y-43.243
X127.825Y-50.863
X136.906Y-25.717
X136.906Y-28.13
X141.224Y-25.717
X141.224Y-28.003
T2
X128.079Y-35.306
X128.143Y-22.924
X133.413Y-54.038
X133.477Y-45.72
X150.495Y-35.369
X150.495Y-43.497
T3
X134.302Y-60.325
X139.382Y-60.325
X144.463Y-60.325
T0
M30
