M48
;DRILL file {KiCad 5.0.0-fee4fd1~66~ubuntu18.04.1} date Thu Oct 11 22:50:58 2018
;FORMAT={-:-/ absolute / metric / decimal}
FMAT,2
METRIC,TZ
T1C1.000
T2C1.520
%
G90
G05
M71
T1
X93.98Y-68.834
X93.98Y-99.06
X99.314Y-99.06
X101.6Y-68.834
X113.03Y-69.85
X113.03Y-75.184
X113.03Y-80.01
X118.364Y-87.376
X118.364Y-92.71
X119.126Y-75.184
X120.65Y-45.212
X120.65Y-52.578
X121.412Y-69.85
X122.174Y-75.184
X123.19Y-42.164
X123.19Y-52.578
X123.979Y-80.264
X124.206Y-87.376
X124.206Y-92.71
X125.222Y-75.184
X125.984Y-50.038
X126.746Y-79.72
X128.016Y-52.324
X128.778Y-75.184
X129.794Y-69.85
X131.187Y-94.467
X133.35Y-78.994
X133.387Y-93.201
X134.366Y-98.552
X135.128Y-50.038
X135.382Y-69.85
X135.387Y-91.701
X137.414Y-39.116
X137.414Y-47.312
X138.176Y-95.25
X140.081Y-90.805
X141.26Y-73.19
X142.367Y-86.614
X143.256Y-92.964
X144.221Y-52.426
X145.796Y-88.578
X145.796Y-93.218
X146.558Y-75.438
X146.618Y-72.39
X147.32Y-53.848
X148.59Y-86.614
X148.59Y-95.25
X148.844Y-56.134
X148.844Y-70.358
X150.217Y-84.716
X150.622Y-92.964
X153.416Y-53.696
X156.21Y-85.852
X156.21Y-95.504
X159.512Y-81.788
X163.281Y-85.561
X152.908Y-70.358
X152.908Y-72.898
X152.908Y-75.438
X152.908Y-77.978
X152.908Y-80.518
X152.908Y-83.058
X152.908Y-85.598
X152.908Y-88.138
X165.608Y-70.358
X165.608Y-72.898
X165.608Y-75.438
X165.608Y-77.978
X165.608Y-80.518
X165.608Y-83.058
X165.608Y-85.598
X165.608Y-88.138
X125.954Y-54.691
X125.954Y-57.231
X125.954Y-59.771
X125.954Y-62.311
X125.954Y-64.851
X125.954Y-67.391
X125.954Y-69.931
X125.954Y-72.471
X138.654Y-54.691
X138.654Y-57.231
X138.654Y-59.771
X138.654Y-62.311
X138.654Y-64.851
X138.654Y-67.391
X138.654Y-69.931
X138.654Y-72.471
X141.01Y-78.74
X143.51Y-78.74
X100.266Y-53.721
X100.266Y-66.421
X102.806Y-53.721
X102.806Y-66.421
X105.346Y-53.721
X105.346Y-66.421
X107.886Y-53.721
X107.886Y-66.421
X110.426Y-53.721
X110.426Y-66.421
X112.966Y-53.721
X112.966Y-66.421
X115.506Y-53.721
X115.506Y-66.421
X118.046Y-53.721
X118.046Y-66.421
X137.312Y-83.109
X139.852Y-83.109
X142.392Y-83.109
X124.007Y-98.781
X126.547Y-98.781
X129.087Y-98.781
X136.707Y-98.781
X138.227Y-50.521
X139.247Y-98.781
X140.767Y-50.521
X143.307Y-98.781
X145.847Y-98.781
X148.387Y-50.521
X148.387Y-98.781
X150.927Y-50.521
X150.927Y-98.781
X153.467Y-50.521
X153.467Y-98.781
X156.007Y-50.521
X156.007Y-98.781
X158.547Y-98.781
X161.087Y-98.781
X136.144Y-78.74
X138.644Y-78.74
X100.266Y-83.883
X100.266Y-96.584
X102.806Y-83.883
X102.806Y-96.584
X105.346Y-83.883
X105.346Y-96.584
X107.886Y-83.883
X107.886Y-96.584
X110.426Y-83.883
X110.426Y-96.584
X112.966Y-83.883
X112.966Y-96.584
X115.506Y-83.883
X115.506Y-96.584
X118.046Y-83.883
X118.046Y-96.584
T2
X125.73Y-106.299
X130.81Y-106.299
X101.282Y-42.608
X106.362Y-42.608
X111.442Y-42.608
X116.522Y-42.608
X157.416Y-42.735
X162.496Y-42.735
X167.576Y-42.735
X172.656Y-42.735
X101.854Y-72.39
X101.854Y-77.47
X175.768Y-71.374
X175.768Y-76.454
X175.768Y-81.534
X175.768Y-86.614
X100.647Y-106.172
X105.727Y-106.172
X110.807Y-106.172
X115.887Y-106.172
X138.938Y-106.68
X144.018Y-106.68
X155.702Y-106.68
X160.782Y-106.68
T0
M30
