G04 #@! TF.GenerationSoftware,KiCad,Pcbnew,5.0.0-fee4fd1~66~ubuntu18.04.1*
G04 #@! TF.CreationDate,2018-10-11T22:41:42-03:00*
G04 #@! TF.ProjectId,JONICA,4A4F4E4943412E6B696361645F706362,rev?*
G04 #@! TF.SameCoordinates,Original*
G04 #@! TF.FileFunction,Copper,L2,Bot,Plane*
G04 #@! TF.FilePolarity,Positive*
%FSLAX46Y46*%
G04 Gerber Fmt 4.6, Leading zero omitted, Abs format (unit mm)*
G04 Created by KiCad (PCBNEW 5.0.0-fee4fd1~66~ubuntu18.04.1) date Thu Oct 11 22:41:42 2018*
%MOMM*%
%LPD*%
G01*
G04 APERTURE LIST*
G04 #@! TA.AperFunction,NonConductor*
%ADD10C,0.375000*%
G04 #@! TD*
G04 #@! TA.AperFunction,ComponentPad*
%ADD11O,2.000000X2.500000*%
G04 #@! TD*
G04 #@! TA.AperFunction,ComponentPad*
%ADD12O,2.000000X2.000000*%
G04 #@! TD*
G04 #@! TA.AperFunction,ComponentPad*
%ADD13C,3.000000*%
G04 #@! TD*
G04 #@! TA.AperFunction,ComponentPad*
%ADD14R,3.000000X3.000000*%
G04 #@! TD*
G04 #@! TA.AperFunction,ViaPad*
%ADD15C,2.000000*%
G04 #@! TD*
G04 #@! TA.AperFunction,Conductor*
%ADD16C,1.500000*%
G04 #@! TD*
G04 #@! TA.AperFunction,Conductor*
%ADD17C,1.200000*%
G04 #@! TD*
G04 #@! TA.AperFunction,Conductor*
%ADD18C,1.000000*%
G04 #@! TD*
G04 #@! TA.AperFunction,Conductor*
%ADD19C,0.800000*%
G04 #@! TD*
G04 #@! TA.AperFunction,NonConductor*
%ADD20C,0.600000*%
G04 #@! TD*
G04 APERTURE END LIST*
D10*
X178189773Y-96290571D02*
X178189773Y-97362000D01*
X178270726Y-97576285D01*
X178432630Y-97719142D01*
X178675488Y-97790571D01*
X178837392Y-97790571D01*
X177056440Y-96290571D02*
X176732630Y-96290571D01*
X176570726Y-96362000D01*
X176408821Y-96504857D01*
X176327869Y-96790571D01*
X176327869Y-97290571D01*
X176408821Y-97576285D01*
X176570726Y-97719142D01*
X176732630Y-97790571D01*
X177056440Y-97790571D01*
X177218345Y-97719142D01*
X177380250Y-97576285D01*
X177461202Y-97290571D01*
X177461202Y-96790571D01*
X177380250Y-96504857D01*
X177218345Y-96362000D01*
X177056440Y-96290571D01*
X175599297Y-97790571D02*
X175599297Y-96290571D01*
X174627869Y-97790571D01*
X174627869Y-96290571D01*
X173818345Y-97790571D02*
X173818345Y-96290571D01*
X172037392Y-97647714D02*
X172118345Y-97719142D01*
X172361202Y-97790571D01*
X172523107Y-97790571D01*
X172765964Y-97719142D01*
X172927869Y-97576285D01*
X173008821Y-97433428D01*
X173089773Y-97147714D01*
X173089773Y-96933428D01*
X173008821Y-96647714D01*
X172927869Y-96504857D01*
X172765964Y-96362000D01*
X172523107Y-96290571D01*
X172361202Y-96290571D01*
X172118345Y-96362000D01*
X172037392Y-96433428D01*
X171389773Y-97362000D02*
X170580250Y-97362000D01*
X171551678Y-97790571D02*
X170985011Y-96290571D01*
X170418345Y-97790571D01*
X168637392Y-96433428D02*
X168556440Y-96362000D01*
X168394535Y-96290571D01*
X167989773Y-96290571D01*
X167827869Y-96362000D01*
X167746916Y-96433428D01*
X167665964Y-96576285D01*
X167665964Y-96719142D01*
X167746916Y-96933428D01*
X168718345Y-97790571D01*
X167665964Y-97790571D01*
X166613583Y-96290571D02*
X166451678Y-96290571D01*
X166289773Y-96362000D01*
X166208821Y-96433428D01*
X166127869Y-96576285D01*
X166046916Y-96862000D01*
X166046916Y-97219142D01*
X166127869Y-97504857D01*
X166208821Y-97647714D01*
X166289773Y-97719142D01*
X166451678Y-97790571D01*
X166613583Y-97790571D01*
X166775488Y-97719142D01*
X166856440Y-97647714D01*
X166937392Y-97504857D01*
X167018345Y-97219142D01*
X167018345Y-96862000D01*
X166937392Y-96576285D01*
X166856440Y-96433428D01*
X166775488Y-96362000D01*
X166613583Y-96290571D01*
X164427869Y-97790571D02*
X165399297Y-97790571D01*
X164913583Y-97790571D02*
X164913583Y-96290571D01*
X165075488Y-96504857D01*
X165237392Y-96647714D01*
X165399297Y-96719142D01*
X163456440Y-96933428D02*
X163618345Y-96862000D01*
X163699297Y-96790571D01*
X163780250Y-96647714D01*
X163780250Y-96576285D01*
X163699297Y-96433428D01*
X163618345Y-96362000D01*
X163456440Y-96290571D01*
X163132630Y-96290571D01*
X162970726Y-96362000D01*
X162889773Y-96433428D01*
X162808821Y-96576285D01*
X162808821Y-96647714D01*
X162889773Y-96790571D01*
X162970726Y-96862000D01*
X163132630Y-96933428D01*
X163456440Y-96933428D01*
X163618345Y-97004857D01*
X163699297Y-97076285D01*
X163780250Y-97219142D01*
X163780250Y-97504857D01*
X163699297Y-97647714D01*
X163618345Y-97719142D01*
X163456440Y-97790571D01*
X163132630Y-97790571D01*
X162970726Y-97719142D01*
X162889773Y-97647714D01*
X162808821Y-97504857D01*
X162808821Y-97219142D01*
X162889773Y-97076285D01*
X162970726Y-97004857D01*
X163132630Y-96933428D01*
X178756440Y-99987000D02*
X177946916Y-99987000D01*
X178918345Y-100415571D02*
X178351678Y-98915571D01*
X177785011Y-100415571D01*
X177218345Y-100415571D02*
X177218345Y-99415571D01*
X177218345Y-99701285D02*
X177137392Y-99558428D01*
X177056440Y-99487000D01*
X176894535Y-99415571D01*
X176732630Y-99415571D01*
X176165964Y-100415571D02*
X176165964Y-99415571D01*
X176165964Y-99701285D02*
X176085011Y-99558428D01*
X176004059Y-99487000D01*
X175842154Y-99415571D01*
X175680250Y-99415571D01*
X174870726Y-100415571D02*
X175032630Y-100344142D01*
X175113583Y-100272714D01*
X175194535Y-100129857D01*
X175194535Y-99701285D01*
X175113583Y-99558428D01*
X175032630Y-99487000D01*
X174870726Y-99415571D01*
X174627869Y-99415571D01*
X174465964Y-99487000D01*
X174385011Y-99558428D01*
X174304059Y-99701285D01*
X174304059Y-100129857D01*
X174385011Y-100272714D01*
X174465964Y-100344142D01*
X174627869Y-100415571D01*
X174870726Y-100415571D01*
X173737392Y-99415571D02*
X173332630Y-100415571D01*
X172927869Y-99415571D02*
X173332630Y-100415571D01*
X173494535Y-100772714D01*
X173575488Y-100844142D01*
X173737392Y-100915571D01*
X172037392Y-100415571D02*
X172199297Y-100344142D01*
X172280250Y-100272714D01*
X172361202Y-100129857D01*
X172361202Y-99701285D01*
X172280250Y-99558428D01*
X172199297Y-99487000D01*
X172037392Y-99415571D01*
X171794535Y-99415571D01*
X171632630Y-99487000D01*
X171551678Y-99558428D01*
X171470726Y-99701285D01*
X171470726Y-100129857D01*
X171551678Y-100272714D01*
X171632630Y-100344142D01*
X171794535Y-100415571D01*
X172037392Y-100415571D01*
X178756440Y-102612000D02*
X177946916Y-102612000D01*
X178918345Y-103040571D02*
X178351678Y-101540571D01*
X177785011Y-103040571D01*
X177380250Y-102040571D02*
X176975488Y-103040571D01*
X176570726Y-102040571D02*
X176975488Y-103040571D01*
X177137392Y-103397714D01*
X177218345Y-103469142D01*
X177380250Y-103540571D01*
X175923107Y-103040571D02*
X175923107Y-102040571D01*
X175923107Y-101540571D02*
X176004059Y-101612000D01*
X175923107Y-101683428D01*
X175842154Y-101612000D01*
X175923107Y-101540571D01*
X175923107Y-101683428D01*
X178675488Y-105665571D02*
X178675488Y-104165571D01*
X178270726Y-104165571D01*
X178027869Y-104237000D01*
X177865964Y-104379857D01*
X177785011Y-104522714D01*
X177704059Y-104808428D01*
X177704059Y-105022714D01*
X177785011Y-105308428D01*
X177865964Y-105451285D01*
X178027869Y-105594142D01*
X178270726Y-105665571D01*
X178675488Y-105665571D01*
X176975488Y-105665571D02*
X176975488Y-104665571D01*
X176975488Y-104165571D02*
X177056440Y-104237000D01*
X176975488Y-104308428D01*
X176894535Y-104237000D01*
X176975488Y-104165571D01*
X176975488Y-104308428D01*
X175437392Y-105665571D02*
X175437392Y-104879857D01*
X175518345Y-104737000D01*
X175680250Y-104665571D01*
X176004059Y-104665571D01*
X176165964Y-104737000D01*
X175437392Y-105594142D02*
X175599297Y-105665571D01*
X176004059Y-105665571D01*
X176165964Y-105594142D01*
X176246916Y-105451285D01*
X176246916Y-105308428D01*
X176165964Y-105165571D01*
X176004059Y-105094142D01*
X175599297Y-105094142D01*
X175437392Y-105022714D01*
X174789773Y-104665571D02*
X173899297Y-104665571D01*
X174789773Y-105665571D01*
X173899297Y-105665571D01*
X178675488Y-107504857D02*
X178108821Y-107504857D01*
X177865964Y-108290571D02*
X178675488Y-108290571D01*
X178675488Y-106790571D01*
X177865964Y-106790571D01*
X176408821Y-108219142D02*
X176570726Y-108290571D01*
X176894535Y-108290571D01*
X177056440Y-108219142D01*
X177137392Y-108147714D01*
X177218345Y-108004857D01*
X177218345Y-107576285D01*
X177137392Y-107433428D01*
X177056440Y-107362000D01*
X176894535Y-107290571D01*
X176570726Y-107290571D01*
X176408821Y-107362000D01*
X175680250Y-108290571D02*
X175680250Y-106790571D01*
X174951678Y-108290571D02*
X174951678Y-107504857D01*
X175032630Y-107362000D01*
X175194535Y-107290571D01*
X175437392Y-107290571D01*
X175599297Y-107362000D01*
X175680250Y-107433428D01*
X173413583Y-108290571D02*
X173413583Y-107504857D01*
X173494535Y-107362000D01*
X173656440Y-107290571D01*
X173980250Y-107290571D01*
X174142154Y-107362000D01*
X173413583Y-108219142D02*
X173575488Y-108290571D01*
X173980250Y-108290571D01*
X174142154Y-108219142D01*
X174223107Y-108076285D01*
X174223107Y-107933428D01*
X174142154Y-107790571D01*
X173980250Y-107719142D01*
X173575488Y-107719142D01*
X173413583Y-107647714D01*
X172765964Y-107290571D02*
X172361202Y-108290571D01*
X171956440Y-107290571D01*
X170580250Y-108290571D02*
X170580250Y-107504857D01*
X170661202Y-107362000D01*
X170823107Y-107290571D01*
X171146916Y-107290571D01*
X171308821Y-107362000D01*
X170580250Y-108219142D02*
X170742154Y-108290571D01*
X171146916Y-108290571D01*
X171308821Y-108219142D01*
X171389773Y-108076285D01*
X171389773Y-107933428D01*
X171308821Y-107790571D01*
X171146916Y-107719142D01*
X170742154Y-107719142D01*
X170580250Y-107647714D01*
X169770726Y-108290571D02*
X169770726Y-107290571D01*
X169770726Y-107576285D02*
X169689773Y-107433428D01*
X169608821Y-107362000D01*
X169446916Y-107290571D01*
X169285011Y-107290571D01*
X168718345Y-108290571D02*
X168718345Y-107290571D01*
X168718345Y-107576285D02*
X168637392Y-107433428D01*
X168556440Y-107362000D01*
X168394535Y-107290571D01*
X168232630Y-107290571D01*
X167665964Y-108290571D02*
X167665964Y-107290571D01*
X167665964Y-106790571D02*
X167746916Y-106862000D01*
X167665964Y-106933428D01*
X167585011Y-106862000D01*
X167665964Y-106790571D01*
X167665964Y-106933428D01*
X166127869Y-108290571D02*
X166127869Y-107504857D01*
X166208821Y-107362000D01*
X166370726Y-107290571D01*
X166694535Y-107290571D01*
X166856440Y-107362000D01*
X166127869Y-108219142D02*
X166289773Y-108290571D01*
X166694535Y-108290571D01*
X166856440Y-108219142D01*
X166937392Y-108076285D01*
X166937392Y-107933428D01*
X166856440Y-107790571D01*
X166694535Y-107719142D01*
X166289773Y-107719142D01*
X166127869Y-107647714D01*
D11*
G04 #@! TO.P,A3,17*
G04 #@! TO.N,/SENSOR1*
X156006800Y-98780600D03*
G04 #@! TO.P,A3,18*
G04 #@! TO.N,/SENSOR2*
X153466800Y-98780600D03*
G04 #@! TO.P,A3,19*
G04 #@! TO.N,/M2_STEP*
X150926800Y-98780600D03*
G04 #@! TO.P,A3,20*
G04 #@! TO.N,/M2_DIR*
X148386800Y-98780600D03*
G04 #@! TO.P,A3,21*
G04 #@! TO.N,/M3_STEP*
X145846800Y-98780600D03*
G04 #@! TO.P,A3,6*
G04 #@! TO.N,GND*
X138226800Y-50520600D03*
G04 #@! TO.P,A3,22*
G04 #@! TO.N,/M3_DIR*
X143306800Y-98780600D03*
G04 #@! TO.P,A3,7*
G04 #@! TO.N,GND*
X140766800Y-50520600D03*
G04 #@! TO.P,A3,23*
G04 #@! TO.N,/M1_DIR*
X139246800Y-98780600D03*
G04 #@! TO.P,A3,24*
G04 #@! TO.N,/M1_STEP*
X136706800Y-98780600D03*
G04 #@! TO.P,A3,9*
G04 #@! TO.N,/ENA1*
X148386800Y-50520600D03*
G04 #@! TO.P,A3,10*
G04 #@! TO.N,/ENA2*
X150926800Y-50520600D03*
G04 #@! TO.P,A3,11*
G04 #@! TO.N,/ENA3*
X153466800Y-50520600D03*
G04 #@! TO.P,A3,27*
G04 #@! TO.N,/M0_STEP*
X129086800Y-98780600D03*
G04 #@! TO.P,A3,12*
G04 #@! TO.N,/ENA0-POLOLU*
X156006800Y-50520600D03*
G04 #@! TO.P,A3,28*
G04 #@! TO.N,/M0_DIR*
X126546800Y-98780600D03*
G04 #@! TO.P,A3,29*
G04 #@! TO.N,GND*
X124006800Y-98780600D03*
G04 #@! TO.P,A3,15*
G04 #@! TO.N,/RX*
X161086800Y-98780600D03*
G04 #@! TO.P,A3,16*
G04 #@! TO.N,/TX*
X158546800Y-98780600D03*
G04 #@! TD*
D12*
G04 #@! TO.P,A1,1*
G04 #@! TO.N,GND*
X118046500Y-53721000D03*
G04 #@! TO.P,A1,9*
G04 #@! TO.N,/ENA1*
X100266500Y-66421000D03*
G04 #@! TO.P,A1,2*
G04 #@! TO.N,+5V*
X115506500Y-53721000D03*
G04 #@! TO.P,A1,10*
G04 #@! TO.N,Net-(A1-Pad10)*
X102806500Y-66421000D03*
G04 #@! TO.P,A1,3*
G04 #@! TO.N,/M1_1A*
X112966500Y-53721000D03*
G04 #@! TO.P,A1,11*
G04 #@! TO.N,Net-(A1-Pad11)*
X105346500Y-66421000D03*
G04 #@! TO.P,A1,4*
G04 #@! TO.N,/M1_1B*
X110426500Y-53721000D03*
G04 #@! TO.P,A1,12*
G04 #@! TO.N,Net-(A1-Pad12)*
X107886500Y-66421000D03*
G04 #@! TO.P,A1,5*
G04 #@! TO.N,/M1_2A*
X107886500Y-53721000D03*
G04 #@! TO.P,A1,13*
G04 #@! TO.N,Net-(A1-Pad13)*
X110426500Y-66421000D03*
G04 #@! TO.P,A1,6*
G04 #@! TO.N,/M1_2B*
X105346500Y-53721000D03*
G04 #@! TO.P,A1,14*
G04 #@! TO.N,Net-(A1-Pad13)*
X112966500Y-66421000D03*
G04 #@! TO.P,A1,7*
G04 #@! TO.N,GND*
X102806500Y-53721000D03*
G04 #@! TO.P,A1,15*
G04 #@! TO.N,/M1_STEP*
X115506500Y-66421000D03*
G04 #@! TO.P,A1,8*
G04 #@! TO.N,+12V*
X100266500Y-53721000D03*
G04 #@! TO.P,A1,16*
G04 #@! TO.N,/M1_DIR*
X118046500Y-66421000D03*
G04 #@! TD*
G04 #@! TO.P,A2,16*
G04 #@! TO.N,/M3_DIR*
X125953520Y-72471280D03*
G04 #@! TO.P,A2,8*
G04 #@! TO.N,+12V*
X138653520Y-54691280D03*
G04 #@! TO.P,A2,15*
G04 #@! TO.N,/M3_STEP*
X125953520Y-69931280D03*
G04 #@! TO.P,A2,7*
G04 #@! TO.N,GND*
X138653520Y-57231280D03*
G04 #@! TO.P,A2,14*
G04 #@! TO.N,Net-(A2-Pad13)*
X125953520Y-67391280D03*
G04 #@! TO.P,A2,6*
G04 #@! TO.N,/M3_2B*
X138653520Y-59771280D03*
G04 #@! TO.P,A2,13*
G04 #@! TO.N,Net-(A2-Pad13)*
X125953520Y-64851280D03*
G04 #@! TO.P,A2,5*
G04 #@! TO.N,/M3_2A*
X138653520Y-62311280D03*
G04 #@! TO.P,A2,12*
G04 #@! TO.N,Net-(A2-Pad12)*
X125953520Y-62311280D03*
G04 #@! TO.P,A2,4*
G04 #@! TO.N,/M3_1B*
X138653520Y-64851280D03*
G04 #@! TO.P,A2,11*
G04 #@! TO.N,Net-(A2-Pad11)*
X125953520Y-59771280D03*
G04 #@! TO.P,A2,3*
G04 #@! TO.N,/M3_1A*
X138653520Y-67391280D03*
G04 #@! TO.P,A2,10*
G04 #@! TO.N,Net-(A2-Pad10)*
X125953520Y-57231280D03*
G04 #@! TO.P,A2,2*
G04 #@! TO.N,+5V*
X138653520Y-69931280D03*
G04 #@! TO.P,A2,9*
G04 #@! TO.N,/ENA3*
X125953520Y-54691280D03*
G04 #@! TO.P,A2,1*
G04 #@! TO.N,GND*
X138653520Y-72471280D03*
G04 #@! TD*
G04 #@! TO.P,A4,16*
G04 #@! TO.N,/M2_DIR*
X152908000Y-88138000D03*
G04 #@! TO.P,A4,8*
G04 #@! TO.N,+12V*
X165608000Y-70358000D03*
G04 #@! TO.P,A4,15*
G04 #@! TO.N,/M2_STEP*
X152908000Y-85598000D03*
G04 #@! TO.P,A4,7*
G04 #@! TO.N,GND*
X165608000Y-72898000D03*
G04 #@! TO.P,A4,14*
G04 #@! TO.N,Net-(A4-Pad13)*
X152908000Y-83058000D03*
G04 #@! TO.P,A4,6*
G04 #@! TO.N,/M2_2B*
X165608000Y-75438000D03*
G04 #@! TO.P,A4,13*
G04 #@! TO.N,Net-(A4-Pad13)*
X152908000Y-80518000D03*
G04 #@! TO.P,A4,5*
G04 #@! TO.N,/M2_2A*
X165608000Y-77978000D03*
G04 #@! TO.P,A4,12*
G04 #@! TO.N,Net-(A4-Pad12)*
X152908000Y-77978000D03*
G04 #@! TO.P,A4,4*
G04 #@! TO.N,/M2_1B*
X165608000Y-80518000D03*
G04 #@! TO.P,A4,11*
G04 #@! TO.N,Net-(A4-Pad11)*
X152908000Y-75438000D03*
G04 #@! TO.P,A4,3*
G04 #@! TO.N,/M2_1A*
X165608000Y-83058000D03*
G04 #@! TO.P,A4,10*
G04 #@! TO.N,Net-(A4-Pad10)*
X152908000Y-72898000D03*
G04 #@! TO.P,A4,2*
G04 #@! TO.N,+5V*
X165608000Y-85598000D03*
G04 #@! TO.P,A4,9*
G04 #@! TO.N,/ENA2*
X152908000Y-70358000D03*
G04 #@! TO.P,A4,1*
G04 #@! TO.N,GND*
X165608000Y-88138000D03*
G04 #@! TD*
G04 #@! TO.P,A5,16*
G04 #@! TO.N,/M0_DIR*
X100266500Y-83883500D03*
G04 #@! TO.P,A5,8*
G04 #@! TO.N,+12V*
X118046500Y-96583500D03*
G04 #@! TO.P,A5,15*
G04 #@! TO.N,/M0_STEP*
X102806500Y-83883500D03*
G04 #@! TO.P,A5,7*
G04 #@! TO.N,GND*
X115506500Y-96583500D03*
G04 #@! TO.P,A5,14*
G04 #@! TO.N,Net-(A5-Pad13)*
X105346500Y-83883500D03*
G04 #@! TO.P,A5,6*
G04 #@! TO.N,/M0_2B*
X112966500Y-96583500D03*
G04 #@! TO.P,A5,13*
G04 #@! TO.N,Net-(A5-Pad13)*
X107886500Y-83883500D03*
G04 #@! TO.P,A5,5*
G04 #@! TO.N,/M0_2A*
X110426500Y-96583500D03*
G04 #@! TO.P,A5,12*
G04 #@! TO.N,Net-(A5-Pad12)*
X110426500Y-83883500D03*
G04 #@! TO.P,A5,4*
G04 #@! TO.N,/M0_1B*
X107886500Y-96583500D03*
G04 #@! TO.P,A5,11*
G04 #@! TO.N,Net-(A5-Pad11)*
X112966500Y-83883500D03*
G04 #@! TO.P,A5,3*
G04 #@! TO.N,/M0_1A*
X105346500Y-96583500D03*
G04 #@! TO.P,A5,10*
G04 #@! TO.N,Net-(A5-Pad10)*
X115506500Y-83883500D03*
G04 #@! TO.P,A5,2*
G04 #@! TO.N,+5V*
X102806500Y-96583500D03*
G04 #@! TO.P,A5,9*
G04 #@! TO.N,/ENA0-POLOLU*
X118046500Y-83883500D03*
G04 #@! TO.P,A5,1*
G04 #@! TO.N,GND*
X100266500Y-96583500D03*
G04 #@! TD*
D11*
G04 #@! TO.P,C1,2*
G04 #@! TO.N,GND*
X138644000Y-78740000D03*
G04 #@! TO.P,C1,1*
G04 #@! TO.N,+12V*
X136144000Y-78740000D03*
G04 #@! TD*
G04 #@! TO.P,C2,1*
G04 #@! TO.N,+5V*
X143510000Y-78740000D03*
G04 #@! TO.P,C2,2*
G04 #@! TO.N,GND*
X141010000Y-78740000D03*
G04 #@! TD*
D13*
G04 #@! TO.P,J1,2*
G04 #@! TO.N,/TX*
X155702000Y-106680000D03*
D14*
G04 #@! TO.P,J1,1*
G04 #@! TO.N,/RX*
X160782000Y-106680000D03*
G04 #@! TD*
G04 #@! TO.P,J2,1*
G04 #@! TO.N,/SENSOR1*
X144018000Y-106680000D03*
D13*
G04 #@! TO.P,J2,2*
G04 #@! TO.N,/SENSOR2*
X138938000Y-106680000D03*
G04 #@! TD*
G04 #@! TO.P,J7,2*
G04 #@! TO.N,GND*
X125730000Y-106299000D03*
D14*
G04 #@! TO.P,J7,1*
G04 #@! TO.N,+5V*
X130810000Y-106299000D03*
G04 #@! TD*
D13*
G04 #@! TO.P,J3,4*
G04 #@! TO.N,/M1_2B*
X101282500Y-42608500D03*
D14*
G04 #@! TO.P,J3,1*
G04 #@! TO.N,/M1_1A*
X116522500Y-42608500D03*
D13*
G04 #@! TO.P,J3,3*
G04 #@! TO.N,/M1_2A*
X106362500Y-42608500D03*
G04 #@! TO.P,J3,2*
G04 #@! TO.N,/M1_1B*
X111442500Y-42608500D03*
G04 #@! TD*
G04 #@! TO.P,J4,2*
G04 #@! TO.N,/M2_1B*
X175768000Y-81534000D03*
G04 #@! TO.P,J4,3*
G04 #@! TO.N,/M2_2A*
X175768000Y-76454000D03*
D14*
G04 #@! TO.P,J4,1*
G04 #@! TO.N,/M2_1A*
X175768000Y-86614000D03*
D13*
G04 #@! TO.P,J4,4*
G04 #@! TO.N,/M2_2B*
X175768000Y-71374000D03*
G04 #@! TD*
G04 #@! TO.P,J5,4*
G04 #@! TO.N,/M3_2B*
X157416500Y-42735500D03*
D14*
G04 #@! TO.P,J5,1*
G04 #@! TO.N,/M3_1A*
X172656500Y-42735500D03*
D13*
G04 #@! TO.P,J5,3*
G04 #@! TO.N,/M3_2A*
X162496500Y-42735500D03*
G04 #@! TO.P,J5,2*
G04 #@! TO.N,/M3_1B*
X167576500Y-42735500D03*
G04 #@! TD*
G04 #@! TO.P,J6,2*
G04 #@! TO.N,/M0_1B*
X105727500Y-106172000D03*
G04 #@! TO.P,J6,3*
G04 #@! TO.N,/M0_2A*
X110807500Y-106172000D03*
D14*
G04 #@! TO.P,J6,1*
G04 #@! TO.N,/M0_1A*
X100647500Y-106172000D03*
D13*
G04 #@! TO.P,J6,4*
G04 #@! TO.N,/M0_2B*
X115887500Y-106172000D03*
G04 #@! TD*
D11*
G04 #@! TO.P,U1,3*
G04 #@! TO.N,+5V*
X142392400Y-83108800D03*
G04 #@! TO.P,U1,2*
G04 #@! TO.N,GND*
X139852400Y-83108800D03*
G04 #@! TO.P,U1,1*
G04 #@! TO.N,+12V*
X137312400Y-83108800D03*
G04 #@! TD*
D13*
G04 #@! TO.P,J8,2*
G04 #@! TO.N,+12V*
X101854000Y-77470000D03*
D14*
G04 #@! TO.P,J8,1*
G04 #@! TO.N,GND*
X101854000Y-72390000D03*
G04 #@! TD*
D15*
G04 #@! TO.N,GND*
X101600000Y-68834000D03*
X125984000Y-50038000D03*
X135128000Y-50038000D03*
X150622000Y-92964000D03*
X150216979Y-84715857D03*
X146618002Y-72390000D03*
X141260000Y-73189705D03*
X99314000Y-99060000D03*
X93980000Y-99060000D03*
X93980000Y-68834000D03*
X137414000Y-47312000D03*
X137414000Y-39116000D03*
G04 #@! TO.N,/ENA1*
X120650000Y-52578000D03*
X120650000Y-45212000D03*
G04 #@! TO.N,+5V*
X129794000Y-69850000D03*
X135382000Y-69850000D03*
X142367000Y-86614000D03*
X140081000Y-90805000D03*
X163280937Y-85560912D03*
X159512000Y-81788000D03*
G04 #@! TO.N,/M1_STEP*
X134366000Y-98552000D03*
X131186800Y-94467463D03*
X123979500Y-80264000D03*
X119126000Y-75184000D03*
G04 #@! TO.N,/M1_DIR*
X138176000Y-95250000D03*
X133386918Y-93200561D03*
X126746000Y-79720000D03*
X122174000Y-75184000D03*
G04 #@! TO.N,/ENA3*
X128016000Y-52324000D03*
X144221200Y-52425600D03*
X147320000Y-53848000D03*
X153416000Y-53695600D03*
G04 #@! TO.N,/M3_STEP*
X145796000Y-93218000D03*
X145796000Y-88578000D03*
X128778000Y-75184000D03*
X146558000Y-75438000D03*
G04 #@! TO.N,/M3_DIR*
X143256000Y-92964000D03*
X135386920Y-91700560D03*
X133350000Y-78994000D03*
X125222000Y-75184000D03*
G04 #@! TO.N,/M2_STEP*
X156210000Y-85852000D03*
X156210000Y-95504000D03*
G04 #@! TO.N,/M2_DIR*
X148590000Y-95250000D03*
X148590000Y-86614000D03*
G04 #@! TO.N,/ENA2*
X148844000Y-70358000D03*
X148844000Y-56134000D03*
G04 #@! TO.N,/M0_STEP*
X118364000Y-87376000D03*
X124206000Y-87376000D03*
G04 #@! TO.N,/M0_DIR*
X118364000Y-92710000D03*
X124206000Y-92710000D03*
G04 #@! TO.N,/ENA0-POLOLU*
X123190000Y-52578000D03*
X121412000Y-69850000D03*
X113030000Y-69850000D03*
X113030000Y-75184000D03*
X113030000Y-80010000D03*
X123190000Y-42164000D03*
G04 #@! TD*
D16*
G04 #@! TO.N,GND*
X140766800Y-50520600D02*
X138226800Y-50520600D01*
X138644000Y-78740000D02*
X139954000Y-78740000D01*
X139852400Y-78841600D02*
X139954000Y-78740000D01*
X139852400Y-83108800D02*
X139852400Y-78841600D01*
X139954000Y-78740000D02*
X141010000Y-78740000D01*
X138653520Y-72471280D02*
X138653520Y-74771280D01*
X139914000Y-77470000D02*
X138644000Y-78740000D01*
X139954000Y-77470000D02*
X139914000Y-77470000D01*
X139954000Y-77470000D02*
X139954000Y-78740000D01*
X139954000Y-76071760D02*
X139954000Y-77470000D01*
X139954000Y-77684000D02*
X141010000Y-78740000D01*
X139954000Y-77470000D02*
X139954000Y-77684000D01*
X101600000Y-72136000D02*
X101854000Y-72390000D01*
X101600000Y-68834000D02*
X101600000Y-72136000D01*
X124006800Y-104575800D02*
X125730000Y-106299000D01*
X115506500Y-96583500D02*
X115506500Y-97726500D01*
X115506500Y-97726500D02*
X117856000Y-100076000D01*
X124006800Y-98780600D02*
X124006800Y-100076000D01*
X124006800Y-98780600D02*
X123723400Y-98780600D01*
X123723400Y-98780600D02*
X122428000Y-100076000D01*
X117856000Y-100076000D02*
X122428000Y-100076000D01*
X122428000Y-100076000D02*
X124006800Y-100076000D01*
X124006800Y-100076000D02*
X124006800Y-101854000D01*
X122428000Y-100275200D02*
X124006800Y-101854000D01*
X122428000Y-100076000D02*
X122428000Y-100275200D01*
X124006800Y-101854000D02*
X124006800Y-104575800D01*
X102806500Y-56221000D02*
X104497500Y-57912000D01*
X102806500Y-53721000D02*
X102806500Y-56221000D01*
X104497500Y-57912000D02*
X114808000Y-57912000D01*
X118046500Y-54673500D02*
X118046500Y-53721000D01*
X114808000Y-57912000D02*
X118046500Y-54673500D01*
X138653520Y-57231280D02*
X140380720Y-57231280D01*
X140380720Y-57231280D02*
X141732000Y-55880000D01*
X140766800Y-53020600D02*
X140766800Y-50520600D01*
X141732000Y-53985800D02*
X140766800Y-53020600D01*
X141732000Y-55880000D02*
X141732000Y-53985800D01*
X118046500Y-51221000D02*
X119229500Y-50038000D01*
X118046500Y-53721000D02*
X118046500Y-51221000D01*
X119229500Y-50038000D02*
X125984000Y-50038000D01*
X137744200Y-50038000D02*
X138226800Y-50520600D01*
X165608000Y-88138000D02*
X165608000Y-90488000D01*
X163132000Y-92964000D02*
X150622000Y-92964000D01*
D17*
X150216979Y-75988977D02*
X146618002Y-72390000D01*
X150216979Y-84715857D02*
X150216979Y-75988977D01*
X139371945Y-73189705D02*
X138653520Y-72471280D01*
X141260000Y-73189705D02*
X139371945Y-73189705D01*
X140260001Y-74749759D02*
X139446000Y-75563760D01*
X140260001Y-74189704D02*
X140260001Y-74749759D01*
X141260000Y-73189705D02*
X140260001Y-74189704D01*
D16*
X138653520Y-74771280D02*
X139446000Y-75563760D01*
X139446000Y-75563760D02*
X139954000Y-76071760D01*
D17*
X139371945Y-75489705D02*
X139446000Y-75563760D01*
X139371945Y-73189705D02*
X139371945Y-75489705D01*
X141260000Y-76164000D02*
X139954000Y-77470000D01*
X140880240Y-75563760D02*
X141260000Y-75184000D01*
X139446000Y-75563760D02*
X140880240Y-75563760D01*
X141260000Y-73189705D02*
X141260000Y-75184000D01*
X141260000Y-75184000D02*
X141260000Y-76164000D01*
D16*
X165608000Y-90488000D02*
X164592000Y-91504000D01*
X164592000Y-91504000D02*
X163830000Y-92266000D01*
X163830000Y-92266000D02*
X163132000Y-92964000D01*
D17*
X164910000Y-91186000D02*
X164592000Y-91504000D01*
D16*
X164910000Y-91186000D02*
X163830000Y-92266000D01*
X100266500Y-96583500D02*
X100266500Y-98107500D01*
X100266500Y-98107500D02*
X99314000Y-99060000D01*
X93980000Y-68834000D02*
X93980000Y-54610000D01*
X93980000Y-54610000D02*
X98044000Y-50546000D01*
X98044000Y-50546000D02*
X100838000Y-50546000D01*
X100838000Y-50546000D02*
X102806500Y-52514500D01*
X102806500Y-52514500D02*
X102806500Y-53721000D01*
D17*
X96774000Y-86360000D02*
X96774000Y-79502000D01*
D16*
X93980000Y-76708000D02*
X93980000Y-99060000D01*
X93980000Y-68834000D02*
X93980000Y-76708000D01*
D17*
X112767990Y-91644990D02*
X102058990Y-91644990D01*
X96774000Y-79502000D02*
X93980000Y-76708000D01*
X102058990Y-91644990D02*
X96774000Y-86360000D01*
X115506500Y-96583500D02*
X115506500Y-94383500D01*
X115506500Y-94383500D02*
X112767990Y-91644990D01*
D16*
X137414000Y-48768000D02*
X137414000Y-49022000D01*
X136398000Y-50038000D02*
X137744200Y-50038000D01*
X135128000Y-50038000D02*
X136398000Y-50038000D01*
X137414000Y-49022000D02*
X136398000Y-50038000D01*
X137414000Y-47312000D02*
X137414000Y-48768000D01*
X137414000Y-49707800D02*
X138226800Y-50520600D01*
X137414000Y-48768000D02*
X137414000Y-49707800D01*
X167640000Y-72898000D02*
X165608000Y-72898000D01*
X137414000Y-39116000D02*
X175006000Y-39116000D01*
X177038000Y-41148000D02*
X177038000Y-63500000D01*
X175006000Y-39116000D02*
X177038000Y-41148000D01*
X177038000Y-63500000D02*
X167640000Y-72898000D01*
D17*
G04 #@! TO.N,/ENA1*
X100266500Y-64221000D02*
X100266500Y-66421000D01*
X101749500Y-62738000D02*
X100266500Y-64221000D01*
X115062000Y-62738000D02*
X101749500Y-62738000D01*
X120650000Y-52578000D02*
X120650000Y-55880000D01*
X120650000Y-55880000D02*
X115062000Y-62738000D01*
X148336000Y-46990000D02*
X148386800Y-50520600D01*
X120650000Y-45212000D02*
X146304000Y-45212000D01*
X146304000Y-45212000D02*
X148336000Y-46990000D01*
D16*
G04 #@! TO.N,+5V*
X143510000Y-81991200D02*
X142392400Y-83108800D01*
X143510000Y-78740000D02*
X143510000Y-81991200D01*
X141813280Y-69931280D02*
X138653520Y-69931280D01*
X138572240Y-69850000D02*
X138653520Y-69931280D01*
X135382000Y-69850000D02*
X138572240Y-69850000D01*
D17*
X131095990Y-51308000D02*
X131095990Y-50913270D01*
D16*
X130048000Y-49865280D02*
X131095990Y-50913270D01*
X129794000Y-56896000D02*
X129794000Y-69850000D01*
X131095990Y-51308000D02*
X131095990Y-55594010D01*
X131095990Y-55594010D02*
X129794000Y-56896000D01*
D17*
X130810000Y-108204000D02*
X130810000Y-106299000D01*
X129032000Y-109982000D02*
X130810000Y-108204000D01*
X97790000Y-109982000D02*
X129032000Y-109982000D01*
X96393000Y-95504000D02*
X96393000Y-108585000D01*
X96393000Y-108585000D02*
X97790000Y-109982000D01*
X102806500Y-96215770D02*
X102743000Y-96152270D01*
X102806500Y-96583500D02*
X102806500Y-96215770D01*
X98552000Y-93345000D02*
X96393000Y-95504000D01*
X102743000Y-96152270D02*
X102743000Y-95123000D01*
X102743000Y-95123000D02*
X100965000Y-93345000D01*
X100965000Y-93345000D02*
X98552000Y-93345000D01*
X142367000Y-83134200D02*
X142392400Y-83108800D01*
X142367000Y-86614000D02*
X142367000Y-83134200D01*
X137414000Y-92964000D02*
X140081000Y-90805000D01*
X132080000Y-97028000D02*
X137414000Y-92964000D01*
X132080000Y-99822000D02*
X132080000Y-97028000D01*
X130810000Y-106299000D02*
X130810000Y-101092000D01*
X130810000Y-101092000D02*
X132080000Y-99822000D01*
X165608000Y-85598000D02*
X163318025Y-85598000D01*
X163318025Y-85598000D02*
X163280937Y-85560912D01*
D16*
X143510000Y-71628000D02*
X143002000Y-71120000D01*
X143002000Y-71120000D02*
X141813280Y-69931280D01*
D17*
X159512000Y-71628000D02*
X159512000Y-81788000D01*
X155194000Y-67310000D02*
X159512000Y-71628000D01*
X145034000Y-69088000D02*
X144190720Y-69931280D01*
X145034000Y-69088000D02*
X146812000Y-67310000D01*
X143510000Y-70612000D02*
X144018000Y-70104000D01*
X144018000Y-70104000D02*
X145034000Y-69088000D01*
X143002000Y-71120000D02*
X144018000Y-70104000D01*
D16*
X143510000Y-72644000D02*
X143510000Y-71628000D01*
X143510000Y-78740000D02*
X143510000Y-72644000D01*
X141813280Y-69931280D02*
X144190720Y-69931280D01*
X143510000Y-70612000D02*
X144190720Y-69931280D01*
D17*
X147574000Y-67310000D02*
X146812000Y-67310000D01*
X147574000Y-67310000D02*
X155194000Y-67310000D01*
X146812000Y-67310000D02*
X145288000Y-68834000D01*
X144272000Y-69850000D02*
X145288000Y-68834000D01*
D16*
X143510000Y-70612000D02*
X144272000Y-69850000D01*
X143510000Y-72644000D02*
X143510000Y-70612000D01*
X127934720Y-47752000D02*
X130048000Y-49865280D01*
X118975500Y-47752000D02*
X127934720Y-47752000D01*
X115506500Y-52324000D02*
X115506500Y-49847500D01*
X115506500Y-53721000D02*
X115506500Y-52324000D01*
X115506500Y-49847500D02*
X117602000Y-47752000D01*
X117602000Y-47752000D02*
X118975500Y-47752000D01*
G04 #@! TO.N,/M1_1A*
X116522500Y-42608500D02*
X116522500Y-45608500D01*
X112966500Y-49085500D02*
X112966500Y-53721000D01*
X113045500Y-49085500D02*
X116522500Y-45608500D01*
X112966500Y-49085500D02*
X113045500Y-49085500D01*
G04 #@! TO.N,/M1_1B*
X110426500Y-43624500D02*
X110426500Y-53721000D01*
X111442500Y-42608500D02*
X110426500Y-43624500D01*
G04 #@! TO.N,/M1_2A*
X107886500Y-53721000D02*
X107886500Y-51562000D01*
X106362500Y-50038000D02*
X107886500Y-51562000D01*
X106362500Y-42608500D02*
X106362500Y-50038000D01*
G04 #@! TO.N,Net-(A1-Pad13)*
X112966500Y-66421000D02*
X110426500Y-66421000D01*
G04 #@! TO.N,/M1_2B*
X105346500Y-51850441D02*
X103124000Y-49627941D01*
X105346500Y-53721000D02*
X105346500Y-51850441D01*
X103124000Y-49627941D02*
X103124000Y-49593500D01*
X103124000Y-49593500D02*
X101282500Y-47752000D01*
X101282500Y-42608500D02*
X101282500Y-47752000D01*
D18*
G04 #@! TO.N,/M1_STEP*
X136706800Y-98780600D02*
X134594600Y-98780600D01*
X134594600Y-98780600D02*
X134366000Y-98552000D01*
D19*
X131186800Y-93053250D02*
X130335550Y-92202000D01*
X131186800Y-94467463D02*
X131186800Y-93053250D01*
X130335550Y-92202000D02*
X130335550Y-86620050D01*
X130335550Y-86620050D02*
X123979500Y-80264000D01*
D17*
X115506500Y-71564500D02*
X115506500Y-66421000D01*
X119126000Y-75184000D02*
X115506500Y-71564500D01*
D16*
G04 #@! TO.N,+12V*
X101854000Y-77470000D02*
X97665540Y-77470000D01*
X97665540Y-77470000D02*
X96403160Y-76207620D01*
X96403160Y-60084340D02*
X100266500Y-56221000D01*
X100266500Y-56221000D02*
X100266500Y-53721000D01*
X96403160Y-76207620D02*
X96403160Y-60084340D01*
X136144000Y-81940400D02*
X137312400Y-83108800D01*
X136144000Y-78740000D02*
X136144000Y-81940400D01*
X136153520Y-54691280D02*
X138653520Y-54691280D01*
X133096000Y-57748800D02*
X136153520Y-54691280D01*
X133096000Y-74422000D02*
X133096000Y-57748800D01*
X136144000Y-78740000D02*
X136144000Y-77470000D01*
X134112000Y-75438000D02*
X134366000Y-75692000D01*
X132080000Y-75438000D02*
X134112000Y-75438000D01*
X134366000Y-75692000D02*
X133096000Y-74422000D01*
X132080000Y-75438000D02*
X133096000Y-74422000D01*
D17*
X162560000Y-71206000D02*
X162560000Y-71882000D01*
X163408000Y-70358000D02*
X162560000Y-71206000D01*
X165608000Y-70358000D02*
X163408000Y-70358000D01*
D18*
X162560000Y-71882000D02*
X162560000Y-72898000D01*
D17*
X162560000Y-71206000D02*
X162560000Y-74168000D01*
X162560000Y-72898000D02*
X162560000Y-74168000D01*
D16*
X134874000Y-76200000D02*
X135001000Y-76327000D01*
X131318000Y-76200000D02*
X134874000Y-76200000D01*
X135001000Y-76327000D02*
X134366000Y-75692000D01*
X136144000Y-77470000D02*
X135001000Y-76327000D01*
X131318000Y-76200000D02*
X132080000Y-75438000D01*
X119634000Y-96583500D02*
X118046500Y-96583500D01*
X121729500Y-78549500D02*
X120650000Y-77470000D01*
X121729500Y-94488000D02*
X121729500Y-78549500D01*
X101854000Y-77470000D02*
X120650000Y-77470000D01*
X121729500Y-94488000D02*
X119634000Y-96583500D01*
X130048000Y-77470000D02*
X131318000Y-76200000D01*
X121729500Y-78422500D02*
X122682000Y-77470000D01*
X121729500Y-78549500D02*
X121729500Y-78422500D01*
X120650000Y-77470000D02*
X122682000Y-77470000D01*
X122682000Y-77470000D02*
X130048000Y-77470000D01*
D17*
X137312400Y-86258400D02*
X137312400Y-83108800D01*
X137312400Y-86537800D02*
X137312400Y-86258400D01*
X162560000Y-74168000D02*
X162560000Y-83312000D01*
X140935398Y-88290400D02*
X139065000Y-88290400D01*
X162560000Y-83312000D02*
X155194000Y-90678000D01*
X155194000Y-90678000D02*
X143322998Y-90678000D01*
X143322998Y-90678000D02*
X140935398Y-88290400D01*
X139065000Y-88290400D02*
X137312400Y-86537800D01*
D19*
G04 #@! TO.N,/M1_DIR*
X133386918Y-93200561D02*
X131826000Y-91639643D01*
X131826000Y-91639643D02*
X131826000Y-84800000D01*
X131826000Y-84800000D02*
X126746000Y-79720000D01*
D18*
X139246800Y-96320800D02*
X138176000Y-95250000D01*
X139246800Y-98780600D02*
X139246800Y-96320800D01*
D17*
X118046500Y-71056500D02*
X122174000Y-75184000D01*
X118046500Y-66421000D02*
X118046500Y-71056500D01*
D16*
G04 #@! TO.N,/ENA3*
X125953520Y-54691280D02*
X125953520Y-54386480D01*
X125953520Y-54386480D02*
X128016000Y-52324000D01*
D17*
X153466800Y-53644800D02*
X153416000Y-53695600D01*
X153466800Y-50520600D02*
X153466800Y-53644800D01*
X145643600Y-53848000D02*
X144221200Y-52425600D01*
X147320000Y-53848000D02*
X145643600Y-53848000D01*
D16*
G04 #@! TO.N,/M3_1A*
X138653520Y-67391280D02*
X142481601Y-67391280D01*
X142481601Y-67391280D02*
X145102881Y-64770000D01*
X145102881Y-64770000D02*
X160631320Y-64770000D01*
X160631320Y-64770000D02*
X166294655Y-59106665D01*
X172656500Y-42735500D02*
X172656500Y-51625500D01*
X172656500Y-51625500D02*
X168656000Y-55626000D01*
X168656000Y-55626000D02*
X168656000Y-56745310D01*
X166294655Y-59106655D02*
X166294655Y-59106665D01*
X168656000Y-56745310D02*
X166294655Y-59106655D01*
G04 #@! TO.N,/M3_1B*
X167576500Y-44856820D02*
X167576500Y-42735500D01*
X167640000Y-44920320D02*
X167576500Y-44856820D01*
X167640000Y-50292000D02*
X167640000Y-44920320D01*
X166052500Y-51879500D02*
X167640000Y-50292000D01*
X166052500Y-56520380D02*
X166052500Y-51879500D01*
X159866870Y-62706010D02*
X166052500Y-56520380D01*
X144338430Y-62706010D02*
X159866870Y-62706010D01*
X142193160Y-64851280D02*
X144338430Y-62706010D01*
X138653520Y-64851280D02*
X142193160Y-64851280D01*
G04 #@! TO.N,/M3_2A*
X163512500Y-43751500D02*
X162496500Y-42735500D01*
X159510429Y-60234011D02*
X163512500Y-56231940D01*
X163512500Y-56231940D02*
X163512500Y-43751500D01*
X151093989Y-60234011D02*
X159510429Y-60234011D01*
X150943989Y-60384011D02*
X151093989Y-60234011D01*
X150689989Y-60384011D02*
X150943989Y-60384011D01*
X141904720Y-62311280D02*
X143981989Y-60234011D01*
X143981989Y-60234011D02*
X146785568Y-60234011D01*
X147257557Y-60706000D02*
X150368000Y-60706000D01*
X146785568Y-60234011D02*
X147257557Y-60706000D01*
X138653520Y-62311280D02*
X141904720Y-62311280D01*
X150368000Y-60706000D02*
X150689989Y-60384011D01*
G04 #@! TO.N,Net-(A2-Pad13)*
X125953520Y-64851280D02*
X125953520Y-67391280D01*
G04 #@! TO.N,/M3_2B*
X158916499Y-44235499D02*
X157416500Y-42735500D01*
X158916499Y-47410499D02*
X158916499Y-44235499D01*
X160972500Y-49466500D02*
X158916499Y-47410499D01*
X160972500Y-55562500D02*
X160972500Y-49466500D01*
D17*
X160972500Y-55562500D02*
X160972500Y-55943500D01*
D16*
X142690799Y-58234001D02*
X142933999Y-58234001D01*
X141153520Y-59771280D02*
X142690799Y-58234001D01*
X138653520Y-59771280D02*
X141153520Y-59771280D01*
X160972500Y-55943500D02*
X158681999Y-58234001D01*
X142690799Y-58234001D02*
X147613999Y-58234001D01*
D17*
X147613999Y-58234001D02*
X142933999Y-58234001D01*
D16*
X147763999Y-58384001D02*
X147613999Y-58234001D01*
X150074001Y-58234001D02*
X149924001Y-58384001D01*
X149924001Y-58384001D02*
X147763999Y-58384001D01*
X158681999Y-58234001D02*
X150074001Y-58234001D01*
D17*
G04 #@! TO.N,/M3_STEP*
X145846800Y-98780600D02*
X145846800Y-93268800D01*
X145846800Y-93268800D02*
X145796000Y-93218000D01*
D19*
X126153520Y-69931280D02*
X126326240Y-70104000D01*
X126326240Y-70104000D02*
X126473259Y-70104000D01*
X125953520Y-69931280D02*
X126153520Y-69931280D01*
X128778000Y-75184000D02*
X129286000Y-73950000D01*
X129286000Y-73950000D02*
X129286000Y-72136000D01*
X127081280Y-69931280D02*
X125953520Y-69931280D01*
X129286000Y-72136000D02*
X127081280Y-69931280D01*
D17*
X145796000Y-83820000D02*
X145796000Y-88578000D01*
X146558000Y-83058000D02*
X145796000Y-83820000D01*
X146558000Y-75438000D02*
X146558000Y-83058000D01*
D19*
G04 #@! TO.N,/M3_DIR*
X143256000Y-98729800D02*
X143306800Y-98780600D01*
X135386920Y-91700560D02*
X133350000Y-89663640D01*
X133350000Y-89663640D02*
X133350000Y-78994000D01*
D18*
X125222000Y-73202800D02*
X125953520Y-72471280D01*
X125222000Y-75184000D02*
X125222000Y-73202800D01*
D17*
X143256000Y-92964000D02*
X143256000Y-98729800D01*
X143256000Y-98729800D02*
X143306800Y-98780600D01*
D18*
G04 #@! TO.N,/M2_STEP*
X150926800Y-96780600D02*
X150926800Y-98780600D01*
X152203400Y-95504000D02*
X150926800Y-96780600D01*
X156210000Y-95504000D02*
X152203400Y-95504000D01*
X153162000Y-85852000D02*
X152908000Y-85598000D01*
X156210000Y-85852000D02*
X153162000Y-85852000D01*
G04 #@! TO.N,/M2_DIR*
X148386800Y-95453200D02*
X148590000Y-95250000D01*
X148386800Y-98780600D02*
X148386800Y-95453200D01*
X150114000Y-88138000D02*
X152908000Y-88138000D01*
X148590000Y-86614000D02*
X150114000Y-88138000D01*
G04 #@! TO.N,/ENA2*
X148844000Y-70358000D02*
X152908000Y-70358000D01*
D16*
X150926800Y-53020600D02*
X150926800Y-50520600D01*
X150723600Y-54610000D02*
X150723600Y-53223800D01*
X150723600Y-53223800D02*
X150926800Y-53020600D01*
X148844000Y-56134000D02*
X150723600Y-54610000D01*
D17*
G04 #@! TO.N,/M0_STEP*
X102806500Y-86083500D02*
X102806500Y-83883500D01*
X104099000Y-87376000D02*
X102806500Y-86083500D01*
X118364000Y-87376000D02*
X104099000Y-87376000D01*
X129086800Y-93472000D02*
X129086800Y-98780600D01*
X125205999Y-89645999D02*
X129032000Y-93472000D01*
X125205999Y-88375999D02*
X125205999Y-89645999D01*
X124206000Y-87376000D02*
X125205999Y-88375999D01*
G04 #@! TO.N,/M0_DIR*
X126546800Y-95050800D02*
X126546800Y-98780600D01*
X124206000Y-92710000D02*
X126546800Y-95050800D01*
X100266500Y-86083500D02*
X104099000Y-89916000D01*
X100266500Y-83883500D02*
X100266500Y-86083500D01*
X115570000Y-89916000D02*
X118364000Y-92710000D01*
X104099000Y-89916000D02*
X115570000Y-89916000D01*
D18*
G04 #@! TO.N,/ENA0-POLOLU*
X123190000Y-52578000D02*
X123190000Y-56388000D01*
X123190000Y-56388000D02*
X121412000Y-58166000D01*
X121412000Y-58166000D02*
X121412000Y-69850000D01*
D17*
X118046500Y-83883500D02*
X118046500Y-81883500D01*
X118046500Y-81883500D02*
X116173000Y-80010000D01*
X116173000Y-80010000D02*
X113030000Y-80010000D01*
X113030000Y-69850000D02*
X113030000Y-75184000D01*
X155956000Y-46736000D02*
X156006800Y-50520600D01*
X123190000Y-42164000D02*
X150114000Y-42164000D01*
X150114000Y-42164000D02*
X155956000Y-46736000D01*
G04 #@! TO.N,/RX*
X161086800Y-106375200D02*
X160782000Y-106680000D01*
X161086800Y-98780600D02*
X161086800Y-106375200D01*
G04 #@! TO.N,/TX*
X158546800Y-103835200D02*
X155702000Y-106680000D01*
X158546800Y-98780600D02*
X158546800Y-103835200D01*
D16*
G04 #@! TO.N,Net-(A4-Pad13)*
X152908000Y-80518000D02*
X152908000Y-83058000D01*
G04 #@! TO.N,/M2_2B*
X165608000Y-75438000D02*
X169418000Y-75438000D01*
X173482000Y-71374000D02*
X175768000Y-71374000D01*
X169418000Y-75438000D02*
X173482000Y-71374000D01*
G04 #@! TO.N,/M2_2A*
X175768000Y-76454000D02*
X173646680Y-76454000D01*
X172122680Y-77978000D02*
X165608000Y-77978000D01*
X173646680Y-76454000D02*
X172122680Y-77978000D01*
G04 #@! TO.N,/M2_1B*
X172212000Y-81534000D02*
X171196000Y-80518000D01*
X175768000Y-81534000D02*
X172212000Y-81534000D01*
X165608000Y-80518000D02*
X171196000Y-80518000D01*
G04 #@! TO.N,/M2_1A*
X172768000Y-86614000D02*
X175768000Y-86614000D01*
X169212000Y-83058000D02*
X172768000Y-86614000D01*
X165608000Y-83058000D02*
X169212000Y-83058000D01*
G04 #@! TO.N,Net-(A5-Pad13)*
X107886500Y-83883500D02*
X105346500Y-83883500D01*
G04 #@! TO.N,/M0_2B*
X112966500Y-96583500D02*
X112966500Y-99123500D01*
X115887500Y-101981000D02*
X115887500Y-106172000D01*
X115824000Y-101981000D02*
X112966500Y-99123500D01*
X115887500Y-101981000D02*
X115824000Y-101981000D01*
G04 #@! TO.N,/M0_2A*
X110426500Y-105791000D02*
X110807500Y-106172000D01*
X110426500Y-96583500D02*
X110426500Y-105791000D01*
G04 #@! TO.N,/M0_1B*
X105727500Y-101473000D02*
X105727500Y-106172000D01*
X107886500Y-99314000D02*
X105727500Y-101473000D01*
X107886500Y-96583500D02*
X107886500Y-99314000D01*
G04 #@! TO.N,/M0_1A*
X100647500Y-102413870D02*
X100647500Y-106172000D01*
X105346500Y-96583500D02*
X105346500Y-97714870D01*
X105346500Y-97714870D02*
X100647500Y-102413870D01*
D18*
G04 #@! TO.N,/SENSOR1*
X156006800Y-100780600D02*
X155956000Y-100831400D01*
X156006800Y-98780600D02*
X156006800Y-100780600D01*
X155956000Y-100831400D02*
X155956000Y-101600000D01*
X150876000Y-106680000D02*
X144018000Y-106680000D01*
X155956000Y-101600000D02*
X150876000Y-106680000D01*
G04 #@! TO.N,/SENSOR2*
X153466800Y-100780600D02*
X153466800Y-98780600D01*
X152393400Y-101854000D02*
X153466800Y-100780600D01*
X141642680Y-101854000D02*
X152393400Y-101854000D01*
X138938000Y-104558680D02*
X141642680Y-101854000D01*
X138938000Y-106680000D02*
X138938000Y-104558680D01*
G04 #@! TD*
D20*
G36*
X92790446Y-100840294D02*
X93562284Y-101160000D01*
X94397716Y-101160000D01*
X94693000Y-101037689D01*
X94693001Y-108417569D01*
X94659697Y-108585000D01*
X94791636Y-109248306D01*
X94827213Y-109301550D01*
X95167370Y-109810631D01*
X95309310Y-109905473D01*
X96090596Y-110686759D01*
X92500961Y-110697134D01*
X92465731Y-100515579D01*
X92790446Y-100840294D01*
X92790446Y-100840294D01*
G37*
X92790446Y-100840294D02*
X93562284Y-101160000D01*
X94397716Y-101160000D01*
X94693000Y-101037689D01*
X94693001Y-108417569D01*
X94659697Y-108585000D01*
X94791636Y-109248306D01*
X94827213Y-109301550D01*
X95167370Y-109810631D01*
X95309310Y-109905473D01*
X96090596Y-110686759D01*
X92500961Y-110697134D01*
X92465731Y-100515579D01*
X92790446Y-100840294D01*
G36*
X135192786Y-100544615D02*
X135887422Y-101008756D01*
X136706800Y-101171741D01*
X137526179Y-101008756D01*
X137976800Y-100707660D01*
X138427422Y-101008756D01*
X139246800Y-101171741D01*
X140066179Y-101008756D01*
X140458154Y-100746847D01*
X140399883Y-100834055D01*
X137918056Y-103315883D01*
X137784466Y-103405145D01*
X137695204Y-103538735D01*
X137695202Y-103538737D01*
X137430834Y-103934392D01*
X137306656Y-104558680D01*
X137319217Y-104621827D01*
X136733826Y-105207218D01*
X136338000Y-106162828D01*
X136338000Y-107197172D01*
X136733826Y-108152782D01*
X137465218Y-108884174D01*
X138420828Y-109280000D01*
X139455172Y-109280000D01*
X140410782Y-108884174D01*
X141142174Y-108152782D01*
X141396450Y-107538904D01*
X141396450Y-108180000D01*
X141481823Y-108609199D01*
X141724944Y-108973056D01*
X142088801Y-109216177D01*
X142518000Y-109301550D01*
X145518000Y-109301550D01*
X145947199Y-109216177D01*
X146311056Y-108973056D01*
X146554177Y-108609199D01*
X146619659Y-108280000D01*
X150718422Y-108280000D01*
X150876000Y-108311344D01*
X151033578Y-108280000D01*
X151033582Y-108280000D01*
X151500289Y-108187166D01*
X152029535Y-107833535D01*
X152118799Y-107699942D01*
X153102000Y-106716741D01*
X153102000Y-107197172D01*
X153497826Y-108152782D01*
X154229218Y-108884174D01*
X155184828Y-109280000D01*
X156219172Y-109280000D01*
X157174782Y-108884174D01*
X157906174Y-108152782D01*
X158160450Y-107538904D01*
X158160450Y-108180000D01*
X158245823Y-108609199D01*
X158488944Y-108973056D01*
X158852801Y-109216177D01*
X159282000Y-109301550D01*
X161253762Y-109301550D01*
X161253762Y-110163250D01*
X162006000Y-110163250D01*
X162006000Y-110496253D01*
X130831811Y-110586352D01*
X131893690Y-109524473D01*
X132035631Y-109429631D01*
X132385872Y-108905458D01*
X132739199Y-108835177D01*
X133103056Y-108592056D01*
X133346177Y-108228199D01*
X133431550Y-107799000D01*
X133431550Y-104799000D01*
X133346177Y-104369801D01*
X133103056Y-104005944D01*
X132739199Y-103762823D01*
X132510000Y-103717232D01*
X132510000Y-101796162D01*
X133163690Y-101142473D01*
X133305631Y-101047631D01*
X133651989Y-100529270D01*
X133948284Y-100652000D01*
X134783716Y-100652000D01*
X135160309Y-100496010D01*
X135192786Y-100544615D01*
X135192786Y-100544615D01*
G37*
X135192786Y-100544615D02*
X135887422Y-101008756D01*
X136706800Y-101171741D01*
X137526179Y-101008756D01*
X137976800Y-100707660D01*
X138427422Y-101008756D01*
X139246800Y-101171741D01*
X140066179Y-101008756D01*
X140458154Y-100746847D01*
X140399883Y-100834055D01*
X137918056Y-103315883D01*
X137784466Y-103405145D01*
X137695204Y-103538735D01*
X137695202Y-103538737D01*
X137430834Y-103934392D01*
X137306656Y-104558680D01*
X137319217Y-104621827D01*
X136733826Y-105207218D01*
X136338000Y-106162828D01*
X136338000Y-107197172D01*
X136733826Y-108152782D01*
X137465218Y-108884174D01*
X138420828Y-109280000D01*
X139455172Y-109280000D01*
X140410782Y-108884174D01*
X141142174Y-108152782D01*
X141396450Y-107538904D01*
X141396450Y-108180000D01*
X141481823Y-108609199D01*
X141724944Y-108973056D01*
X142088801Y-109216177D01*
X142518000Y-109301550D01*
X145518000Y-109301550D01*
X145947199Y-109216177D01*
X146311056Y-108973056D01*
X146554177Y-108609199D01*
X146619659Y-108280000D01*
X150718422Y-108280000D01*
X150876000Y-108311344D01*
X151033578Y-108280000D01*
X151033582Y-108280000D01*
X151500289Y-108187166D01*
X152029535Y-107833535D01*
X152118799Y-107699942D01*
X153102000Y-106716741D01*
X153102000Y-107197172D01*
X153497826Y-108152782D01*
X154229218Y-108884174D01*
X155184828Y-109280000D01*
X156219172Y-109280000D01*
X157174782Y-108884174D01*
X157906174Y-108152782D01*
X158160450Y-107538904D01*
X158160450Y-108180000D01*
X158245823Y-108609199D01*
X158488944Y-108973056D01*
X158852801Y-109216177D01*
X159282000Y-109301550D01*
X161253762Y-109301550D01*
X161253762Y-110163250D01*
X162006000Y-110163250D01*
X162006000Y-110496253D01*
X130831811Y-110586352D01*
X131893690Y-109524473D01*
X132035631Y-109429631D01*
X132385872Y-108905458D01*
X132739199Y-108835177D01*
X133103056Y-108592056D01*
X133346177Y-108228199D01*
X133431550Y-107799000D01*
X133431550Y-104799000D01*
X133346177Y-104369801D01*
X133103056Y-104005944D01*
X132739199Y-103762823D01*
X132510000Y-103717232D01*
X132510000Y-101796162D01*
X133163690Y-101142473D01*
X133305631Y-101047631D01*
X133651989Y-100529270D01*
X133948284Y-100652000D01*
X134783716Y-100652000D01*
X135160309Y-100496010D01*
X135192786Y-100544615D01*
G36*
X113683326Y-107644782D02*
X114320544Y-108282000D01*
X112374456Y-108282000D01*
X113011674Y-107644782D01*
X113347500Y-106834025D01*
X113683326Y-107644782D01*
X113683326Y-107644782D01*
G37*
X113683326Y-107644782D02*
X114320544Y-108282000D01*
X112374456Y-108282000D01*
X113011674Y-107644782D01*
X113347500Y-106834025D01*
X113683326Y-107644782D01*
G36*
X103523326Y-107644782D02*
X104160544Y-108282000D01*
X103062870Y-108282000D01*
X103183677Y-108101199D01*
X103269050Y-107672000D01*
X103269050Y-107030904D01*
X103523326Y-107644782D01*
X103523326Y-107644782D01*
G37*
X103523326Y-107644782D02*
X104160544Y-108282000D01*
X103062870Y-108282000D01*
X103183677Y-108101199D01*
X103269050Y-107672000D01*
X103269050Y-107030904D01*
X103523326Y-107644782D01*
G36*
X108603326Y-107644782D02*
X109240544Y-108282000D01*
X107294456Y-108282000D01*
X107931674Y-107644782D01*
X108267500Y-106834025D01*
X108603326Y-107644782D01*
X108603326Y-107644782D01*
G37*
X108603326Y-107644782D02*
X109240544Y-108282000D01*
X107294456Y-108282000D01*
X107931674Y-107644782D01*
X108267500Y-106834025D01*
X108603326Y-107644782D01*
G36*
X122156800Y-102620295D02*
X122156801Y-104393594D01*
X122120558Y-104575800D01*
X122264139Y-105297633D01*
X122450917Y-105577166D01*
X122673026Y-105909575D01*
X122827491Y-106012785D01*
X123130000Y-106315295D01*
X123130000Y-106816172D01*
X123525826Y-107771782D01*
X124036044Y-108282000D01*
X117454456Y-108282000D01*
X118091674Y-107644782D01*
X118487500Y-106689172D01*
X118487500Y-105654828D01*
X118091674Y-104699218D01*
X117737500Y-104345044D01*
X117737500Y-102163205D01*
X117773743Y-101981000D01*
X117766469Y-101944433D01*
X117856000Y-101962242D01*
X118038201Y-101926000D01*
X121462506Y-101926000D01*
X122156800Y-102620295D01*
X122156800Y-102620295D01*
G37*
X122156800Y-102620295D02*
X122156801Y-104393594D01*
X122120558Y-104575800D01*
X122264139Y-105297633D01*
X122450917Y-105577166D01*
X122673026Y-105909575D01*
X122827491Y-106012785D01*
X123130000Y-106315295D01*
X123130000Y-106816172D01*
X123525826Y-107771782D01*
X124036044Y-108282000D01*
X117454456Y-108282000D01*
X118091674Y-107644782D01*
X118487500Y-106689172D01*
X118487500Y-105654828D01*
X118091674Y-104699218D01*
X117737500Y-104345044D01*
X117737500Y-102163205D01*
X117773743Y-101981000D01*
X117766469Y-101944433D01*
X117856000Y-101962242D01*
X118038201Y-101926000D01*
X121462506Y-101926000D01*
X122156800Y-102620295D01*
G36*
X128188450Y-107799000D02*
X128273823Y-108228199D01*
X128309772Y-108282000D01*
X127423956Y-108282000D01*
X127934174Y-107771782D01*
X128188450Y-107157904D01*
X128188450Y-107799000D01*
X128188450Y-107799000D01*
G37*
X128188450Y-107799000D02*
X128273823Y-108228199D01*
X128309772Y-108282000D01*
X127423956Y-108282000D01*
X127934174Y-107771782D01*
X128188450Y-107157904D01*
X128188450Y-107799000D01*
G36*
X150213259Y-105080000D02*
X146619659Y-105080000D01*
X146554177Y-104750801D01*
X146311056Y-104386944D01*
X145947199Y-104143823D01*
X145518000Y-104058450D01*
X142518000Y-104058450D01*
X142088801Y-104143823D01*
X141724944Y-104386944D01*
X141481823Y-104750801D01*
X141396450Y-105180000D01*
X141396450Y-105821096D01*
X141142174Y-105207218D01*
X140847189Y-104912233D01*
X142305422Y-103454000D01*
X151839259Y-103454000D01*
X150213259Y-105080000D01*
X150213259Y-105080000D01*
G37*
X150213259Y-105080000D02*
X146619659Y-105080000D01*
X146554177Y-104750801D01*
X146311056Y-104386944D01*
X145947199Y-104143823D01*
X145518000Y-104058450D01*
X142518000Y-104058450D01*
X142088801Y-104143823D01*
X141724944Y-104386944D01*
X141481823Y-104750801D01*
X141396450Y-105180000D01*
X141396450Y-105821096D01*
X141142174Y-105207218D01*
X140847189Y-104912233D01*
X142305422Y-103454000D01*
X151839259Y-103454000D01*
X150213259Y-105080000D01*
G36*
X114037500Y-102810795D02*
X114037501Y-104345043D01*
X113683326Y-104699218D01*
X113347500Y-105509975D01*
X113011674Y-104699218D01*
X112280282Y-103967826D01*
X112276500Y-103966259D01*
X112276500Y-101049794D01*
X114037500Y-102810795D01*
X114037500Y-102810795D01*
G37*
X114037500Y-102810795D02*
X114037501Y-104345043D01*
X113683326Y-104699218D01*
X113347500Y-105509975D01*
X113011674Y-104699218D01*
X112280282Y-103967826D01*
X112276500Y-103966259D01*
X112276500Y-101049794D01*
X114037500Y-102810795D01*
G36*
X108576501Y-104763980D02*
X108267500Y-105509975D01*
X107931674Y-104699218D01*
X107577500Y-104345044D01*
X107577500Y-102239294D01*
X108576501Y-101240294D01*
X108576501Y-104763980D01*
X108576501Y-104763980D01*
G37*
X108576501Y-104763980D02*
X108267500Y-105509975D01*
X107931674Y-104699218D01*
X107577500Y-104345044D01*
X107577500Y-102239294D01*
X108576501Y-101240294D01*
X108576501Y-104763980D01*
G36*
X128267422Y-101008756D02*
X129086800Y-101171741D01*
X129092339Y-101170639D01*
X129110001Y-101259431D01*
X129110000Y-103717232D01*
X128880801Y-103762823D01*
X128516944Y-104005944D01*
X128273823Y-104369801D01*
X128188450Y-104799000D01*
X128188450Y-105440096D01*
X127934174Y-104826218D01*
X127202782Y-104094826D01*
X126247172Y-103699000D01*
X125856800Y-103699000D01*
X125856800Y-102036199D01*
X125893042Y-101853999D01*
X125856800Y-101671799D01*
X125856800Y-101034491D01*
X126546800Y-101171741D01*
X127366179Y-101008756D01*
X127816800Y-100707660D01*
X128267422Y-101008756D01*
X128267422Y-101008756D01*
G37*
X128267422Y-101008756D02*
X129086800Y-101171741D01*
X129092339Y-101170639D01*
X129110001Y-101259431D01*
X129110000Y-103717232D01*
X128880801Y-103762823D01*
X128516944Y-104005944D01*
X128273823Y-104369801D01*
X128188450Y-104799000D01*
X128188450Y-105440096D01*
X127934174Y-104826218D01*
X127202782Y-104094826D01*
X126247172Y-103699000D01*
X125856800Y-103699000D01*
X125856800Y-102036199D01*
X125893042Y-101853999D01*
X125856800Y-101671799D01*
X125856800Y-101034491D01*
X126546800Y-101171741D01*
X127366179Y-101008756D01*
X127816800Y-100707660D01*
X128267422Y-101008756D01*
G36*
X103877501Y-104345043D02*
X103523326Y-104699218D01*
X103269050Y-105313096D01*
X103269050Y-104672000D01*
X103183677Y-104242801D01*
X102940556Y-103878944D01*
X102576699Y-103635823D01*
X102497500Y-103620069D01*
X102497500Y-103180164D01*
X103877500Y-101800164D01*
X103877501Y-104345043D01*
X103877501Y-104345043D01*
G37*
X103877501Y-104345043D02*
X103523326Y-104699218D01*
X103269050Y-105313096D01*
X103269050Y-104672000D01*
X103183677Y-104242801D01*
X102940556Y-103878944D01*
X102576699Y-103635823D01*
X102497500Y-103620069D01*
X102497500Y-103180164D01*
X103877500Y-101800164D01*
X103877501Y-104345043D01*
G36*
X98124446Y-100840294D02*
X98896284Y-101160000D01*
X99260334Y-101160000D01*
X98904839Y-101692037D01*
X98797500Y-102231666D01*
X98797500Y-102231669D01*
X98761258Y-102413870D01*
X98797500Y-102596072D01*
X98797500Y-103620069D01*
X98718301Y-103635823D01*
X98354444Y-103878944D01*
X98111323Y-104242801D01*
X98093000Y-104334917D01*
X98093000Y-100808848D01*
X98124446Y-100840294D01*
X98124446Y-100840294D01*
G37*
X98124446Y-100840294D02*
X98896284Y-101160000D01*
X99260334Y-101160000D01*
X98904839Y-101692037D01*
X98797500Y-102231666D01*
X98797500Y-102231669D01*
X98761258Y-102413870D01*
X98797500Y-102596072D01*
X98797500Y-103620069D01*
X98718301Y-103635823D01*
X98354444Y-103878944D01*
X98111323Y-104242801D01*
X98093000Y-104334917D01*
X98093000Y-100808848D01*
X98124446Y-100840294D01*
G36*
X156846801Y-103131036D02*
X155897838Y-104080000D01*
X155738742Y-104080000D01*
X156846801Y-102971941D01*
X156846801Y-103131036D01*
X156846801Y-103131036D01*
G37*
X156846801Y-103131036D02*
X155897838Y-104080000D01*
X155738742Y-104080000D01*
X156846801Y-102971941D01*
X156846801Y-103131036D01*
G36*
X141328644Y-99849979D02*
X141585287Y-100234072D01*
X141485101Y-100254000D01*
X141485098Y-100254000D01*
X141018391Y-100346834D01*
X140791807Y-100498233D01*
X141224956Y-99849978D01*
X141276800Y-99589342D01*
X141328644Y-99849979D01*
X141328644Y-99849979D01*
G37*
X141328644Y-99849979D02*
X141585287Y-100234072D01*
X141485101Y-100254000D01*
X141485098Y-100254000D01*
X141018391Y-100346834D01*
X140791807Y-100498233D01*
X141224956Y-99849978D01*
X141276800Y-99589342D01*
X141328644Y-99849979D01*
G36*
X123788284Y-94810000D02*
X123901838Y-94810000D01*
X124846800Y-95754963D01*
X124846800Y-96566223D01*
X124826178Y-96552444D01*
X124006800Y-96389459D01*
X123187421Y-96552444D01*
X122492785Y-97016585D01*
X122028644Y-97711222D01*
X121991935Y-97895770D01*
X121661706Y-98226000D01*
X120505735Y-98226000D01*
X120967775Y-97917275D01*
X121070988Y-97762807D01*
X122908809Y-95924985D01*
X123063275Y-95821775D01*
X123472161Y-95209834D01*
X123523845Y-94950000D01*
X123569703Y-94719461D01*
X123788284Y-94810000D01*
X123788284Y-94810000D01*
G37*
X123788284Y-94810000D02*
X123901838Y-94810000D01*
X124846800Y-95754963D01*
X124846800Y-96566223D01*
X124826178Y-96552444D01*
X124006800Y-96389459D01*
X123187421Y-96552444D01*
X122492785Y-97016585D01*
X122028644Y-97711222D01*
X121991935Y-97895770D01*
X121661706Y-98226000D01*
X120505735Y-98226000D01*
X120967775Y-97917275D01*
X121070988Y-97762807D01*
X122908809Y-95924985D01*
X123063275Y-95821775D01*
X123472161Y-95209834D01*
X123523845Y-94950000D01*
X123569703Y-94719461D01*
X123788284Y-94810000D01*
G36*
X141156000Y-93381716D02*
X141475706Y-94153554D01*
X141556000Y-94233848D01*
X141556001Y-97370958D01*
X141328644Y-97711222D01*
X141276800Y-97971858D01*
X141224956Y-97711221D01*
X140846800Y-97145271D01*
X140846800Y-96478378D01*
X140878144Y-96320800D01*
X140846800Y-96163222D01*
X140846800Y-96163218D01*
X140753966Y-95696511D01*
X140625334Y-95504000D01*
X140489598Y-95300856D01*
X140489597Y-95300855D01*
X140400335Y-95167265D01*
X140276000Y-95084187D01*
X140276000Y-94832284D01*
X139956294Y-94060446D01*
X139421744Y-93525896D01*
X140188733Y-92905000D01*
X140498716Y-92905000D01*
X141156000Y-92632744D01*
X141156000Y-93381716D01*
X141156000Y-93381716D01*
G37*
X141156000Y-93381716D02*
X141475706Y-94153554D01*
X141556000Y-94233848D01*
X141556001Y-97370958D01*
X141328644Y-97711222D01*
X141276800Y-97971858D01*
X141224956Y-97711221D01*
X140846800Y-97145271D01*
X140846800Y-96478378D01*
X140878144Y-96320800D01*
X140846800Y-96163222D01*
X140846800Y-96163218D01*
X140753966Y-95696511D01*
X140625334Y-95504000D01*
X140489598Y-95300856D01*
X140489597Y-95300855D01*
X140400335Y-95167265D01*
X140276000Y-95084187D01*
X140276000Y-94832284D01*
X139956294Y-94060446D01*
X139421744Y-93525896D01*
X140188733Y-92905000D01*
X140498716Y-92905000D01*
X141156000Y-92632744D01*
X141156000Y-93381716D01*
G36*
X98125359Y-96583500D02*
X98253232Y-97226361D01*
X98124446Y-97279706D01*
X98093000Y-97311152D01*
X98093000Y-96208162D01*
X98226592Y-96074571D01*
X98125359Y-96583500D01*
X98125359Y-96583500D01*
G37*
X98125359Y-96583500D02*
X98253232Y-97226361D01*
X98124446Y-97279706D01*
X98093000Y-97311152D01*
X98093000Y-96208162D01*
X98226592Y-96074571D01*
X98125359Y-96583500D01*
G36*
X163071712Y-94838250D02*
X161253762Y-94838250D01*
X161253762Y-96422670D01*
X161086800Y-96389459D01*
X160267421Y-96552444D01*
X159816800Y-96853539D01*
X159366178Y-96552444D01*
X158546800Y-96389459D01*
X158077595Y-96482790D01*
X158310000Y-95921716D01*
X158310000Y-95086284D01*
X158197216Y-94814000D01*
X162949799Y-94814000D01*
X163071712Y-94838250D01*
X163071712Y-94838250D01*
G37*
X163071712Y-94838250D02*
X161253762Y-94838250D01*
X161253762Y-96422670D01*
X161086800Y-96389459D01*
X160267421Y-96552444D01*
X159816800Y-96853539D01*
X159366178Y-96552444D01*
X158546800Y-96389459D01*
X158077595Y-96482790D01*
X158310000Y-95921716D01*
X158310000Y-95086284D01*
X158197216Y-94814000D01*
X162949799Y-94814000D01*
X163071712Y-94838250D01*
G36*
X136395706Y-96439554D02*
X136405536Y-96449384D01*
X135887421Y-96552444D01*
X135557043Y-96773195D01*
X135555554Y-96771706D01*
X135339127Y-96682059D01*
X136218601Y-96011984D01*
X136395706Y-96439554D01*
X136395706Y-96439554D01*
G37*
X136395706Y-96439554D02*
X136405536Y-96449384D01*
X135887421Y-96552444D01*
X135557043Y-96773195D01*
X135555554Y-96771706D01*
X135339127Y-96682059D01*
X136218601Y-96011984D01*
X136395706Y-96439554D01*
G36*
X113209540Y-94490703D02*
X113173329Y-94483500D01*
X112759671Y-94483500D01*
X112147121Y-94605344D01*
X111696500Y-94906439D01*
X111245879Y-94605344D01*
X110633329Y-94483500D01*
X110219671Y-94483500D01*
X109607121Y-94605344D01*
X109156500Y-94906439D01*
X108705879Y-94605344D01*
X108093329Y-94483500D01*
X107679671Y-94483500D01*
X107067121Y-94605344D01*
X106616500Y-94906439D01*
X106165879Y-94605344D01*
X105553329Y-94483500D01*
X105139671Y-94483500D01*
X104527121Y-94605344D01*
X104391377Y-94696045D01*
X104344364Y-94459693D01*
X104293453Y-94383500D01*
X103968631Y-93897369D01*
X103826690Y-93802527D01*
X103369153Y-93344990D01*
X112063828Y-93344990D01*
X113209540Y-94490703D01*
X113209540Y-94490703D01*
G37*
X113209540Y-94490703D02*
X113173329Y-94483500D01*
X112759671Y-94483500D01*
X112147121Y-94605344D01*
X111696500Y-94906439D01*
X111245879Y-94605344D01*
X110633329Y-94483500D01*
X110219671Y-94483500D01*
X109607121Y-94605344D01*
X109156500Y-94906439D01*
X108705879Y-94605344D01*
X108093329Y-94483500D01*
X107679671Y-94483500D01*
X107067121Y-94605344D01*
X106616500Y-94906439D01*
X106165879Y-94605344D01*
X105553329Y-94483500D01*
X105139671Y-94483500D01*
X104527121Y-94605344D01*
X104391377Y-94696045D01*
X104344364Y-94459693D01*
X104293453Y-94383500D01*
X103968631Y-93897369D01*
X103826690Y-93802527D01*
X103369153Y-93344990D01*
X112063828Y-93344990D01*
X113209540Y-94490703D01*
G36*
X179786000Y-94838250D02*
X163192288Y-94838250D01*
X163314201Y-94814000D01*
X163314205Y-94814000D01*
X163853834Y-94706661D01*
X164465775Y-94297775D01*
X164568988Y-94143306D01*
X166787306Y-91924988D01*
X166941775Y-91821775D01*
X167350661Y-91209834D01*
X167458000Y-90670205D01*
X167458000Y-90670202D01*
X167494242Y-90488000D01*
X167458000Y-90305799D01*
X167458000Y-89149178D01*
X167586156Y-88957379D01*
X167749141Y-88138000D01*
X167586156Y-87318621D01*
X167285061Y-86868000D01*
X167586156Y-86417379D01*
X167749141Y-85598000D01*
X167611891Y-84908000D01*
X168445706Y-84908000D01*
X171331014Y-87793309D01*
X171434225Y-87947775D01*
X172046166Y-88356661D01*
X172585795Y-88464000D01*
X172585799Y-88464000D01*
X172767999Y-88500242D01*
X172950199Y-88464000D01*
X173216069Y-88464000D01*
X173231823Y-88543199D01*
X173474944Y-88907056D01*
X173838801Y-89150177D01*
X174268000Y-89235550D01*
X177268000Y-89235550D01*
X177697199Y-89150177D01*
X178061056Y-88907056D01*
X178304177Y-88543199D01*
X178389550Y-88114000D01*
X178389550Y-85114000D01*
X178304177Y-84684801D01*
X178061056Y-84320944D01*
X177697199Y-84077823D01*
X177268000Y-83992450D01*
X176626904Y-83992450D01*
X177240782Y-83738174D01*
X177972174Y-83006782D01*
X178368000Y-82051172D01*
X178368000Y-81016828D01*
X177972174Y-80061218D01*
X177240782Y-79329826D01*
X176430025Y-78994000D01*
X177240782Y-78658174D01*
X177972174Y-77926782D01*
X178368000Y-76971172D01*
X178368000Y-75936828D01*
X177972174Y-74981218D01*
X177240782Y-74249826D01*
X176430025Y-73914000D01*
X177240782Y-73578174D01*
X177972174Y-72846782D01*
X178368000Y-71891172D01*
X178368000Y-70856828D01*
X177972174Y-69901218D01*
X177240782Y-69169826D01*
X176285172Y-68774000D01*
X175250828Y-68774000D01*
X174295218Y-69169826D01*
X173941044Y-69524000D01*
X173664201Y-69524000D01*
X173635920Y-69518374D01*
X178217309Y-64936986D01*
X178371775Y-64833775D01*
X178780661Y-64221834D01*
X178888000Y-63682205D01*
X178888000Y-63682202D01*
X178924242Y-63500001D01*
X178888000Y-63317799D01*
X178888000Y-41330201D01*
X178924242Y-41148000D01*
X178888000Y-40965796D01*
X178888000Y-40965795D01*
X178780661Y-40426166D01*
X178371775Y-39814225D01*
X178217309Y-39711015D01*
X176442988Y-37936693D01*
X176413125Y-37892000D01*
X179786000Y-37892000D01*
X179786000Y-94838250D01*
X179786000Y-94838250D01*
G37*
X179786000Y-94838250D02*
X163192288Y-94838250D01*
X163314201Y-94814000D01*
X163314205Y-94814000D01*
X163853834Y-94706661D01*
X164465775Y-94297775D01*
X164568988Y-94143306D01*
X166787306Y-91924988D01*
X166941775Y-91821775D01*
X167350661Y-91209834D01*
X167458000Y-90670205D01*
X167458000Y-90670202D01*
X167494242Y-90488000D01*
X167458000Y-90305799D01*
X167458000Y-89149178D01*
X167586156Y-88957379D01*
X167749141Y-88138000D01*
X167586156Y-87318621D01*
X167285061Y-86868000D01*
X167586156Y-86417379D01*
X167749141Y-85598000D01*
X167611891Y-84908000D01*
X168445706Y-84908000D01*
X171331014Y-87793309D01*
X171434225Y-87947775D01*
X172046166Y-88356661D01*
X172585795Y-88464000D01*
X172585799Y-88464000D01*
X172767999Y-88500242D01*
X172950199Y-88464000D01*
X173216069Y-88464000D01*
X173231823Y-88543199D01*
X173474944Y-88907056D01*
X173838801Y-89150177D01*
X174268000Y-89235550D01*
X177268000Y-89235550D01*
X177697199Y-89150177D01*
X178061056Y-88907056D01*
X178304177Y-88543199D01*
X178389550Y-88114000D01*
X178389550Y-85114000D01*
X178304177Y-84684801D01*
X178061056Y-84320944D01*
X177697199Y-84077823D01*
X177268000Y-83992450D01*
X176626904Y-83992450D01*
X177240782Y-83738174D01*
X177972174Y-83006782D01*
X178368000Y-82051172D01*
X178368000Y-81016828D01*
X177972174Y-80061218D01*
X177240782Y-79329826D01*
X176430025Y-78994000D01*
X177240782Y-78658174D01*
X177972174Y-77926782D01*
X178368000Y-76971172D01*
X178368000Y-75936828D01*
X177972174Y-74981218D01*
X177240782Y-74249826D01*
X176430025Y-73914000D01*
X177240782Y-73578174D01*
X177972174Y-72846782D01*
X178368000Y-71891172D01*
X178368000Y-70856828D01*
X177972174Y-69901218D01*
X177240782Y-69169826D01*
X176285172Y-68774000D01*
X175250828Y-68774000D01*
X174295218Y-69169826D01*
X173941044Y-69524000D01*
X173664201Y-69524000D01*
X173635920Y-69518374D01*
X178217309Y-64936986D01*
X178371775Y-64833775D01*
X178780661Y-64221834D01*
X178888000Y-63682205D01*
X178888000Y-63682202D01*
X178924242Y-63500001D01*
X178888000Y-63317799D01*
X178888000Y-41330201D01*
X178924242Y-41148000D01*
X178888000Y-40965796D01*
X178888000Y-40965795D01*
X178780661Y-40426166D01*
X178371775Y-39814225D01*
X178217309Y-39711015D01*
X176442988Y-37936693D01*
X176413125Y-37892000D01*
X179786000Y-37892000D01*
X179786000Y-94838250D01*
G36*
X117379180Y-94575098D02*
X117227121Y-94605344D01*
X117206500Y-94619123D01*
X117206500Y-94550926D01*
X117215202Y-94507176D01*
X117379180Y-94575098D01*
X117379180Y-94575098D01*
G37*
X117379180Y-94575098D02*
X117227121Y-94605344D01*
X117206500Y-94619123D01*
X117206500Y-94550926D01*
X117215202Y-94507176D01*
X117379180Y-94575098D01*
G36*
X99654837Y-91645000D02*
X98719426Y-91645000D01*
X98551999Y-91611697D01*
X98384573Y-91645000D01*
X98384570Y-91645000D01*
X97888693Y-91743636D01*
X97326369Y-92119369D01*
X97231527Y-92261310D01*
X95830000Y-93662838D01*
X95830000Y-87820162D01*
X99654837Y-91645000D01*
X99654837Y-91645000D01*
G37*
X99654837Y-91645000D02*
X98719426Y-91645000D01*
X98551999Y-91611697D01*
X98384573Y-91645000D01*
X98384570Y-91645000D01*
X97888693Y-91743636D01*
X97326369Y-92119369D01*
X97231527Y-92261310D01*
X95830000Y-93662838D01*
X95830000Y-87820162D01*
X99654837Y-91645000D01*
G36*
X148522000Y-92546284D02*
X148522000Y-93150000D01*
X148172284Y-93150000D01*
X147896000Y-93264441D01*
X147896000Y-92800284D01*
X147721084Y-92378000D01*
X148591706Y-92378000D01*
X148522000Y-92546284D01*
X148522000Y-92546284D01*
G37*
X148522000Y-92546284D02*
X148522000Y-93150000D01*
X148172284Y-93150000D01*
X147896000Y-93264441D01*
X147896000Y-92800284D01*
X147721084Y-92378000D01*
X148591706Y-92378000D01*
X148522000Y-92546284D01*
G36*
X119879500Y-91255652D02*
X119553554Y-90929706D01*
X118781716Y-90610000D01*
X118668163Y-90610000D01*
X117242748Y-89184586D01*
X117946284Y-89476000D01*
X118781716Y-89476000D01*
X119553554Y-89156294D01*
X119879500Y-88830348D01*
X119879500Y-91255652D01*
X119879500Y-91255652D01*
G37*
X119879500Y-91255652D02*
X119553554Y-90929706D01*
X118781716Y-90610000D01*
X118668163Y-90610000D01*
X117242748Y-89184586D01*
X117946284Y-89476000D01*
X118781716Y-89476000D01*
X119553554Y-89156294D01*
X119879500Y-88830348D01*
X119879500Y-91255652D01*
G36*
X162091383Y-87341206D02*
X162863221Y-87660912D01*
X163561758Y-87660912D01*
X163466859Y-88138000D01*
X163629844Y-88957379D01*
X163758000Y-89149179D01*
X163758001Y-89721705D01*
X162365706Y-91114000D01*
X157162162Y-91114000D01*
X161513170Y-86762993D01*
X162091383Y-87341206D01*
X162091383Y-87341206D01*
G37*
X162091383Y-87341206D02*
X162863221Y-87660912D01*
X163561758Y-87660912D01*
X163466859Y-88138000D01*
X163629844Y-88957379D01*
X163758000Y-89149179D01*
X163758001Y-89721705D01*
X162365706Y-91114000D01*
X157162162Y-91114000D01*
X161513170Y-86762993D01*
X162091383Y-87341206D01*
G36*
X128835551Y-87241372D02*
X128835550Y-90871388D01*
X126905999Y-88941837D01*
X126905999Y-88543425D01*
X126939302Y-88375998D01*
X126905999Y-88208570D01*
X126905999Y-88208569D01*
X126807363Y-87712692D01*
X126431630Y-87150368D01*
X126306000Y-87066425D01*
X126306000Y-86958284D01*
X125986294Y-86186446D01*
X125395554Y-85595706D01*
X124623716Y-85276000D01*
X123788284Y-85276000D01*
X123579500Y-85362481D01*
X123579500Y-82364000D01*
X123958180Y-82364000D01*
X128835551Y-87241372D01*
X128835551Y-87241372D01*
G37*
X128835551Y-87241372D02*
X128835550Y-90871388D01*
X126905999Y-88941837D01*
X126905999Y-88543425D01*
X126939302Y-88375998D01*
X126905999Y-88208570D01*
X126905999Y-88208569D01*
X126807363Y-87712692D01*
X126431630Y-87150368D01*
X126306000Y-87066425D01*
X126306000Y-86958284D01*
X125986294Y-86186446D01*
X125395554Y-85595706D01*
X124623716Y-85276000D01*
X123788284Y-85276000D01*
X123579500Y-85362481D01*
X123579500Y-82364000D01*
X123958180Y-82364000D01*
X128835551Y-87241372D01*
G36*
X134964692Y-83377386D02*
X135227165Y-83639859D01*
X135334244Y-84178179D01*
X135612401Y-84594469D01*
X135612400Y-86090970D01*
X135612400Y-86370374D01*
X135579097Y-86537800D01*
X135612400Y-86705226D01*
X135612400Y-86705229D01*
X135711036Y-87201106D01*
X136086769Y-87763431D01*
X136228713Y-87858275D01*
X137744527Y-89374090D01*
X137839369Y-89516031D01*
X138232953Y-89779016D01*
X138024308Y-90282729D01*
X137311631Y-90859658D01*
X137167214Y-90511006D01*
X136576474Y-89920266D01*
X135804636Y-89600560D01*
X135408240Y-89600560D01*
X134850000Y-89042320D01*
X134850000Y-83300751D01*
X134964692Y-83377386D01*
X134964692Y-83377386D01*
G37*
X134964692Y-83377386D02*
X135227165Y-83639859D01*
X135334244Y-84178179D01*
X135612401Y-84594469D01*
X135612400Y-86090970D01*
X135612400Y-86370374D01*
X135579097Y-86537800D01*
X135612400Y-86705226D01*
X135612400Y-86705229D01*
X135711036Y-87201106D01*
X136086769Y-87763431D01*
X136228713Y-87858275D01*
X137744527Y-89374090D01*
X137839369Y-89516031D01*
X138232953Y-89779016D01*
X138024308Y-90282729D01*
X137311631Y-90859658D01*
X137167214Y-90511006D01*
X136576474Y-89920266D01*
X135804636Y-89600560D01*
X135408240Y-89600560D01*
X134850000Y-89042320D01*
X134850000Y-83300751D01*
X134964692Y-83377386D01*
G36*
X123604635Y-90309305D02*
X123805553Y-90610000D01*
X123788284Y-90610000D01*
X123579500Y-90696481D01*
X123579500Y-90182942D01*
X123604635Y-90309305D01*
X123604635Y-90309305D01*
G37*
X123604635Y-90309305D02*
X123805553Y-90610000D01*
X123788284Y-90610000D01*
X123579500Y-90696481D01*
X123579500Y-90182942D01*
X123604635Y-90309305D01*
G36*
X148172284Y-88714000D02*
X148427259Y-88714000D01*
X148691259Y-88978000D01*
X147896000Y-88978000D01*
X147896000Y-88599559D01*
X148172284Y-88714000D01*
X148172284Y-88714000D01*
G37*
X148172284Y-88714000D02*
X148427259Y-88714000D01*
X148691259Y-88978000D01*
X147896000Y-88978000D01*
X147896000Y-88599559D01*
X148172284Y-88714000D01*
G36*
X143696000Y-88646839D02*
X143476581Y-88427420D01*
X143556554Y-88394294D01*
X143696000Y-88254848D01*
X143696000Y-88646839D01*
X143696000Y-88646839D01*
G37*
X143696000Y-88646839D02*
X143476581Y-88427420D01*
X143556554Y-88394294D01*
X143696000Y-88254848D01*
X143696000Y-88646839D01*
G36*
X155020446Y-87632294D02*
X155596807Y-87871031D01*
X154979443Y-88488395D01*
X155049141Y-88138000D01*
X154930697Y-87542545D01*
X155020446Y-87632294D01*
X155020446Y-87632294D01*
G37*
X155020446Y-87632294D02*
X155596807Y-87871031D01*
X154979443Y-88488395D01*
X155049141Y-88138000D01*
X154930697Y-87542545D01*
X155020446Y-87632294D01*
G36*
X139033022Y-85336956D02*
X139852400Y-85499941D01*
X140667000Y-85337907D01*
X140667000Y-85344152D01*
X140586706Y-85424446D01*
X140267000Y-86196284D01*
X140267000Y-86590400D01*
X139769163Y-86590400D01*
X139012400Y-85833638D01*
X139012400Y-85323177D01*
X139033022Y-85336956D01*
X139033022Y-85336956D01*
G37*
X139033022Y-85336956D02*
X139852400Y-85499941D01*
X140667000Y-85337907D01*
X140667000Y-85344152D01*
X140586706Y-85424446D01*
X140267000Y-86196284D01*
X140267000Y-86590400D01*
X139769163Y-86590400D01*
X139012400Y-85833638D01*
X139012400Y-85323177D01*
X139033022Y-85336956D01*
G36*
X119879501Y-85921653D02*
X119553554Y-85595706D01*
X119374747Y-85521641D01*
X119560515Y-85397515D01*
X119879501Y-84920119D01*
X119879501Y-85921653D01*
X119879501Y-85921653D01*
G37*
X119879501Y-85921653D02*
X119553554Y-85595706D01*
X119374747Y-85521641D01*
X119560515Y-85397515D01*
X119879501Y-84920119D01*
X119879501Y-85921653D01*
G36*
X98566501Y-85119170D02*
X98566501Y-85748339D01*
X98474000Y-85655838D01*
X98474000Y-84980733D01*
X98566501Y-85119170D01*
X98566501Y-85119170D01*
G37*
X98566501Y-85119170D02*
X98566501Y-85748339D01*
X98474000Y-85655838D01*
X98474000Y-84980733D01*
X98566501Y-85119170D01*
G36*
X109329267Y-85676000D02*
X108983733Y-85676000D01*
X109156500Y-85560561D01*
X109329267Y-85676000D01*
X109329267Y-85676000D01*
G37*
X109329267Y-85676000D02*
X108983733Y-85676000D01*
X109156500Y-85560561D01*
X109329267Y-85676000D01*
G36*
X116949267Y-85676000D02*
X116603733Y-85676000D01*
X116776500Y-85560561D01*
X116949267Y-85676000D01*
X116949267Y-85676000D01*
G37*
X116949267Y-85676000D02*
X116603733Y-85676000D01*
X116776500Y-85560561D01*
X116949267Y-85676000D01*
G36*
X114409267Y-85676000D02*
X114063733Y-85676000D01*
X114236500Y-85560561D01*
X114409267Y-85676000D01*
X114409267Y-85676000D01*
G37*
X114409267Y-85676000D02*
X114063733Y-85676000D01*
X114236500Y-85560561D01*
X114409267Y-85676000D01*
G36*
X111869267Y-85676000D02*
X111523733Y-85676000D01*
X111696500Y-85560561D01*
X111869267Y-85676000D01*
X111869267Y-85676000D01*
G37*
X111869267Y-85676000D02*
X111523733Y-85676000D01*
X111696500Y-85560561D01*
X111869267Y-85676000D01*
G36*
X144096000Y-85373152D02*
X144067000Y-85344152D01*
X144067000Y-84632482D01*
X144096000Y-84589080D01*
X144096000Y-85373152D01*
X144096000Y-85373152D01*
G37*
X144096000Y-85373152D02*
X144067000Y-85344152D01*
X144067000Y-84632482D01*
X144096000Y-84589080D01*
X144096000Y-85373152D01*
G36*
X157812000Y-72332163D02*
X157812001Y-80518151D01*
X157731706Y-80598446D01*
X157412000Y-81370284D01*
X157412000Y-82205716D01*
X157731706Y-82977554D01*
X158322446Y-83568294D01*
X159094284Y-83888000D01*
X159579837Y-83888000D01*
X158229031Y-85238807D01*
X157990294Y-84662446D01*
X157399554Y-84071706D01*
X156627716Y-83752000D01*
X155792284Y-83752000D01*
X155020446Y-84071706D01*
X154840152Y-84252000D01*
X154635842Y-84252000D01*
X154886156Y-83877379D01*
X155049141Y-83058000D01*
X154886156Y-82238621D01*
X154758000Y-82046822D01*
X154758000Y-81529178D01*
X154886156Y-81337379D01*
X155049141Y-80518000D01*
X154886156Y-79698621D01*
X154585061Y-79248000D01*
X154886156Y-78797379D01*
X155049141Y-77978000D01*
X154886156Y-77158621D01*
X154585061Y-76708000D01*
X154886156Y-76257379D01*
X155049141Y-75438000D01*
X154886156Y-74618621D01*
X154585061Y-74168000D01*
X154886156Y-73717379D01*
X155049141Y-72898000D01*
X154886156Y-72078621D01*
X154585061Y-71628000D01*
X154886156Y-71177379D01*
X155049141Y-70358000D01*
X154886156Y-69538621D01*
X154619742Y-69139904D01*
X157812000Y-72332163D01*
X157812000Y-72332163D01*
G37*
X157812000Y-72332163D02*
X157812001Y-80518151D01*
X157731706Y-80598446D01*
X157412000Y-81370284D01*
X157412000Y-82205716D01*
X157731706Y-82977554D01*
X158322446Y-83568294D01*
X159094284Y-83888000D01*
X159579837Y-83888000D01*
X158229031Y-85238807D01*
X157990294Y-84662446D01*
X157399554Y-84071706D01*
X156627716Y-83752000D01*
X155792284Y-83752000D01*
X155020446Y-84071706D01*
X154840152Y-84252000D01*
X154635842Y-84252000D01*
X154886156Y-83877379D01*
X155049141Y-83058000D01*
X154886156Y-82238621D01*
X154758000Y-82046822D01*
X154758000Y-81529178D01*
X154886156Y-81337379D01*
X155049141Y-80518000D01*
X154886156Y-79698621D01*
X154585061Y-79248000D01*
X154886156Y-78797379D01*
X155049141Y-77978000D01*
X154886156Y-77158621D01*
X154585061Y-76708000D01*
X154886156Y-76257379D01*
X155049141Y-75438000D01*
X154886156Y-74618621D01*
X154585061Y-74168000D01*
X154886156Y-73717379D01*
X155049141Y-72898000D01*
X154886156Y-72078621D01*
X154585061Y-71628000D01*
X154886156Y-71177379D01*
X155049141Y-70358000D01*
X154886156Y-69538621D01*
X154619742Y-69139904D01*
X157812000Y-72332163D01*
G36*
X148516980Y-76693141D02*
X148516979Y-83446009D01*
X148436685Y-83526303D01*
X148116979Y-84298141D01*
X148116979Y-84536908D01*
X147496000Y-84794126D01*
X147496000Y-84524162D01*
X147641687Y-84378475D01*
X147783631Y-84283631D01*
X148159364Y-83721307D01*
X148199147Y-83521304D01*
X148291304Y-83058000D01*
X148258000Y-82890570D01*
X148258000Y-76707848D01*
X148338294Y-76627554D01*
X148371420Y-76547581D01*
X148516980Y-76693141D01*
X148516980Y-76693141D01*
G37*
X148516980Y-76693141D02*
X148516979Y-83446009D01*
X148436685Y-83526303D01*
X148116979Y-84298141D01*
X148116979Y-84536908D01*
X147496000Y-84794126D01*
X147496000Y-84524162D01*
X147641687Y-84378475D01*
X147783631Y-84283631D01*
X148159364Y-83721307D01*
X148199147Y-83521304D01*
X148291304Y-83058000D01*
X148258000Y-82890570D01*
X148258000Y-76707848D01*
X148338294Y-76627554D01*
X148371420Y-76547581D01*
X148516980Y-76693141D01*
G36*
X174295218Y-83738174D02*
X174909096Y-83992450D01*
X174268000Y-83992450D01*
X173838801Y-84077823D01*
X173474944Y-84320944D01*
X173321253Y-84550959D01*
X172185207Y-83414913D01*
X172212000Y-83420242D01*
X172394201Y-83384000D01*
X173941044Y-83384000D01*
X174295218Y-83738174D01*
X174295218Y-83738174D01*
G37*
X174295218Y-83738174D02*
X174909096Y-83992450D01*
X174268000Y-83992450D01*
X173838801Y-84077823D01*
X173474944Y-84320944D01*
X173321253Y-84550959D01*
X172185207Y-83414913D01*
X172212000Y-83420242D01*
X172394201Y-83384000D01*
X173941044Y-83384000D01*
X174295218Y-83738174D01*
G36*
X119879501Y-82846881D02*
X119746500Y-82647831D01*
X119746500Y-82050926D01*
X119779803Y-81883499D01*
X119746500Y-81716073D01*
X119746500Y-81716070D01*
X119647864Y-81220193D01*
X119272131Y-80657869D01*
X119130190Y-80563027D01*
X117887162Y-79320000D01*
X119879501Y-79320000D01*
X119879501Y-82846881D01*
X119879501Y-82846881D01*
G37*
X119879501Y-82846881D02*
X119746500Y-82647831D01*
X119746500Y-82050926D01*
X119779803Y-81883499D01*
X119746500Y-81716073D01*
X119746500Y-81716070D01*
X119647864Y-81220193D01*
X119272131Y-80657869D01*
X119130190Y-80563027D01*
X117887162Y-79320000D01*
X119879501Y-79320000D01*
X119879501Y-82846881D01*
G36*
X100381218Y-79674174D02*
X101336828Y-80070000D01*
X102371172Y-80070000D01*
X103326782Y-79674174D01*
X103680956Y-79320000D01*
X111042784Y-79320000D01*
X110930000Y-79592284D01*
X110930000Y-80427716D01*
X111249706Y-81199554D01*
X111840446Y-81790294D01*
X112136054Y-81912739D01*
X111696500Y-82206439D01*
X111245879Y-81905344D01*
X110633329Y-81783500D01*
X110219671Y-81783500D01*
X109607121Y-81905344D01*
X109156500Y-82206439D01*
X108705879Y-81905344D01*
X108093329Y-81783500D01*
X107679671Y-81783500D01*
X107067121Y-81905344D01*
X106875322Y-82033500D01*
X106357678Y-82033500D01*
X106165879Y-81905344D01*
X105553329Y-81783500D01*
X105139671Y-81783500D01*
X104527121Y-81905344D01*
X104076500Y-82206439D01*
X103625879Y-81905344D01*
X103013329Y-81783500D01*
X102599671Y-81783500D01*
X101987121Y-81905344D01*
X101536500Y-82206439D01*
X101085879Y-81905344D01*
X100473329Y-81783500D01*
X100059671Y-81783500D01*
X99447121Y-81905344D01*
X98752485Y-82369485D01*
X98474000Y-82786267D01*
X98474000Y-79669430D01*
X98507304Y-79502000D01*
X98471102Y-79320000D01*
X100027044Y-79320000D01*
X100381218Y-79674174D01*
X100381218Y-79674174D01*
G37*
X100381218Y-79674174D02*
X101336828Y-80070000D01*
X102371172Y-80070000D01*
X103326782Y-79674174D01*
X103680956Y-79320000D01*
X111042784Y-79320000D01*
X110930000Y-79592284D01*
X110930000Y-80427716D01*
X111249706Y-81199554D01*
X111840446Y-81790294D01*
X112136054Y-81912739D01*
X111696500Y-82206439D01*
X111245879Y-81905344D01*
X110633329Y-81783500D01*
X110219671Y-81783500D01*
X109607121Y-81905344D01*
X109156500Y-82206439D01*
X108705879Y-81905344D01*
X108093329Y-81783500D01*
X107679671Y-81783500D01*
X107067121Y-81905344D01*
X106875322Y-82033500D01*
X106357678Y-82033500D01*
X106165879Y-81905344D01*
X105553329Y-81783500D01*
X105139671Y-81783500D01*
X104527121Y-81905344D01*
X104076500Y-82206439D01*
X103625879Y-81905344D01*
X103013329Y-81783500D01*
X102599671Y-81783500D01*
X101987121Y-81905344D01*
X101536500Y-82206439D01*
X101085879Y-81905344D01*
X100473329Y-81783500D01*
X100059671Y-81783500D01*
X99447121Y-81905344D01*
X98752485Y-82369485D01*
X98474000Y-82786267D01*
X98474000Y-79669430D01*
X98507304Y-79502000D01*
X98471102Y-79320000D01*
X100027044Y-79320000D01*
X100381218Y-79674174D01*
G36*
X131250000Y-79411716D02*
X131569706Y-80183554D01*
X131850001Y-80463849D01*
X131850001Y-82702680D01*
X128846000Y-79698680D01*
X128846000Y-79320000D01*
X129865799Y-79320000D01*
X130048000Y-79356242D01*
X130230201Y-79320000D01*
X130230205Y-79320000D01*
X130769834Y-79212661D01*
X131250000Y-78891824D01*
X131250000Y-79411716D01*
X131250000Y-79411716D01*
G37*
X131250000Y-79411716D02*
X131569706Y-80183554D01*
X131850001Y-80463849D01*
X131850001Y-82702680D01*
X128846000Y-79698680D01*
X128846000Y-79320000D01*
X129865799Y-79320000D01*
X130048000Y-79356242D01*
X130230201Y-79320000D01*
X130230205Y-79320000D01*
X130769834Y-79212661D01*
X131250000Y-78891824D01*
X131250000Y-79411716D01*
G36*
X115542338Y-81783500D02*
X115299671Y-81783500D01*
X114687121Y-81905344D01*
X114236500Y-82206439D01*
X113845547Y-81945213D01*
X114219554Y-81790294D01*
X114299848Y-81710000D01*
X115468838Y-81710000D01*
X115542338Y-81783500D01*
X115542338Y-81783500D01*
G37*
X115542338Y-81783500D02*
X115299671Y-81783500D01*
X114687121Y-81905344D01*
X114236500Y-82206439D01*
X113845547Y-81945213D01*
X114219554Y-81790294D01*
X114299848Y-81710000D01*
X115468838Y-81710000D01*
X115542338Y-81783500D01*
G36*
X174295218Y-78658174D02*
X175105975Y-78994000D01*
X174295218Y-79329826D01*
X173941044Y-79684000D01*
X172978294Y-79684000D01*
X172946686Y-79652392D01*
X173456455Y-79311775D01*
X173559667Y-79157307D01*
X174177009Y-78539965D01*
X174295218Y-78658174D01*
X174295218Y-78658174D01*
G37*
X174295218Y-78658174D02*
X175105975Y-78994000D01*
X174295218Y-79329826D01*
X173941044Y-79684000D01*
X172978294Y-79684000D01*
X172946686Y-79652392D01*
X173456455Y-79311775D01*
X173559667Y-79157307D01*
X174177009Y-78539965D01*
X174295218Y-78658174D01*
G36*
X137796548Y-76530602D02*
X137758345Y-76556128D01*
X137630017Y-76364071D01*
X137796548Y-76530602D01*
X137796548Y-76530602D01*
G37*
X137796548Y-76530602D02*
X137758345Y-76556128D01*
X137630017Y-76364071D01*
X137796548Y-76530602D01*
G36*
X172209694Y-75274691D02*
X171356386Y-76128000D01*
X171344294Y-76128000D01*
X172234041Y-75238254D01*
X172209694Y-75274691D01*
X172209694Y-75274691D01*
G37*
X172209694Y-75274691D02*
X171356386Y-76128000D01*
X171344294Y-76128000D01*
X172234041Y-75238254D01*
X172209694Y-75274691D01*
G36*
X136512379Y-72471280D02*
X136675364Y-73290659D01*
X136803520Y-73482459D01*
X136803521Y-74589074D01*
X136767278Y-74771280D01*
X136910859Y-75493113D01*
X137147524Y-75847307D01*
X137167506Y-75877212D01*
X136310988Y-75020694D01*
X136207775Y-74866225D01*
X136053306Y-74763012D01*
X135802987Y-74512693D01*
X135802985Y-74512690D01*
X135548986Y-74258691D01*
X135445775Y-74104225D01*
X135291308Y-74001014D01*
X134946000Y-73655706D01*
X134946000Y-71942427D01*
X134964284Y-71950000D01*
X135799716Y-71950000D01*
X136403269Y-71700000D01*
X136665796Y-71700000D01*
X136512379Y-72471280D01*
X136512379Y-72471280D01*
G37*
X136512379Y-72471280D02*
X136675364Y-73290659D01*
X136803520Y-73482459D01*
X136803521Y-74589074D01*
X136767278Y-74771280D01*
X136910859Y-75493113D01*
X137147524Y-75847307D01*
X137167506Y-75877212D01*
X136310988Y-75020694D01*
X136207775Y-74866225D01*
X136053306Y-74763012D01*
X135802987Y-74512693D01*
X135802985Y-74512690D01*
X135548986Y-74258691D01*
X135445775Y-74104225D01*
X135291308Y-74001014D01*
X134946000Y-73655706D01*
X134946000Y-71942427D01*
X134964284Y-71950000D01*
X135799716Y-71950000D01*
X136403269Y-71700000D01*
X136665796Y-71700000D01*
X136512379Y-72471280D01*
G36*
X98288344Y-67240379D02*
X98752485Y-67935015D01*
X99447121Y-68399156D01*
X99502529Y-68410177D01*
X99500000Y-68416284D01*
X99500000Y-69251716D01*
X99750000Y-69855270D01*
X99750000Y-69970621D01*
X99560944Y-70096944D01*
X99317823Y-70460801D01*
X99232450Y-70890000D01*
X99232450Y-73890000D01*
X99317823Y-74319199D01*
X99560944Y-74683056D01*
X99924801Y-74926177D01*
X100354000Y-75011550D01*
X100995096Y-75011550D01*
X100381218Y-75265826D01*
X100027044Y-75620000D01*
X98431835Y-75620000D01*
X98253160Y-75441326D01*
X98253160Y-67063498D01*
X98288344Y-67240379D01*
X98288344Y-67240379D01*
G37*
X98288344Y-67240379D02*
X98752485Y-67935015D01*
X99447121Y-68399156D01*
X99502529Y-68410177D01*
X99500000Y-68416284D01*
X99500000Y-69251716D01*
X99750000Y-69855270D01*
X99750000Y-69970621D01*
X99560944Y-70096944D01*
X99317823Y-70460801D01*
X99232450Y-70890000D01*
X99232450Y-73890000D01*
X99317823Y-74319199D01*
X99560944Y-74683056D01*
X99924801Y-74926177D01*
X100354000Y-75011550D01*
X100995096Y-75011550D01*
X100381218Y-75265826D01*
X100027044Y-75620000D01*
X98431835Y-75620000D01*
X98253160Y-75441326D01*
X98253160Y-67063498D01*
X98288344Y-67240379D01*
G36*
X117026000Y-75488163D02*
X117026000Y-75601716D01*
X117033573Y-75620000D01*
X115122427Y-75620000D01*
X115130000Y-75601716D01*
X115130000Y-74766284D01*
X114810294Y-73994446D01*
X114730000Y-73914152D01*
X114730000Y-73192162D01*
X117026000Y-75488163D01*
X117026000Y-75488163D01*
G37*
X117026000Y-75488163D02*
X117026000Y-75601716D01*
X117033573Y-75620000D01*
X115122427Y-75620000D01*
X115130000Y-75601716D01*
X115130000Y-74766284D01*
X114810294Y-73994446D01*
X114730000Y-73914152D01*
X114730000Y-73192162D01*
X117026000Y-75488163D01*
G36*
X109607121Y-68399156D02*
X110219671Y-68521000D01*
X110633329Y-68521000D01*
X111245879Y-68399156D01*
X111437678Y-68271000D01*
X111639152Y-68271000D01*
X111249706Y-68660446D01*
X110930000Y-69432284D01*
X110930000Y-70267716D01*
X111249706Y-71039554D01*
X111330000Y-71119848D01*
X111330001Y-73914151D01*
X111249706Y-73994446D01*
X110930000Y-74766284D01*
X110930000Y-75601716D01*
X110937573Y-75620000D01*
X103680956Y-75620000D01*
X103326782Y-75265826D01*
X102712904Y-75011550D01*
X103354000Y-75011550D01*
X103783199Y-74926177D01*
X104147056Y-74683056D01*
X104390177Y-74319199D01*
X104475550Y-73890000D01*
X104475550Y-70890000D01*
X104390177Y-70460801D01*
X104147056Y-70096944D01*
X103783199Y-69853823D01*
X103475917Y-69792701D01*
X103700000Y-69251716D01*
X103700000Y-68416284D01*
X103678376Y-68364079D01*
X104076500Y-68098061D01*
X104527121Y-68399156D01*
X105139671Y-68521000D01*
X105553329Y-68521000D01*
X106165879Y-68399156D01*
X106616500Y-68098061D01*
X107067121Y-68399156D01*
X107679671Y-68521000D01*
X108093329Y-68521000D01*
X108705879Y-68399156D01*
X109156500Y-68098061D01*
X109607121Y-68399156D01*
X109607121Y-68399156D01*
G37*
X109607121Y-68399156D02*
X110219671Y-68521000D01*
X110633329Y-68521000D01*
X111245879Y-68399156D01*
X111437678Y-68271000D01*
X111639152Y-68271000D01*
X111249706Y-68660446D01*
X110930000Y-69432284D01*
X110930000Y-70267716D01*
X111249706Y-71039554D01*
X111330000Y-71119848D01*
X111330001Y-73914151D01*
X111249706Y-73994446D01*
X110930000Y-74766284D01*
X110930000Y-75601716D01*
X110937573Y-75620000D01*
X103680956Y-75620000D01*
X103326782Y-75265826D01*
X102712904Y-75011550D01*
X103354000Y-75011550D01*
X103783199Y-74926177D01*
X104147056Y-74683056D01*
X104390177Y-74319199D01*
X104475550Y-73890000D01*
X104475550Y-70890000D01*
X104390177Y-70460801D01*
X104147056Y-70096944D01*
X103783199Y-69853823D01*
X103475917Y-69792701D01*
X103700000Y-69251716D01*
X103700000Y-68416284D01*
X103678376Y-68364079D01*
X104076500Y-68098061D01*
X104527121Y-68399156D01*
X105139671Y-68521000D01*
X105553329Y-68521000D01*
X106165879Y-68399156D01*
X106616500Y-68098061D01*
X107067121Y-68399156D01*
X107679671Y-68521000D01*
X108093329Y-68521000D01*
X108705879Y-68399156D01*
X109156500Y-68098061D01*
X109607121Y-68399156D01*
G36*
X174295218Y-73578174D02*
X175105975Y-73914000D01*
X174295218Y-74249826D01*
X173941044Y-74604000D01*
X173828879Y-74604000D01*
X173646679Y-74567758D01*
X173464479Y-74604000D01*
X173464475Y-74604000D01*
X172924846Y-74711339D01*
X172430934Y-75041361D01*
X174094669Y-73377625D01*
X174295218Y-73578174D01*
X174295218Y-73578174D01*
G37*
X174295218Y-73578174D02*
X175105975Y-73914000D01*
X174295218Y-74249826D01*
X173941044Y-74604000D01*
X173828879Y-74604000D01*
X173646679Y-74567758D01*
X173464479Y-74604000D01*
X173464475Y-74604000D01*
X172924846Y-74711339D01*
X172430934Y-75041361D01*
X174094669Y-73377625D01*
X174295218Y-73578174D01*
G36*
X150929844Y-72078621D02*
X150766859Y-72898000D01*
X150929844Y-73717379D01*
X151230939Y-74168000D01*
X151058395Y-74426230D01*
X149090164Y-72458000D01*
X149261716Y-72458000D01*
X150033554Y-72138294D01*
X150213848Y-71958000D01*
X151010440Y-71958000D01*
X150929844Y-72078621D01*
X150929844Y-72078621D01*
G37*
X150929844Y-72078621D02*
X150766859Y-72898000D01*
X150929844Y-73717379D01*
X151230939Y-74168000D01*
X151058395Y-74426230D01*
X149090164Y-72458000D01*
X149261716Y-72458000D01*
X150033554Y-72138294D01*
X150213848Y-71958000D01*
X151010440Y-71958000D01*
X150929844Y-72078621D01*
G36*
X131246000Y-73655706D02*
X130900694Y-74001012D01*
X130790174Y-74074859D01*
X130815382Y-73946676D01*
X130786000Y-73800623D01*
X130786000Y-72283729D01*
X130815385Y-72136000D01*
X130786000Y-71988271D01*
X130786000Y-71988267D01*
X130735253Y-71733144D01*
X130983554Y-71630294D01*
X131246000Y-71367848D01*
X131246000Y-73655706D01*
X131246000Y-73655706D01*
G37*
X131246000Y-73655706D02*
X130900694Y-74001012D01*
X130790174Y-74074859D01*
X130815382Y-73946676D01*
X130786000Y-73800623D01*
X130786000Y-72283729D01*
X130815385Y-72136000D01*
X130786000Y-71988271D01*
X130786000Y-71988267D01*
X130735253Y-71733144D01*
X130983554Y-71630294D01*
X131246000Y-71367848D01*
X131246000Y-73655706D01*
G36*
X123975364Y-58050659D02*
X124276459Y-58501280D01*
X123975364Y-58951901D01*
X123812379Y-59771280D01*
X123975364Y-60590659D01*
X124276459Y-61041280D01*
X123975364Y-61491901D01*
X123812379Y-62311280D01*
X123975364Y-63130659D01*
X124276459Y-63581280D01*
X123975364Y-64031901D01*
X123812379Y-64851280D01*
X123975364Y-65670659D01*
X124103520Y-65862459D01*
X124103521Y-66380101D01*
X123975364Y-66571901D01*
X123812379Y-67391280D01*
X123975364Y-68210659D01*
X124276459Y-68661280D01*
X123975364Y-69111901D01*
X123812379Y-69931280D01*
X123975364Y-70750659D01*
X124276459Y-71201280D01*
X123975364Y-71651901D01*
X123823355Y-72416098D01*
X123714834Y-72578512D01*
X123590656Y-73202800D01*
X123622001Y-73360382D01*
X123622001Y-73662153D01*
X123363554Y-73403706D01*
X122591716Y-73084000D01*
X122478163Y-73084000D01*
X121344163Y-71950000D01*
X121829716Y-71950000D01*
X122601554Y-71630294D01*
X123192294Y-71039554D01*
X123512000Y-70267716D01*
X123512000Y-69432284D01*
X123192294Y-68660446D01*
X123012000Y-68480152D01*
X123012000Y-58828741D01*
X123944624Y-57896118D01*
X123975364Y-58050659D01*
X123975364Y-58050659D01*
G37*
X123975364Y-58050659D02*
X124276459Y-58501280D01*
X123975364Y-58951901D01*
X123812379Y-59771280D01*
X123975364Y-60590659D01*
X124276459Y-61041280D01*
X123975364Y-61491901D01*
X123812379Y-62311280D01*
X123975364Y-63130659D01*
X124276459Y-63581280D01*
X123975364Y-64031901D01*
X123812379Y-64851280D01*
X123975364Y-65670659D01*
X124103520Y-65862459D01*
X124103521Y-66380101D01*
X123975364Y-66571901D01*
X123812379Y-67391280D01*
X123975364Y-68210659D01*
X124276459Y-68661280D01*
X123975364Y-69111901D01*
X123812379Y-69931280D01*
X123975364Y-70750659D01*
X124276459Y-71201280D01*
X123975364Y-71651901D01*
X123823355Y-72416098D01*
X123714834Y-72578512D01*
X123590656Y-73202800D01*
X123622001Y-73360382D01*
X123622001Y-73662153D01*
X123363554Y-73403706D01*
X122591716Y-73084000D01*
X122478163Y-73084000D01*
X121344163Y-71950000D01*
X121829716Y-71950000D01*
X122601554Y-71630294D01*
X123192294Y-71039554D01*
X123512000Y-70267716D01*
X123512000Y-69432284D01*
X123192294Y-68660446D01*
X123012000Y-68480152D01*
X123012000Y-58828741D01*
X123944624Y-57896118D01*
X123975364Y-58050659D01*
G36*
X175188001Y-62733704D02*
X167718375Y-70203331D01*
X167586156Y-69538621D01*
X167122015Y-68843985D01*
X166427379Y-68379844D01*
X165814829Y-68258000D01*
X165401171Y-68258000D01*
X164788621Y-68379844D01*
X164372331Y-68658000D01*
X163575426Y-68658000D01*
X163407999Y-68624697D01*
X163240573Y-68658000D01*
X163240570Y-68658000D01*
X162744693Y-68756636D01*
X162182369Y-69132369D01*
X162087525Y-69274313D01*
X161476313Y-69885525D01*
X161334369Y-69980369D01*
X160958636Y-70542694D01*
X160929446Y-70689441D01*
X160737631Y-70402369D01*
X160595690Y-70307527D01*
X156908162Y-66620000D01*
X160449119Y-66620000D01*
X160631320Y-66656242D01*
X160813521Y-66620000D01*
X160813525Y-66620000D01*
X161353154Y-66512661D01*
X161965095Y-66103775D01*
X162068308Y-65949306D01*
X167473964Y-60543651D01*
X167628430Y-60440440D01*
X167731662Y-60285942D01*
X169835309Y-58182296D01*
X169989775Y-58079085D01*
X170398661Y-57467144D01*
X170506000Y-56927515D01*
X170506000Y-56927512D01*
X170542242Y-56745311D01*
X170506000Y-56563109D01*
X170506000Y-56392294D01*
X173835809Y-53062486D01*
X173990275Y-52959275D01*
X174399161Y-52347334D01*
X174506500Y-51807705D01*
X174506500Y-51807701D01*
X174542742Y-51625501D01*
X174506500Y-51443301D01*
X174506500Y-45287431D01*
X174585699Y-45271677D01*
X174949556Y-45028556D01*
X175188000Y-44671698D01*
X175188001Y-62733704D01*
X175188001Y-62733704D01*
G37*
X175188001Y-62733704D02*
X167718375Y-70203331D01*
X167586156Y-69538621D01*
X167122015Y-68843985D01*
X166427379Y-68379844D01*
X165814829Y-68258000D01*
X165401171Y-68258000D01*
X164788621Y-68379844D01*
X164372331Y-68658000D01*
X163575426Y-68658000D01*
X163407999Y-68624697D01*
X163240573Y-68658000D01*
X163240570Y-68658000D01*
X162744693Y-68756636D01*
X162182369Y-69132369D01*
X162087525Y-69274313D01*
X161476313Y-69885525D01*
X161334369Y-69980369D01*
X160958636Y-70542694D01*
X160929446Y-70689441D01*
X160737631Y-70402369D01*
X160595690Y-70307527D01*
X156908162Y-66620000D01*
X160449119Y-66620000D01*
X160631320Y-66656242D01*
X160813521Y-66620000D01*
X160813525Y-66620000D01*
X161353154Y-66512661D01*
X161965095Y-66103775D01*
X162068308Y-65949306D01*
X167473964Y-60543651D01*
X167628430Y-60440440D01*
X167731662Y-60285942D01*
X169835309Y-58182296D01*
X169989775Y-58079085D01*
X170398661Y-57467144D01*
X170506000Y-56927515D01*
X170506000Y-56927512D01*
X170542242Y-56745311D01*
X170506000Y-56563109D01*
X170506000Y-56392294D01*
X173835809Y-53062486D01*
X173990275Y-52959275D01*
X174399161Y-52347334D01*
X174506500Y-51807705D01*
X174506500Y-51807701D01*
X174542742Y-51625501D01*
X174506500Y-51443301D01*
X174506500Y-45287431D01*
X174585699Y-45271677D01*
X174949556Y-45028556D01*
X175188000Y-44671698D01*
X175188001Y-62733704D01*
G36*
X146744000Y-69940284D02*
X146744000Y-70290000D01*
X146236162Y-70290000D01*
X146855809Y-69670353D01*
X146744000Y-69940284D01*
X146744000Y-69940284D01*
G37*
X146744000Y-69940284D02*
X146744000Y-70290000D01*
X146236162Y-70290000D01*
X146855809Y-69670353D01*
X146744000Y-69940284D01*
G36*
X127944001Y-68703698D02*
X127707726Y-68545824D01*
X127931676Y-68210659D01*
X127944001Y-68148698D01*
X127944001Y-68703698D01*
X127944001Y-68703698D01*
G37*
X127944001Y-68703698D02*
X127707726Y-68545824D01*
X127931676Y-68210659D01*
X127944001Y-68148698D01*
X127944001Y-68703698D01*
G36*
X119812001Y-68480151D02*
X119746500Y-68545652D01*
X119746500Y-67656669D01*
X119812001Y-67558640D01*
X119812001Y-68480151D01*
X119812001Y-68480151D01*
G37*
X119812001Y-68480151D02*
X119746500Y-68545652D01*
X119746500Y-67656669D01*
X119812001Y-67558640D01*
X119812001Y-68480151D01*
G36*
X136512379Y-57231280D02*
X136675364Y-58050659D01*
X136976459Y-58501280D01*
X136675364Y-58951901D01*
X136512379Y-59771280D01*
X136675364Y-60590659D01*
X136976459Y-61041280D01*
X136675364Y-61491901D01*
X136512379Y-62311280D01*
X136675364Y-63130659D01*
X136976459Y-63581280D01*
X136675364Y-64031901D01*
X136512379Y-64851280D01*
X136675364Y-65670659D01*
X136976459Y-66121280D01*
X136675364Y-66571901D01*
X136512379Y-67391280D01*
X136633461Y-68000000D01*
X136403269Y-68000000D01*
X135799716Y-67750000D01*
X134964284Y-67750000D01*
X134946000Y-67757573D01*
X134946000Y-58515094D01*
X136582541Y-56878554D01*
X136512379Y-57231280D01*
X136512379Y-57231280D01*
G37*
X136512379Y-57231280D02*
X136675364Y-58050659D01*
X136976459Y-58501280D01*
X136675364Y-58951901D01*
X136512379Y-59771280D01*
X136675364Y-60590659D01*
X136976459Y-61041280D01*
X136675364Y-61491901D01*
X136512379Y-62311280D01*
X136675364Y-63130659D01*
X136976459Y-63581280D01*
X136675364Y-64031901D01*
X136512379Y-64851280D01*
X136675364Y-65670659D01*
X136976459Y-66121280D01*
X136675364Y-66571901D01*
X136512379Y-67391280D01*
X136633461Y-68000000D01*
X136403269Y-68000000D01*
X135799716Y-67750000D01*
X134964284Y-67750000D01*
X134946000Y-67757573D01*
X134946000Y-58515094D01*
X136582541Y-56878554D01*
X136512379Y-57231280D01*
G36*
X127944001Y-66633862D02*
X127931676Y-66571901D01*
X127803520Y-66380102D01*
X127803520Y-65862458D01*
X127931676Y-65670659D01*
X127944001Y-65608699D01*
X127944001Y-66633862D01*
X127944001Y-66633862D01*
G37*
X127944001Y-66633862D02*
X127931676Y-66571901D01*
X127803520Y-66380102D01*
X127803520Y-65862458D01*
X127931676Y-65670659D01*
X127944001Y-65608699D01*
X127944001Y-66633862D01*
G36*
X101627191Y-57657985D02*
X103060514Y-59091309D01*
X103163725Y-59245775D01*
X103775666Y-59654661D01*
X104315295Y-59762000D01*
X104315298Y-59762000D01*
X104497499Y-59798242D01*
X104679701Y-59762000D01*
X114625799Y-59762000D01*
X114808000Y-59798242D01*
X114990201Y-59762000D01*
X114990205Y-59762000D01*
X115352769Y-59689881D01*
X114254302Y-61038000D01*
X101916930Y-61038000D01*
X101749500Y-61004696D01*
X101240995Y-61105844D01*
X101086193Y-61136636D01*
X100523869Y-61512369D01*
X100429027Y-61654310D01*
X99182813Y-62900525D01*
X99040869Y-62995369D01*
X98665136Y-63557694D01*
X98566500Y-64053571D01*
X98566500Y-64053574D01*
X98533197Y-64221000D01*
X98566500Y-64388427D01*
X98566500Y-65185331D01*
X98288344Y-65601621D01*
X98253160Y-65778502D01*
X98253160Y-60850634D01*
X101445812Y-57657983D01*
X101536500Y-57597388D01*
X101627191Y-57657985D01*
X101627191Y-57657985D01*
G37*
X101627191Y-57657985D02*
X103060514Y-59091309D01*
X103163725Y-59245775D01*
X103775666Y-59654661D01*
X104315295Y-59762000D01*
X104315298Y-59762000D01*
X104497499Y-59798242D01*
X104679701Y-59762000D01*
X114625799Y-59762000D01*
X114808000Y-59798242D01*
X114990201Y-59762000D01*
X114990205Y-59762000D01*
X115352769Y-59689881D01*
X114254302Y-61038000D01*
X101916930Y-61038000D01*
X101749500Y-61004696D01*
X101240995Y-61105844D01*
X101086193Y-61136636D01*
X100523869Y-61512369D01*
X100429027Y-61654310D01*
X99182813Y-62900525D01*
X99040869Y-62995369D01*
X98665136Y-63557694D01*
X98566500Y-64053571D01*
X98566500Y-64053574D01*
X98533197Y-64221000D01*
X98566500Y-64388427D01*
X98566500Y-65185331D01*
X98288344Y-65601621D01*
X98253160Y-65778502D01*
X98253160Y-60850634D01*
X101445812Y-57657983D01*
X101536500Y-57597388D01*
X101627191Y-57657985D01*
G36*
X119812001Y-65283360D02*
X119560515Y-64906985D01*
X118865879Y-64442844D01*
X118253329Y-64321000D01*
X117839671Y-64321000D01*
X117227121Y-64442844D01*
X116776500Y-64743939D01*
X116325879Y-64442844D01*
X115743738Y-64327049D01*
X115799335Y-64289900D01*
X115884440Y-64263757D01*
X116078394Y-64103439D01*
X116287631Y-63963631D01*
X116430761Y-63749422D01*
X119812000Y-59599720D01*
X119812001Y-65283360D01*
X119812001Y-65283360D01*
G37*
X119812001Y-65283360D02*
X119560515Y-64906985D01*
X118865879Y-64442844D01*
X118253329Y-64321000D01*
X117839671Y-64321000D01*
X117227121Y-64442844D01*
X116776500Y-64743939D01*
X116325879Y-64442844D01*
X115743738Y-64327049D01*
X115799335Y-64289900D01*
X115884440Y-64263757D01*
X116078394Y-64103439D01*
X116287631Y-63963631D01*
X116430761Y-63749422D01*
X119812000Y-59599720D01*
X119812001Y-65283360D01*
G36*
X104527121Y-64442844D02*
X104076500Y-64743939D01*
X103625879Y-64442844D01*
X103601527Y-64438000D01*
X104551473Y-64438000D01*
X104527121Y-64442844D01*
X104527121Y-64442844D01*
G37*
X104527121Y-64442844D02*
X104076500Y-64743939D01*
X103625879Y-64442844D01*
X103601527Y-64438000D01*
X104551473Y-64438000D01*
X104527121Y-64442844D01*
G36*
X107067121Y-64442844D02*
X106616500Y-64743939D01*
X106165879Y-64442844D01*
X106141527Y-64438000D01*
X107091473Y-64438000D01*
X107067121Y-64442844D01*
X107067121Y-64442844D01*
G37*
X107067121Y-64442844D02*
X106616500Y-64743939D01*
X106165879Y-64442844D01*
X106141527Y-64438000D01*
X107091473Y-64438000D01*
X107067121Y-64442844D01*
G36*
X109607121Y-64442844D02*
X109156500Y-64743939D01*
X108705879Y-64442844D01*
X108681527Y-64438000D01*
X109631473Y-64438000D01*
X109607121Y-64442844D01*
X109607121Y-64442844D01*
G37*
X109607121Y-64442844D02*
X109156500Y-64743939D01*
X108705879Y-64442844D01*
X108681527Y-64438000D01*
X109631473Y-64438000D01*
X109607121Y-64442844D01*
G36*
X114687121Y-64442844D02*
X114236500Y-64743939D01*
X113785879Y-64442844D01*
X113761527Y-64438000D01*
X114711473Y-64438000D01*
X114687121Y-64442844D01*
X114687121Y-64442844D01*
G37*
X114687121Y-64442844D02*
X114236500Y-64743939D01*
X113785879Y-64442844D01*
X113761527Y-64438000D01*
X114711473Y-64438000D01*
X114687121Y-64442844D01*
G36*
X112147121Y-64442844D02*
X111955322Y-64571000D01*
X111437678Y-64571000D01*
X111245879Y-64442844D01*
X111221527Y-64438000D01*
X112171473Y-64438000D01*
X112147121Y-64442844D01*
X112147121Y-64442844D01*
G37*
X112147121Y-64442844D02*
X111955322Y-64571000D01*
X111437678Y-64571000D01*
X111245879Y-64442844D01*
X111221527Y-64438000D01*
X112171473Y-64438000D01*
X112147121Y-64442844D01*
G36*
X127944001Y-64093861D02*
X127931676Y-64031901D01*
X127630581Y-63581280D01*
X127931676Y-63130659D01*
X127944000Y-63068700D01*
X127944001Y-64093861D01*
X127944001Y-64093861D01*
G37*
X127944001Y-64093861D02*
X127931676Y-64031901D01*
X127630581Y-63581280D01*
X127931676Y-63130659D01*
X127944000Y-63068700D01*
X127944001Y-64093861D01*
G36*
X127944000Y-61553860D02*
X127931676Y-61491901D01*
X127630581Y-61041280D01*
X127931676Y-60590659D01*
X127944000Y-60528701D01*
X127944000Y-61553860D01*
X127944000Y-61553860D01*
G37*
X127944000Y-61553860D02*
X127931676Y-61491901D01*
X127630581Y-61041280D01*
X127931676Y-60590659D01*
X127944000Y-60528701D01*
X127944000Y-61553860D01*
G36*
X127944000Y-59013859D02*
X127931676Y-58951901D01*
X127630581Y-58501280D01*
X127931676Y-58050659D01*
X127944000Y-57988702D01*
X127944000Y-59013859D01*
X127944000Y-59013859D01*
G37*
X127944000Y-59013859D02*
X127931676Y-58951901D01*
X127630581Y-58501280D01*
X127931676Y-58050659D01*
X127944000Y-57988702D01*
X127944000Y-59013859D01*
G36*
X98125359Y-53721000D02*
X98288344Y-54540379D01*
X98416501Y-54732179D01*
X98416500Y-55454704D01*
X95830000Y-58041206D01*
X95830000Y-55376294D01*
X98284289Y-52922005D01*
X98125359Y-53721000D01*
X98125359Y-53721000D01*
G37*
X98125359Y-53721000D02*
X98288344Y-54540379D01*
X98416501Y-54732179D01*
X98416500Y-55454704D01*
X95830000Y-58041206D01*
X95830000Y-55376294D01*
X98284289Y-52922005D01*
X98125359Y-53721000D01*
G36*
X129245991Y-54827715D02*
X128614693Y-55459013D01*
X128460225Y-55562225D01*
X128051339Y-56174167D01*
X127967863Y-56593827D01*
X127931676Y-56411901D01*
X127630581Y-55961280D01*
X127931676Y-55510659D01*
X128052362Y-54903933D01*
X128602000Y-54354294D01*
X129205554Y-54104294D01*
X129245991Y-54063857D01*
X129245991Y-54827715D01*
X129245991Y-54827715D01*
G37*
X129245991Y-54827715D02*
X128614693Y-55459013D01*
X128460225Y-55562225D01*
X128051339Y-56174167D01*
X127967863Y-56593827D01*
X127931676Y-56411901D01*
X127630581Y-55961280D01*
X127931676Y-55510659D01*
X128052362Y-54903933D01*
X128602000Y-54354294D01*
X129205554Y-54104294D01*
X129245991Y-54063857D01*
X129245991Y-54827715D01*
G36*
X143803484Y-54525600D02*
X143917037Y-54525600D01*
X144323127Y-54931690D01*
X144417969Y-55073631D01*
X144980293Y-55449364D01*
X145476170Y-55548000D01*
X145476174Y-55548000D01*
X145643599Y-55581303D01*
X145811024Y-55548000D01*
X146050152Y-55548000D01*
X146130446Y-55628294D01*
X146744000Y-55882437D01*
X146744000Y-56384001D01*
X143517991Y-56384001D01*
X143618243Y-55880000D01*
X143582000Y-55697795D01*
X143582000Y-54433858D01*
X143803484Y-54525600D01*
X143803484Y-54525600D01*
G37*
X143803484Y-54525600D02*
X143917037Y-54525600D01*
X144323127Y-54931690D01*
X144417969Y-55073631D01*
X144980293Y-55449364D01*
X145476170Y-55548000D01*
X145476174Y-55548000D01*
X145643599Y-55581303D01*
X145811024Y-55548000D01*
X146050152Y-55548000D01*
X146130446Y-55628294D01*
X146744000Y-55882437D01*
X146744000Y-56384001D01*
X143517991Y-56384001D01*
X143618243Y-55880000D01*
X143582000Y-55697795D01*
X143582000Y-54433858D01*
X143803484Y-54525600D01*
G36*
X157737192Y-48847487D02*
X159122501Y-50232796D01*
X159122500Y-55177205D01*
X157915705Y-56384001D01*
X151473097Y-56384001D01*
X151822418Y-56100768D01*
X152057375Y-55943775D01*
X152208273Y-55717941D01*
X152362511Y-55532254D01*
X152998284Y-55795600D01*
X153833716Y-55795600D01*
X154605554Y-55475894D01*
X155196294Y-54885154D01*
X155516000Y-54113316D01*
X155516000Y-53277884D01*
X155306651Y-52772472D01*
X156006800Y-52911741D01*
X156826179Y-52748756D01*
X157520815Y-52284615D01*
X157984956Y-51589978D01*
X158106800Y-50977428D01*
X158106800Y-50063771D01*
X157984956Y-49451221D01*
X157686605Y-49004708D01*
X157684018Y-48811956D01*
X157737192Y-48847487D01*
X157737192Y-48847487D01*
G37*
X157737192Y-48847487D02*
X159122501Y-50232796D01*
X159122500Y-55177205D01*
X157915705Y-56384001D01*
X151473097Y-56384001D01*
X151822418Y-56100768D01*
X152057375Y-55943775D01*
X152208273Y-55717941D01*
X152362511Y-55532254D01*
X152998284Y-55795600D01*
X153833716Y-55795600D01*
X154605554Y-55475894D01*
X155196294Y-54885154D01*
X155516000Y-54113316D01*
X155516000Y-53277884D01*
X155306651Y-52772472D01*
X156006800Y-52911741D01*
X156826179Y-52748756D01*
X157520815Y-52284615D01*
X157984956Y-51589978D01*
X158106800Y-50977428D01*
X158106800Y-50063771D01*
X157984956Y-49451221D01*
X157686605Y-49004708D01*
X157684018Y-48811956D01*
X157737192Y-48847487D01*
G36*
X114517732Y-55585974D02*
X114041706Y-56062000D01*
X105263795Y-56062000D01*
X104993774Y-55791979D01*
X105139671Y-55821000D01*
X105553329Y-55821000D01*
X106165879Y-55699156D01*
X106616500Y-55398061D01*
X107067121Y-55699156D01*
X107679671Y-55821000D01*
X108093329Y-55821000D01*
X108705879Y-55699156D01*
X109156500Y-55398061D01*
X109607121Y-55699156D01*
X110219671Y-55821000D01*
X110633329Y-55821000D01*
X111245879Y-55699156D01*
X111696500Y-55398061D01*
X112147121Y-55699156D01*
X112759671Y-55821000D01*
X113173329Y-55821000D01*
X113785879Y-55699156D01*
X114236500Y-55398061D01*
X114517732Y-55585974D01*
X114517732Y-55585974D01*
G37*
X114517732Y-55585974D02*
X114041706Y-56062000D01*
X105263795Y-56062000D01*
X104993774Y-55791979D01*
X105139671Y-55821000D01*
X105553329Y-55821000D01*
X106165879Y-55699156D01*
X106616500Y-55398061D01*
X107067121Y-55699156D01*
X107679671Y-55821000D01*
X108093329Y-55821000D01*
X108705879Y-55699156D01*
X109156500Y-55398061D01*
X109607121Y-55699156D01*
X110219671Y-55821000D01*
X110633329Y-55821000D01*
X111245879Y-55699156D01*
X111696500Y-55398061D01*
X112147121Y-55699156D01*
X112759671Y-55821000D01*
X113173329Y-55821000D01*
X113785879Y-55699156D01*
X114236500Y-55398061D01*
X114517732Y-55585974D01*
G36*
X135314000Y-47729716D02*
X135400274Y-47938000D01*
X134710284Y-47938000D01*
X133938446Y-48257706D01*
X133347706Y-48848446D01*
X133028000Y-49620284D01*
X133028000Y-50455716D01*
X133347706Y-51227554D01*
X133938446Y-51818294D01*
X134710284Y-52138000D01*
X135545716Y-52138000D01*
X136149269Y-51888000D01*
X136215799Y-51888000D01*
X136398000Y-51924242D01*
X136463311Y-51911251D01*
X136712786Y-52284615D01*
X137407422Y-52748756D01*
X137695157Y-52805990D01*
X137642342Y-52841280D01*
X136335719Y-52841280D01*
X136153519Y-52805038D01*
X135971319Y-52841280D01*
X135971315Y-52841280D01*
X135431686Y-52948619D01*
X134819745Y-53357505D01*
X134716534Y-53511971D01*
X132945990Y-55282516D01*
X132945990Y-51125795D01*
X132942974Y-51110633D01*
X132982232Y-50913270D01*
X132838651Y-50191436D01*
X132532976Y-49733962D01*
X131484987Y-48685973D01*
X131484985Y-48685970D01*
X129711014Y-46912000D01*
X135314000Y-46912000D01*
X135314000Y-47729716D01*
X135314000Y-47729716D01*
G37*
X135314000Y-47729716D02*
X135400274Y-47938000D01*
X134710284Y-47938000D01*
X133938446Y-48257706D01*
X133347706Y-48848446D01*
X133028000Y-49620284D01*
X133028000Y-50455716D01*
X133347706Y-51227554D01*
X133938446Y-51818294D01*
X134710284Y-52138000D01*
X135545716Y-52138000D01*
X136149269Y-51888000D01*
X136215799Y-51888000D01*
X136398000Y-51924242D01*
X136463311Y-51911251D01*
X136712786Y-52284615D01*
X137407422Y-52748756D01*
X137695157Y-52805990D01*
X137642342Y-52841280D01*
X136335719Y-52841280D01*
X136153519Y-52805038D01*
X135971319Y-52841280D01*
X135971315Y-52841280D01*
X135431686Y-52948619D01*
X134819745Y-53357505D01*
X134716534Y-53511971D01*
X132945990Y-55282516D01*
X132945990Y-51125795D01*
X132942974Y-51110633D01*
X132982232Y-50913270D01*
X132838651Y-50191436D01*
X132532976Y-49733962D01*
X131484987Y-48685973D01*
X131484985Y-48685970D01*
X129711014Y-46912000D01*
X135314000Y-46912000D01*
X135314000Y-47729716D01*
G36*
X135633706Y-37926446D02*
X135314000Y-38698284D01*
X135314000Y-39533716D01*
X135633706Y-40305554D01*
X135792152Y-40464000D01*
X124459848Y-40464000D01*
X124379554Y-40383706D01*
X123607716Y-40064000D01*
X122772284Y-40064000D01*
X122000446Y-40383706D01*
X121409706Y-40974446D01*
X121090000Y-41746284D01*
X121090000Y-42581716D01*
X121359757Y-43232968D01*
X121067716Y-43112000D01*
X120232284Y-43112000D01*
X119460446Y-43431706D01*
X119144050Y-43748102D01*
X119144050Y-41108500D01*
X119058677Y-40679301D01*
X118815556Y-40315444D01*
X118451699Y-40072323D01*
X118022500Y-39986950D01*
X115022500Y-39986950D01*
X114593301Y-40072323D01*
X114229444Y-40315444D01*
X113986323Y-40679301D01*
X113900950Y-41108500D01*
X113900950Y-41749596D01*
X113646674Y-41135718D01*
X112915282Y-40404326D01*
X111959672Y-40008500D01*
X110925328Y-40008500D01*
X109969718Y-40404326D01*
X109238326Y-41135718D01*
X108902500Y-41946475D01*
X108566674Y-41135718D01*
X107835282Y-40404326D01*
X106879672Y-40008500D01*
X105845328Y-40008500D01*
X104889718Y-40404326D01*
X104158326Y-41135718D01*
X103822500Y-41946475D01*
X103486674Y-41135718D01*
X102755282Y-40404326D01*
X101799672Y-40008500D01*
X100765328Y-40008500D01*
X99809718Y-40404326D01*
X99078326Y-41135718D01*
X98682500Y-42091328D01*
X98682500Y-43125672D01*
X99078326Y-44081282D01*
X99432500Y-44435456D01*
X99432501Y-47569794D01*
X99396258Y-47752000D01*
X99539839Y-48473833D01*
X99688286Y-48696000D01*
X98226201Y-48696000D01*
X98044000Y-48659758D01*
X97861798Y-48696000D01*
X97861795Y-48696000D01*
X97322166Y-48803339D01*
X96710225Y-49212225D01*
X96607014Y-49366691D01*
X92800692Y-53173014D01*
X92646226Y-53276225D01*
X92543015Y-53430691D01*
X92304045Y-53788335D01*
X92249040Y-37892000D01*
X135668152Y-37892000D01*
X135633706Y-37926446D01*
X135633706Y-37926446D01*
G37*
X135633706Y-37926446D02*
X135314000Y-38698284D01*
X135314000Y-39533716D01*
X135633706Y-40305554D01*
X135792152Y-40464000D01*
X124459848Y-40464000D01*
X124379554Y-40383706D01*
X123607716Y-40064000D01*
X122772284Y-40064000D01*
X122000446Y-40383706D01*
X121409706Y-40974446D01*
X121090000Y-41746284D01*
X121090000Y-42581716D01*
X121359757Y-43232968D01*
X121067716Y-43112000D01*
X120232284Y-43112000D01*
X119460446Y-43431706D01*
X119144050Y-43748102D01*
X119144050Y-41108500D01*
X119058677Y-40679301D01*
X118815556Y-40315444D01*
X118451699Y-40072323D01*
X118022500Y-39986950D01*
X115022500Y-39986950D01*
X114593301Y-40072323D01*
X114229444Y-40315444D01*
X113986323Y-40679301D01*
X113900950Y-41108500D01*
X113900950Y-41749596D01*
X113646674Y-41135718D01*
X112915282Y-40404326D01*
X111959672Y-40008500D01*
X110925328Y-40008500D01*
X109969718Y-40404326D01*
X109238326Y-41135718D01*
X108902500Y-41946475D01*
X108566674Y-41135718D01*
X107835282Y-40404326D01*
X106879672Y-40008500D01*
X105845328Y-40008500D01*
X104889718Y-40404326D01*
X104158326Y-41135718D01*
X103822500Y-41946475D01*
X103486674Y-41135718D01*
X102755282Y-40404326D01*
X101799672Y-40008500D01*
X100765328Y-40008500D01*
X99809718Y-40404326D01*
X99078326Y-41135718D01*
X98682500Y-42091328D01*
X98682500Y-43125672D01*
X99078326Y-44081282D01*
X99432500Y-44435456D01*
X99432501Y-47569794D01*
X99396258Y-47752000D01*
X99539839Y-48473833D01*
X99688286Y-48696000D01*
X98226201Y-48696000D01*
X98044000Y-48659758D01*
X97861798Y-48696000D01*
X97861795Y-48696000D01*
X97322166Y-48803339D01*
X96710225Y-49212225D01*
X96607014Y-49366691D01*
X92800692Y-53173014D01*
X92646226Y-53276225D01*
X92543015Y-53430691D01*
X92304045Y-53788335D01*
X92249040Y-37892000D01*
X135668152Y-37892000D01*
X135633706Y-37926446D01*
G36*
X170034950Y-44235500D02*
X170120323Y-44664699D01*
X170363444Y-45028556D01*
X170727301Y-45271677D01*
X170806500Y-45287431D01*
X170806501Y-50859204D01*
X167902500Y-53763206D01*
X167902500Y-52645794D01*
X168819309Y-51728985D01*
X168973775Y-51625775D01*
X169382661Y-51013834D01*
X169490000Y-50474205D01*
X169490000Y-50474202D01*
X169526242Y-50292001D01*
X169490000Y-50109799D01*
X169490000Y-45102525D01*
X169526243Y-44920320D01*
X169450321Y-44538635D01*
X169780674Y-44208282D01*
X170034950Y-43594404D01*
X170034950Y-44235500D01*
X170034950Y-44235500D01*
G37*
X170034950Y-44235500D02*
X170120323Y-44664699D01*
X170363444Y-45028556D01*
X170727301Y-45271677D01*
X170806500Y-45287431D01*
X170806501Y-50859204D01*
X167902500Y-53763206D01*
X167902500Y-52645794D01*
X168819309Y-51728985D01*
X168973775Y-51625775D01*
X169382661Y-51013834D01*
X169490000Y-50474205D01*
X169490000Y-50474202D01*
X169526242Y-50292001D01*
X169490000Y-50109799D01*
X169490000Y-45102525D01*
X169526243Y-44920320D01*
X169450321Y-44538635D01*
X169780674Y-44208282D01*
X170034950Y-43594404D01*
X170034950Y-44235500D01*
G36*
X125566284Y-52138000D02*
X125585706Y-52138000D01*
X125290000Y-52433706D01*
X125290000Y-52160284D01*
X125221638Y-51995243D01*
X125566284Y-52138000D01*
X125566284Y-52138000D01*
G37*
X125566284Y-52138000D02*
X125585706Y-52138000D01*
X125290000Y-52433706D01*
X125290000Y-52160284D01*
X125221638Y-51995243D01*
X125566284Y-52138000D01*
G36*
X146647063Y-47771085D02*
X146665702Y-49066507D01*
X146408644Y-49451222D01*
X146286800Y-50063772D01*
X146286800Y-50977429D01*
X146408644Y-51589979D01*
X146598350Y-51873894D01*
X146314415Y-51991504D01*
X146001494Y-51236046D01*
X145410754Y-50645306D01*
X144638916Y-50325600D01*
X143803484Y-50325600D01*
X143031646Y-50645306D01*
X142866800Y-50810152D01*
X142866800Y-50063771D01*
X142744956Y-49451221D01*
X142280815Y-48756585D01*
X141586178Y-48292444D01*
X140766800Y-48129459D01*
X139947421Y-48292444D01*
X139496800Y-48593539D01*
X139264000Y-48437988D01*
X139264000Y-48333269D01*
X139514000Y-47729716D01*
X139514000Y-46912000D01*
X145665252Y-46912000D01*
X146647063Y-47771085D01*
X146647063Y-47771085D01*
G37*
X146647063Y-47771085D02*
X146665702Y-49066507D01*
X146408644Y-49451222D01*
X146286800Y-50063772D01*
X146286800Y-50977429D01*
X146408644Y-51589979D01*
X146598350Y-51873894D01*
X146314415Y-51991504D01*
X146001494Y-51236046D01*
X145410754Y-50645306D01*
X144638916Y-50325600D01*
X143803484Y-50325600D01*
X143031646Y-50645306D01*
X142866800Y-50810152D01*
X142866800Y-50063771D01*
X142744956Y-49451221D01*
X142280815Y-48756585D01*
X141586178Y-48292444D01*
X140766800Y-48129459D01*
X139947421Y-48292444D01*
X139496800Y-48593539D01*
X139264000Y-48437988D01*
X139264000Y-48333269D01*
X139514000Y-47729716D01*
X139514000Y-46912000D01*
X145665252Y-46912000D01*
X146647063Y-47771085D01*
G36*
X165372326Y-44208282D02*
X165726500Y-44562456D01*
X165726500Y-44674618D01*
X165690258Y-44856820D01*
X165726500Y-45039021D01*
X165726500Y-45039024D01*
X165790001Y-45358264D01*
X165790000Y-49525705D01*
X165362500Y-49953206D01*
X165362500Y-44184560D01*
X165372326Y-44208282D01*
X165372326Y-44208282D01*
G37*
X165372326Y-44208282D02*
X165726500Y-44562456D01*
X165726500Y-44674618D01*
X165690258Y-44856820D01*
X165726500Y-45039021D01*
X165726500Y-45039024D01*
X165790001Y-45358264D01*
X165790000Y-49525705D01*
X165362500Y-49953206D01*
X165362500Y-44184560D01*
X165372326Y-44208282D01*
G36*
X108576501Y-49635706D02*
X108212500Y-49271706D01*
X108212500Y-44435456D01*
X108566674Y-44081282D01*
X108576500Y-44057560D01*
X108576501Y-49635706D01*
X108576501Y-49635706D01*
G37*
X108576501Y-49635706D02*
X108212500Y-49271706D01*
X108212500Y-44435456D01*
X108566674Y-44081282D01*
X108576500Y-44057560D01*
X108576501Y-49635706D01*
G36*
X154267081Y-47572954D02*
X154276714Y-48290561D01*
X153466800Y-48129459D01*
X152647421Y-48292444D01*
X152196800Y-48593539D01*
X151746178Y-48292444D01*
X150926800Y-48129459D01*
X150107421Y-48292444D01*
X150055416Y-48327193D01*
X150037590Y-47088274D01*
X150065464Y-46874702D01*
X149989111Y-46591019D01*
X149927655Y-46303723D01*
X149901618Y-46265944D01*
X149889694Y-46221641D01*
X149710587Y-45988763D01*
X149543870Y-45746863D01*
X149363080Y-45629790D01*
X147592619Y-44080637D01*
X147529631Y-43986369D01*
X147346493Y-43864000D01*
X149527862Y-43864000D01*
X154267081Y-47572954D01*
X154267081Y-47572954D01*
G37*
X154267081Y-47572954D02*
X154276714Y-48290561D01*
X153466800Y-48129459D01*
X152647421Y-48292444D01*
X152196800Y-48593539D01*
X151746178Y-48292444D01*
X150926800Y-48129459D01*
X150107421Y-48292444D01*
X150055416Y-48327193D01*
X150037590Y-47088274D01*
X150065464Y-46874702D01*
X149989111Y-46591019D01*
X149927655Y-46303723D01*
X149901618Y-46265944D01*
X149889694Y-46221641D01*
X149710587Y-45988763D01*
X149543870Y-45746863D01*
X149363080Y-45629790D01*
X147592619Y-44080637D01*
X147529631Y-43986369D01*
X147346493Y-43864000D01*
X149527862Y-43864000D01*
X154267081Y-47572954D01*
G36*
X104158326Y-44081282D02*
X104512500Y-44435456D01*
X104512501Y-48341628D01*
X104457775Y-48259725D01*
X104303309Y-48156514D01*
X103132500Y-46985706D01*
X103132500Y-44435456D01*
X103486674Y-44081282D01*
X103822500Y-43270525D01*
X104158326Y-44081282D01*
X104158326Y-44081282D01*
G37*
X104158326Y-44081282D02*
X104512500Y-44435456D01*
X104512501Y-48341628D01*
X104457775Y-48259725D01*
X104303309Y-48156514D01*
X103132500Y-46985706D01*
X103132500Y-44435456D01*
X103486674Y-44081282D01*
X103822500Y-43270525D01*
X104158326Y-44081282D01*
G36*
X161023718Y-44939674D02*
X161662501Y-45204266D01*
X161662501Y-47540206D01*
X160766499Y-46644205D01*
X160766499Y-44682455D01*
X161023718Y-44939674D01*
X161023718Y-44939674D01*
G37*
X161023718Y-44939674D02*
X161662501Y-45204266D01*
X161662501Y-47540206D01*
X160766499Y-46644205D01*
X160766499Y-44682455D01*
X161023718Y-44939674D01*
G36*
X113900950Y-44108500D02*
X113986323Y-44537699D01*
X114229444Y-44901556D01*
X114459459Y-45055247D01*
X112276500Y-47238206D01*
X112276500Y-45077266D01*
X112915282Y-44812674D01*
X113646674Y-44081282D01*
X113900950Y-43467404D01*
X113900950Y-44108500D01*
X113900950Y-44108500D01*
G37*
X113900950Y-44108500D02*
X113986323Y-44537699D01*
X114229444Y-44901556D01*
X114459459Y-45055247D01*
X112276500Y-47238206D01*
X112276500Y-45077266D01*
X112915282Y-44812674D01*
X113646674Y-44081282D01*
X113900950Y-43467404D01*
X113900950Y-44108500D01*
G36*
X118550000Y-45629716D02*
X118662784Y-45902000D01*
X118350362Y-45902000D01*
X118372500Y-45790705D01*
X118408743Y-45608500D01*
X118372500Y-45426295D01*
X118372500Y-45160431D01*
X118451699Y-45144677D01*
X118550000Y-45078994D01*
X118550000Y-45629716D01*
X118550000Y-45629716D01*
G37*
X118550000Y-45629716D02*
X118662784Y-45902000D01*
X118350362Y-45902000D01*
X118372500Y-45790705D01*
X118408743Y-45608500D01*
X118372500Y-45426295D01*
X118372500Y-45160431D01*
X118451699Y-45144677D01*
X118550000Y-45078994D01*
X118550000Y-45629716D01*
G36*
X157066500Y-45430064D02*
X156944514Y-45350903D01*
X156924832Y-45335500D01*
X157066500Y-45335500D01*
X157066500Y-45430064D01*
X157066500Y-45430064D01*
G37*
X157066500Y-45430064D02*
X156944514Y-45350903D01*
X156924832Y-45335500D01*
X157066500Y-45335500D01*
X157066500Y-45430064D01*
G36*
X155212326Y-41262718D02*
X154816500Y-42218328D01*
X154816500Y-43252672D01*
X155081778Y-43893110D01*
X151376193Y-40993088D01*
X151358093Y-40966000D01*
X155509044Y-40966000D01*
X155212326Y-41262718D01*
X155212326Y-41262718D01*
G37*
X155212326Y-41262718D02*
X154816500Y-42218328D01*
X154816500Y-43252672D01*
X155081778Y-43893110D01*
X151376193Y-40993088D01*
X151358093Y-40966000D01*
X155509044Y-40966000D01*
X155212326Y-41262718D01*
G36*
X160292326Y-41262718D02*
X159956500Y-42073475D01*
X159620674Y-41262718D01*
X159323956Y-40966000D01*
X160589044Y-40966000D01*
X160292326Y-41262718D01*
X160292326Y-41262718D01*
G37*
X160292326Y-41262718D02*
X159956500Y-42073475D01*
X159620674Y-41262718D01*
X159323956Y-40966000D01*
X160589044Y-40966000D01*
X160292326Y-41262718D01*
G36*
X165372326Y-41262718D02*
X165036500Y-42073475D01*
X164700674Y-41262718D01*
X164403956Y-40966000D01*
X165669044Y-40966000D01*
X165372326Y-41262718D01*
X165372326Y-41262718D01*
G37*
X165372326Y-41262718D02*
X165036500Y-42073475D01*
X164700674Y-41262718D01*
X164403956Y-40966000D01*
X165669044Y-40966000D01*
X165372326Y-41262718D01*
G36*
X170034950Y-41235500D02*
X170034950Y-41876596D01*
X169780674Y-41262718D01*
X169483956Y-40966000D01*
X170088557Y-40966000D01*
X170034950Y-41235500D01*
X170034950Y-41235500D01*
G37*
X170034950Y-41235500D02*
X170034950Y-41876596D01*
X169780674Y-41262718D01*
X169483956Y-40966000D01*
X170088557Y-40966000D01*
X170034950Y-41235500D01*
M02*
